<svg xmlns="http://www.w3.org/2000/svg" width="512" height="512" viewBox="0 0 512 512"><path d="M256 55.083c-113.764 0-206 92.237-206 206 0 91.013 59.025 168.246 140.887 195.472 10.293 1.91 13.613-4.46 13.613-9.908V408.29C147.2 420.765 135.262 384 135.262 384c-9.354-23.822-22.865-30.16-22.865-30.16-18.693-12.773 1.408-12.522 1.408-12.522 20.688 1.46 31.584 21.24 31.584 21.24 18.37 31.483 48.18 22.38 59.94 17.117 1.84-13.312 7.17-22.397 13.07-27.544-45.77-5.19-93.85-22.86-93.85-101.81 0-22.49 8.04-40.87 21.22-55.28-2.15-5.19-9.19-26.15 1.98-54.52 0 0 17.3-5.53 56.66 21.13 16.44-4.56 34.06-6.85 51.57-6.94 17.5.09 35.15 2.38 51.6 6.94 39.33-26.65 56.59-21.12 56.59-21.12 11.21 28.37 4.15 49.32 2.03 54.52 13.21 14.42 21.2 32.79 21.2 55.29 0 79.13-48.2 96.55-94.07 101.64 7.37 6.39 14.13 18.95 14.13 38.16v56.53c0 5.48 3.3 11.9 13.75 9.89C403.06 429.27 462 352.08 462 261.09c0-113.766-92.238-206-206-206z" fill="#f7d884"/></svg>