<svg xmlns="http://www.w3.org/2000/svg" width="334.63" height="379.706" viewBox="0 0 334.63 379.706"><path fill="#fff" d="M38.184 50.9h254.558v280.015H38.184z"/><g fill="#231f20"><path d="M111.976 154.694h55.338v-42.92h-59.17zM0 0l30.47 341.74 136.762 37.966 136.89-37.948L334.63 0zm278.008 320l-110.694 30.685V307.19l-.067.02-85.858-23.834-6.01-67.3h42.07l3.11 34.915 46.68 12.61.06-.02v-66.97H73.64L62.34 69.86h104.974V27.945H304.08l-26.072 292.053z" fill="#82cf8f"/><path d="M218.906 196.608h-51.592v66.974l46.728-12.613 4.864-54.36zM167.314 27.945V69.86H272.29l-3.755 41.915h-101.22v42.92h97.405l-11.5 128.683-85.906 23.813v43.5L278.008 320l26.07-292.055H167.314z" fill="#99e4a5"/><path d="M167.314 69.858H62.34l11.305 126.75h93.67v-41.914h-55.34l-3.83-42.92h59.17m0 151.807l-.06.02-46.68-12.6-3.115-34.91H75.384l6.004 67.3 85.86 23.84.066-.02" opacity=".2"/></g></svg>