<svg xmlns="http://www.w3.org/2000/svg" version="1" width="365.333" height="253.333" viewBox="0 0 274.000000 190.000000"><path d="M85 1.1c-10.2.4-29.6.9-43.3 1.2-24.6.5-24.7.5-28.1 3-2.3 1.8-3.7 3.9-4.4 6.9C7.7 18.3 5.3 39 4.1 56c-.5 8-1 15.2-1.1 16-.8 11.8-.9 57.7-.1 68 1.1 13.9 2.9 28.4 3.9 31 .3.8.7 2.4.9 3.4.4 2.2 3.8 5.4 6.9 6.6 10.3 4 85.3 8.1 146.6 7.9 34.8 0 82.1-2.1 86.2-3.8 5.2-2.1 10.2-6.9 11.9-11.3 1.8-4.8 7.3-30.7 9.3-43.8 2.6-16.7 3.7-49 2.5-71.5-1-18.7-3.2-39.9-4.7-45.9-1-4-7-7-15.3-7.8C205 .7 133.9-.9 85 1.1zm149.1 6.2c11.3.8 21.5 1.9 22.7 2.6 3.2 1.7 4.1 6.7 5.3 27.1 2.5 41.9-2.1 99.7-10 128-3.1 10.9-5.1 14.7-8.5 16-6.4 2.4-137.1 1.8-187.1-.9-20.3-1.1-37.8-2.2-38.7-2.6-5.1-2-7.9-22.3-8.5-64.2-.5-27 0-42.4 2.3-67.8 1-10.9 4.3-31.4 5.3-33.4.6-1.1 2.6-2.4 4.3-2.9C23 8.6 38.7 7.6 56 7c17.3-.6 32.9-1.3 34.5-1.5 8-.9 125 .6 143.6 1.8z" fill="#fff"/><path d="M57.8 34.9c-8.5 2.8-12.6 8.1-11.3 14.7.8 4.4 4.1 7.9 9.8 10.4 3.7 1.6 5.2 1.8 11.1.9 7.3-1 9.8-2 13.4-5.2 3-2.8 3.1-10.3.1-14.1-4.3-5.5-16.1-8.9-23.1-6.7zM71 38.1c6.6 3 8 4.6 8 9.4 0 4.5-1.2 6.1-6.7 8.9-5.2 2.6-11.3 3-15.3.9-4.1-2.1-8-7.6-8-11.2 0-8.1 12-12.5 22-8zM42.3 72.9c-.3 1.4-.3 16 .1 32.5.4 16.6.8 35.8.9 42.8l.2 12.8h17.1c9.4 0 19.3.3 21.9.7l4.8.6-.6-3.4c-.4-1.9-.9-17.8-1.3-35.4-.6-29.3 0-44.4 2.1-51.5.4-1.3-2.5-1.5-22.1-1.5H42.9l-.6 2.4zm39.5 25.6c0 14 .3 25.8.6 26.3.2.4.6 8.2.7 17.3l.3 16.4-17.6.3-17.5.2-.6-4.7c-2.3-18.1-3.2-77.1-1.2-80.3.4-.6 7-1 18-1h17.3v25.5zM124.9 72c-10.8.4-20.2 1.1-20.9 1.5-1.5.9-.9 25.1 1.5 61 .8 12.1 1.5 23 1.5 24.2v2.3h22.5c25.9 0 24.6.6 22.6-9.4-1.5-7.3-2.7-42.3-1.7-48.8.6-4.3 1-4.8 4.9-6.3 2.9-1.2 7.1-1.7 13.2-1.7 10.3 0 15.9 1.8 16.9 5.4 1.8 6.8 4.8 42.1 4.2 51-.5 9.6-.5 9.8 1.7 9.8 1.2 0 11.7.1 23.2.1l21 .1.3-11.8c.3-13.4-4.9-57.5-7.4-63-1.4-3-8.8-8.1-14.9-10.4-5.7-2.2-18.1-4-26.9-4-12.2 0-21 1.7-28.1 5.4-3.3 1.7-6.3 3.2-6.7 3.4-.5.2-.8-1.9-.8-4.7V71l-3.2.2c-1.8.1-12.1.4-22.9.8zm76.4 3.5c7.2 1.5 14.3 4.9 20 9.6 3.3 2.7 3.6 3.4 6 16.6 3.7 19.5 5 32.7 4.5 45.3-.2 6-.5 11.1-.8 11.3-.3.3-8.8.7-19 .8l-18.5.4-.2-6c-.4-10.7-2.4-44.8-3-51-.3-3.8-1.1-6.4-2.2-7.2-3.2-2.5-9.8-3.8-19.6-3.8-8.7 0-10.7.4-15.6 2.7-5.2 2.4-5.7 2.9-6.2 6.4-.9 5.8.1 38.8 1.3 47.8.6 4.3.9 8.4.6 9.1-.3 1-4.9 1.3-19.4 1.4l-18.9.2-.7-6.8c-1.4-13.9-2.1-32.5-2.1-54.3V75.5l19.8-.3L147 75v5c0 6.2 1.9 7.4 5.8 3.7 8.4-8 31.2-11.9 48.5-8.2z" fill="#fff"/></svg>