<svg xmlns="http://www.w3.org/2000/svg" version="1" width="276" height="189.333" viewBox="0 0 207.000000 142.000000"><path d="M12.3.6c-1.7.7-1.6 4 .2 8.9 2.3 6.4 2 30.9-.5 42.6C9 66.2 8.3 88.2 10.5 99c1 4.7 2 14.8 2.4 22.5l.6 14 7.5 1.2c8.6 1.5 58.5 3.3 103.5 4 29.5.3 69.5-1.3 71.2-3 .4-.4.6-14.8.4-32-.1-24.2.1-33.1 1.3-39.7.8-4.7 1.8-13.9 2.2-20.5.6-10.4.4-13.1-1.5-20.2C196.9 20.7 196 14 196 10c0-6.4-.2-7-2.2-7.4-1.3-.3-40.1-.7-86.3-1.1-46.2-.3-86.2-.7-89-1-2.7-.2-5.6-.2-6.2.1zm165.5 5c7.8.3 14.2.9 14.1 1.3 0 .3-3.9 3.3-8.7 6.6-12.5 8.7-22.5 17.7-27.8 25.1-2.5 3.5-4.9 6.4-5.4 6.4-.4 0-2.7 2.9-5 6.5-5.4 8.3-12 14.2-20.9 18.8-8.4 4.4-13.6 7.6-19.7 12.2-5.4 4.2-7 4.3-13.2 1C79.6 77.2 73.8 73 67.3 66 38 34.9 27.5 21.9 26.5 15.8c-.5-2.9-1.8-5.3-4.1-7.6C20.5 6.3 19 4.7 19 4.6c0-.4 146.9.4 158.8 1zM23 17.9c0 2.7 1.5 5 11.5 18 1.1 1.4 3.4 4 5 5.6 1.7 1.7 6.1 6.7 10 11 3.8 4.4 10.1 11.3 13.9 15.2 3.8 4 6.7 7.4 6.5 7.6-4.6 3.6-18.8 17.8-23.3 23.1-7.3 8.9-27.4 29.6-28.7 29.6-.5 0-.9-3.2-.9-7 0-3.9-1-12.4-2.1-18.8-1.8-10-2.1-13.9-1.5-27.2.3-8.5 1.3-18 2.1-21 1.1-4 1.5-11.1 1.5-25.5l.1-20 2.9 3.3c1.9 2 3 4.3 3 6.1zm171.4 8.6c2.1 6.6 2.1 23.7 0 33.5-1.2 5.4-1.8 15.7-2.3 36.9l-.6 29.3-9.5-8.8c-5.2-4.8-12.9-11.7-17.1-15.3-4.2-3.6-12.8-12.6-19-20l-11.3-13.4 3.8-3c2-1.6 5.6-5.7 7.8-9.1 4.1-6 8.5-11.4 18.3-22.3 2.8-3.1 10-9.3 16-13.8l11-8.3.7 4.7c.3 2.5 1.3 6.8 2.2 9.6zm-46.9 63.4c3.3 4 10.6 11.5 16.4 16.5 5.7 5 12.9 11.6 16 14.6 3.1 3.1 7.4 7 9.5 8.6 2.2 1.7 3.6 3.5 3.3 4.1-.4.6-6.6 1.4-13.9 1.9-31.8 2.1-158.8-.4-158.8-3.1 0-.2 3.2-3.4 7.1-7.2 3.9-3.7 11.2-11.5 16.2-17.3 12.5-14.2 21.4-23.6 26-27.3 4.4-3.4 4.2-3.5 16.6 4.3 5.4 3.3 7.3 4 11.6 4 4.7 0 5.9-.5 11.8-5 3.6-2.7 9.8-6.7 13.9-8.8l7.3-4 5.5 5.7c3 3.1 8.2 9 11.5 13z" fill="#fff"/></svg>