<svg xmlns="http://www.w3.org/2000/svg" width="1290.3" height="1955.222" viewBox="0 0 1290.3 1955.2216"><path d="M257.7 245.888c0-5-2.6-9.6-6.9-12.1l-115-66.2c-1.9-1.1-4.1-1.7-6.3-1.8h-1.2c-2.2.1-4.4.7-6.3 1.8l-115 66.2c-4.3 2.5-7 7.1-7 12.1l.3 178.2c0 2.5 1.3 4.8 3.5 6 2.1 1.3 4.8 1.3 6.9 0l68.3-39.1c4.3-2.6 7-7.1 7-12.1v-83.3c0-5 2.6-9.6 6.9-12l29.1-16.8c2.2-1.3 4.5-1.9 7-1.9 2.4 0 4.8.6 6.9 1.9l29.1 16.8c4.3 2.5 6.9 7.1 6.9 12v83.3c0 5 2.7 9.5 7 12.1l68.3 39.1c2.1 1.3 4.8 1.3 6.9 0 2.1-1.2 3.5-3.5 3.5-6l.1-178.2zm614.1-245c-2.2-1.2-4.8-1.2-6.9.1-2.1 1.2-3.4 3.5-3.4 6v176.5c0 1.7-.9 3.3-2.4 4.2-1.5.9-3.4.9-4.9 0l-28.8-16.6c-4.3-2.5-9.6-2.5-13.9 0l-115 66.4c-4.3 2.5-6.9 7.1-6.9 12v132.8c0 5 2.6 9.5 6.9 12l115 66.4c4.3 2.5 9.6 2.5 13.9 0l115.1-66.4c4.3-2.5 6.9-7.1 6.9-12v-331c0-5-2.7-9.7-7.1-12.1L871.8.888zm-10.7 337.8c0 1.2-.7 2.4-1.7 3l-39.5 22.8c-1.1.6-2.4.6-3.5 0l-39.5-22.8c-1.1-.6-1.7-1.8-1.7-3v-45.6c0-1.2.7-2.4 1.7-3l39.5-22.8c1.1-.6 2.4-.6 3.5 0l39.5 22.8c1.1.6 1.7 1.8 1.7 3v45.6zm422.3-46.8c4.3-2.5 6.9-7.1 6.9-12v-32.2c0-4.9-2.6-9.5-6.9-12l-114.3-66.4c-4.3-2.5-9.6-2.5-13.9 0l-115 66.4c-4.3 2.5-6.9 7.1-6.9 12v132.8c0 5 2.7 9.6 7 12.1l114.3 65.1c4.2 2.4 9.4 2.4 13.6.1l69.1-38.4c2.2-1.2 3.6-3.5 3.6-6s-1.3-4.8-3.5-6.1l-115.7-66.4c-2.2-1.2-3.5-3.5-3.5-6v-41.6c0-2.5 1.3-4.8 3.5-6l36-20.8c2.1-1.2 4.8-1.2 6.9 0l36 20.8c2.2 1.2 3.5 3.5 3.5 6v32.7c0 2.5 1.3 4.8 3.5 6 2.2 1.2 4.8 1.2 7 0l68.8-40.1z" clip-rule="evenodd" fill="#fff" fill-rule="evenodd"/><path d="M466.9 168.588c4.3-2.5 9.6-2.5 13.9 0l115 66.4c4.3 2.5 6.9 7.1 6.9 12v132.9c0 5-2.6 9.5-6.9 12l-115 66.4c-4.3 2.5-9.6 2.5-13.9 0l-115-66.4c-4.3-2.5-6.9-7.1-6.9-12v-132.9c0-5 2.6-9.5 6.9-12l115-66.4z" clip-rule="evenodd" fill="#82cf8f" fill-rule="evenodd"/><path d="M643.4 1955.222c-19.623 0-38.757-4.906-55.928-14.72l-177.6-104.988c-26.492-14.72-13.737-20.115-4.906-23.06 35.324-12.264 42.683-15.208 80.46-36.304 3.925-2.453 9.32-1.472 13.246.98l136.39 80.952c4.905 2.943 11.773 2.943 16.68 0l532.307-307.12c4.9-2.944 8.34-8.34 8.34-14.228v-614.73c0-5.887-2.95-11.774-8.34-14.718l-531.82-306.63c-4.91-2.943-11.29-2.943-16.19 0l-531.82 307.12c-5.4 2.944-8.34 8.832-8.34 14.72v614.238c0 5.888 3.43 11.284 8.34 14.228l145.71 84.384c78.99 39.74 127.56-6.868 127.56-53.967V974.5c0-8.34 6.87-15.21 15.7-15.21h67.7c8.34 0 15.21 6.87 15.21 15.21v606.39c0 105.48-57.4 166.314-157.49 166.314-30.91 0-54.95 0-122.65-33.36l-139.33-80.46C22.29 1613.27.7 1575.984.7 1536.244v-614.24c0-39.74 21.588-77.025 55.93-97.14l532.31-307.61c33.852-19.134 78.497-19.134 111.86 0l532.306 307.61c34.343 20.115 55.93 56.91 55.93 97.14v614.24c0 39.74-21.587 77.025-55.93 97.14L700.8 1940.504c-18.152 9.812-37.777 14.718-57.4 14.718z" fill="#82cf8f"/><path d="M807.754 1532.32c-233.038 0-281.608-106.953-281.608-196.734 0-8.34 6.87-15.21 15.21-15.21h68.684c7.85 0 14.227 5.397 15.21 13.247 10.3 70.157 41.21 105.48 182.014 105.48 112.35 0 159.937-25.51 159.937-84.874 0-34.35-13.73-59.86-187.9-77.03-145.71-14.23-235.49-46.61-235.49-162.88 0-107.45 90.27-171.23 242.36-171.23 170.24 0 254.63 59.36 265.42 185.94.49 4.41-.98 8.34-3.92 11.77-2.94 2.94-6.87 4.9-11.28 4.9H967.2c-7.358 0-13.245-4.91-14.717-11.78-16.68-73.59-56.91-97.14-166.315-97.14-122.16 0-136.39 42.68-136.39 74.57 0 38.76 16.682 50.04 182.016 71.63 163.372 21.58 241.378 52 241.378 167.29 0 115.782-96.65 182.014-265.418 182.014z" fill="#82cf8f"/><path d="M1160.4 285.688c.8-.5 1.8-.5 2.7 0l22.1 12.7c.8.5 1.3 1.4 1.3 2.3v25.5c0 1-.5 1.8-1.3 2.3l-22.1 12.7c-.8.5-1.8.5-2.7 0l-22.1-12.7c-.8-.5-1.3-1.4-1.3-2.3v-25.5c0-1 .5-1.8 1.3-2.3l22.1-12.7z" clip-rule="evenodd" fill="#82cf8f" fill-rule="evenodd"/></svg>