<svg xmlns="http://www.w3.org/2000/svg" viewBox="0 0 1091.2714 273.14099" height="273.141" width="1091.271"><path d="M0 273.14h1091.27V0H0v273.14z" fill="#596273"/><g opacity=".5"><path fill="#333" d="M962 215.597V44.834c0-3.887-3.148-7.037-7.03-7.037H686.736c-3.89 0-7.028 3.15-7.028 7.037v170.763H962"/><path fill="#545454" d="M680.077 215.23H961.63V44.833c0-3.677-2.988-6.668-6.66-6.668H686.736c-3.672 0-6.66 2.99-6.66 6.668V215.23zm281.923.735H679.71c-.205 0-.37-.164-.37-.368V44.834c0-4.083 3.32-7.404 7.397-7.404H954.97c4.077 0 7.397 3.32 7.397 7.404v170.763c0 .204-.163.368-.367.368"/><path fill="#fff" d="M867.787 265.784H773.92c-2.38 0-4.315 2.27-4.315 5.066v1.902h102.5v-1.902c0-2.795-1.938-5.066-4.318-5.066M679.71 215.597v20.168c0 3.877 3.137 7.02 7.027 7.02H954.97c3.882 0 7.03-3.143 7.03-7.02v-20.168H679.71"/><path fill="#ec8558" d="M691.274 203.935h259.163V48.78H691.274v155.155z"/><path fill="#dce4e7" d="M862.47 265.784c-1.88-7.67-3.75-15.333-5.63-22.998h-71.97c-1.87 7.665-3.748 15.33-5.624 22.998h83.223"/><path fill="#cdd5d8" d="M779.246 265.784h38.16l22.996-22.998h-55.53c-1.873 7.665-3.75 15.33-5.626 22.998"/><path fill="#70a5c5" d="M881.914 45.31c0 7.59 5.01 13.74 11.19 13.74h6.536v15.065l16.98-15.064h67.555c6.18 0 11.19-6.15 11.19-13.74V17.37c0-7.588-5.01-13.74-11.19-13.74h-91.07c-6.18 0-11.19 6.152-11.19 13.74v27.95m-124.05 94.164c0 7.588-6.15 13.74-13.74 13.74h-8.02v15.064l-20.848-15.062H632.32c-7.59 0-13.74-6.15-13.74-13.74v-27.95c0-7.59 6.15-13.74 13.74-13.74h111.806c7.59 0 13.74 6.152 13.74 13.74v27.946m5.31-69.372c1.94 8.637 8.608 15.826 14.905 16.118 2.25.08 4.5.165 6.75.255.72 6.13 1.43 12.264 2.14 18.396 4.65-5.548 9.78-11.41 15.4-17.59 13.45.707 26.89 1.607 40.308 2.7 6.264.58 12.983-8.114 15.003-19.484l7.09-41.644c2.02-11.366-3.245-19.94-11.743-19.06-28.39 2.757-56.69 6.17-84.872 10.237-8.435 1.27-13.69 9.37-11.76 18.005 2.263 10.686 4.528 21.373 6.79 32.06m23.21 110.033c1.747-7.46 8-13.956 13.99-14.438 2.14-.153 4.277-.3 6.417-.44.64-5.275 1.28-10.55 1.918-15.824 4.48 4.614 9.408 9.553 14.76 14.822 12.817-.686 25.64-1.186 38.477-1.503 6.006-.21 12.23 7.632 13.897 17.453l5.854 35.97c1.663 9.828-3.337 16.807-11.187 15.664-26.255-3.66-52.613-6.712-79.05-9.15-7.915-.78-12.92-7.396-11.18-14.864l6.11-27.696"/><path fill="#fff" d="M918.554 40.642h-3.833v-8.937h-9.58v8.937h-3.84V20.194h3.84v8.796h9.587v-8.796h3.84v20.448M937.1 20.194v3.125h-6.15v17.32h-3.807V23.32h-6.18v-3.126h16.135M950.22 33.1c.137.322.27.65.405.98.13-.34.27-.673.41-1.004.14-.33.29-.646.45-.947l6.055-11.33c.075-.15.152-.26.232-.34l.27-.19c.1-.04.21-.065.332-.07.122-.01.268-.018.438-.018h2.872v20.45h-3.353v-13.2c0-.245.01-.515.03-.806.017-.298.038-.59.067-.897l-6.18 11.6c-.14.264-.325.47-.55.614-.227.15-.49.22-.792.22h-.523c-.3 0-.564-.07-.792-.22-.224-.144-.41-.35-.55-.614l-6.265-11.64c.036.31.063.618.076.915.014.297.02.573.02.827v13.21h-3.35V20.196h2.87c.17 0 .316.005.44.015.12.008.23.03.33.07l.276.18c.084.088.164.2.24.34l6.11 11.358c.16.303.307.615.444.942m19.394 4.403h8.19v3.14h-12v-20.45h3.807v17.31M812.9 199.605v4.778c0 5.755-2.876 9.043-8.426 9.043s-8.43-3.288-8.43-9.043V185.68c0-5.755 2.88-9.043 8.426-9.043 5.55 0 8.426 3.288 8.426 9.043v3.494h-5.342v-3.854c0-2.57-1.13-3.545-2.93-3.545-1.8 0-2.93.976-2.93 3.545v19.424c0 2.57 1.13 3.493 2.93 3.493 1.8 0 2.93-.923 2.93-3.493v-5.138h5.343m15.417 2.98l3.853-25.54h7.86v35.97h-5.345V187.22l-3.903 25.796h-5.348l-4.212-25.435v25.44h-4.93v-35.97h7.86l4.164 25.54m23.43-25.95c5.496 0 8.323 3.29 8.323 9.05v1.13h-5.345v-1.49c0-2.57-1.03-3.544-2.827-3.544-1.8 0-2.825.976-2.825 3.545 0 7.4 11.05 8.788 11.05 19.065 0 5.753-2.88 9.04-8.426 9.04-5.554 0-8.43-3.286-8.43-9.04v-2.21h5.344v2.57c0 2.57 1.13 3.492 2.928 3.492 1.8 0 2.93-.922 2.93-3.492 0-7.4-11.048-8.786-11.048-19.063 0-5.753 2.826-9.04 8.325-9.04m-212.17-48.066c0 .733-.09 1.394-.27 1.982-.18.587-.45 1.09-.806 1.504-.36.412-.805.73-1.34.952-.534.22-1.155.33-1.865.33-.323 0-.64-.02-.953-.056-.31-.04-.64-.1-.98-.186l.123-1.442c.013-.13.06-.238.15-.32.086-.08.213-.12.38-.12.104 0 .236.02.403.062.162.043.37.063.623.063.34 0 .644-.05.91-.15.263-.1.483-.256.66-.473.18-.216.31-.496.4-.843.093-.346.136-.766.136-1.26v-8.45h2.427v8.395m5.18-.283h4.154l-1.585-4.333c-.073-.19-.153-.42-.24-.68-.087-.26-.173-.545-.257-.85-.083.305-.166.59-.247.854-.08.263-.16.494-.24.69l-1.587 4.316zm8.434 4.92h-1.874c-.21 0-.384-.053-.52-.16-.135-.106-.233-.24-.293-.393l-.97-2.66h-5.393l-.974 2.657c-.043.137-.14.263-.28.378-.14.115-.31.173-.514.173h-1.886l5.12-13.028h2.477l5.12 13.026m-1.46-13.028h1.954c.21 0 .38.05.516.152.13.1.23.233.294.395l3.063 7.946c.102.26.2.54.292.85.092.31.18.64.263.98.14-.69.31-1.3.515-1.826l3.052-7.945c.055-.14.15-.265.288-.38.14-.11.31-.17.514-.17h1.956l-5.26 13.03H657l-5.26-13.03m15.567 8.11h4.155l-1.584-4.335c-.074-.19-.15-.42-.24-.68-.087-.26-.17-.543-.257-.85-.086.307-.17.59-.25.856-.08.266-.16.497-.24.695l-1.584 4.315zm8.435 4.92h-1.873c-.21 0-.386-.055-.52-.16-.136-.105-.23-.236-.29-.39l-.977-2.66h-5.393l-.972 2.66c-.05.135-.143.26-.284.376-.14.115-.312.173-.52.173h-1.88l5.118-13.03h2.48l5.12 13.03m11.8-10.66c-.065.133-.14.225-.23.28-.086.053-.19.08-.31.08s-.255-.047-.405-.14c-.15-.09-.327-.196-.53-.31-.206-.115-.445-.22-.717-.31-.277-.094-.6-.14-.97-.14-.338 0-.63.04-.88.12-.25.083-.46.194-.63.34-.17.143-.3.315-.38.516-.088.202-.13.423-.13.663 0 .305.085.56.257.764.17.206.397.38.68.524.28.144.603.273.963.387.362.116.728.237 1.104.366.375.13.744.28 1.104.45.36.173.68.39.964.65.28.26.507.58.68.96.17.378.256.837.256 1.378 0 .59-.1 1.14-.3 1.652-.205.512-.498.96-.886 1.34-.387.38-.86.68-1.42.9-.557.216-1.196.326-1.92.326-.412 0-.82-.04-1.222-.123-.403-.08-.79-.195-1.16-.345-.368-.15-.713-.33-1.035-.54-.322-.215-.61-.448-.86-.706l.7-1.16.24-.214c.095-.054.198-.083.313-.083.15 0 .31.06.483.185.177.125.38.26.62.41.237.15.516.288.837.41.32.125.707.186 1.157.186.69 0 1.226-.164 1.604-.49.38-.33.567-.8.567-1.41 0-.343-.084-.623-.255-.84-.17-.214-.4-.396-.68-.544-.285-.144-.606-.27-.966-.372-.36-.1-.727-.21-1.1-.332-.37-.12-.74-.264-1.1-.432-.36-.17-.682-.39-.963-.66-.284-.27-.51-.61-.68-1.014-.173-.405-.26-.906-.26-1.5 0-.475.096-.936.285-1.387.19-.45.465-.85.83-1.2.362-.35.81-.63 1.336-.84.53-.21 1.134-.317 1.814-.317.767 0 1.476.12 2.125.36.644.24 1.2.58 1.653 1.01l-.597 1.145m11.64 7.58c.132 0 .247.053.344.156l.952 1.036c-.53.657-1.18 1.158-1.95 1.507-.775.346-1.7.52-2.78.52-.97 0-1.84-.164-2.61-.495-.77-.33-1.43-.79-1.977-1.378-.548-.59-.967-1.293-1.257-2.11-.29-.816-.438-1.71-.438-2.675 0-.98.16-1.876.483-2.69.323-.814.78-1.516 1.37-2.104.59-.59 1.29-1.046 2.11-1.373.82-.33 1.726-.493 2.72-.493.964 0 1.81.155 2.532.465.724.31 1.344.72 1.86 1.23l-.81 1.12-.185.19c-.075.056-.18.08-.31.08-.14 0-.28-.053-.424-.16-.142-.11-.325-.225-.55-.35-.22-.13-.5-.244-.84-.353-.34-.106-.77-.16-1.293-.16-.613 0-1.176.106-1.69.32-.513.213-.955.52-1.325.913-.37.396-.658.878-.864 1.446-.21.567-.315 1.206-.315 1.915 0 .73.102 1.384.31 1.955.204.57.485 1.05.84 1.44.354.39.77.69 1.253.896.48.21.996.31 1.55.31.33 0 .63-.014.895-.05.262-.037.51-.095.733-.17.226-.08.44-.18.64-.305.2-.12.403-.273.6-.454l.19-.13.216-.05m5.63-3.76h1.516c.457 0 .855-.057 1.195-.17.34-.115.62-.273.836-.474.22-.2.384-.44.49-.714.11-.278.163-.58.163-.91 0-.66-.22-1.17-.656-1.524-.435-.35-1.1-.53-1.994-.53h-1.55v4.327zm0 1.738v5.093h-2.42v-13.03h3.97c.89 0 1.65.09 2.287.275.633.184 1.153.44 1.558.77.41.33.706.726.895 1.185.19.46.282.962.282 1.52 0 .433-.067.85-.195 1.24-.13.39-.318.743-.56 1.06-.244.32-.544.597-.9.837-.36.24-.767.43-1.22.575.303.175.57.423.79.748l3.26 4.814h-2.18c-.21 0-.39-.044-.54-.128-.146-.083-.27-.205-.372-.36l-2.74-4.172c-.103-.152-.215-.263-.34-.33-.122-.064-.304-.098-.544-.098h-1.037m9.595 5.09h2.433v-13.02h-2.437v13.02zm7.864-6.477h1.82c.447 0 .834-.06 1.164-.17.33-.114.604-.27.822-.48.215-.207.376-.46.484-.756.11-.298.16-.63.16-.995 0-.35-.05-.665-.16-.947-.11-.287-.27-.526-.484-.725-.218-.194-.492-.345-.822-.45-.33-.106-.714-.16-1.16-.16h-1.82v4.676zm0 1.89v4.583h-2.42v-13.03h4.243c.87 0 1.628.102 2.26.305.64.207 1.166.49 1.58.857.414.37.72.808.92 1.318.2.51.3 1.07.3 1.677 0 .63-.107 1.21-.317 1.735-.21.524-.525.975-.945 1.354-.42.374-.947.67-1.58.88-.63.21-1.37.316-2.213.316h-1.82m17.935-8.44v1.99h-3.917v11.04h-2.425v-11.04h-3.94v-1.99h10.28"/><path fill="#dce4e7" d="M524.26 76.68l7.135-3.72v1.586c0 .12-.03.23-.09.328-.06.1-.16.185-.296.257l-3.28 1.68c-.14.08-.287.14-.44.19-.154.05-.317.1-.49.14.173.04.336.09.49.14.153.05.3.11.436.187L531 79.15c.135.07.234.156.294.256s.09.21.09.33v1.585l-7.136-3.73v-.9m11.164 6.55c-.054.14-.124.26-.208.36l-.29.26c-.11.07-.22.123-.34.16-.12.034-.24.053-.35.053h-.94l5.26-13.46c.104-.254.25-.447.443-.58.19-.137.42-.205.69-.205h.95l-5.21 13.41m14.772-3.1c.13 0 .243.054.34.157l.954 1.038c-.53.658-1.18 1.16-1.95 1.508-.774.35-1.7.524-2.78.524-.968 0-1.838-.166-2.61-.497-.77-.327-1.43-.79-1.976-1.375-.55-.59-.97-1.292-1.26-2.11-.29-.815-.438-1.71-.438-2.674 0-.98.16-1.876.485-2.69.325-.814.78-1.516 1.37-2.104.59-.59 1.293-1.048 2.11-1.375.823-.33 1.728-.494 2.72-.494.966 0 1.81.155 2.535.465.725.31 1.345.72 1.86 1.23l-.81 1.124-.184.19c-.075.055-.18.08-.31.08-.138 0-.28-.054-.424-.16-.142-.11-.325-.226-.55-.35-.22-.13-.5-.245-.84-.354-.34-.107-.77-.16-1.292-.16-.614 0-1.177.105-1.69.32-.514.212-.956.52-1.326.912-.366.393-.656.875-.862 1.443-.207.568-.31 1.207-.31 1.916 0 .73.104 1.384.312 1.955.206.57.487 1.05.842 1.44.354.39.77.69 1.253.897.48.21.995.31 1.547.31.33 0 .63-.015.897-.052.27-.034.515-.092.74-.17.225-.08.44-.18.64-.302s.4-.274.6-.455l.188-.13.216-.05m13.136-3.44c0-.717-.097-1.358-.287-1.926-.19-.566-.46-1.05-.816-1.445-.353-.398-.785-.7-1.292-.91-.505-.21-1.08-.317-1.715-.317-.638 0-1.21.105-1.72.316-.51.21-.946.515-1.304.91-.355.4-.63.88-.82 1.447-.195.568-.29 1.21-.29 1.924 0 .717.094 1.36.286 1.926.193.567.468 1.047.824 1.44.36.393.797.696 1.307.906.51.21 1.083.32 1.72.32s1.21-.106 1.716-.317c.507-.21.94-.51 1.292-.902.356-.394.628-.874.816-1.44.19-.57.288-1.21.288-1.925zm2.485 0c0 .952-.16 1.84-.48 2.652-.32.814-.767 1.518-1.34 2.11-.58.598-1.27 1.06-2.085 1.394-.81.334-1.708.5-2.693.5-.987 0-1.886-.166-2.7-.5-.815-.333-1.51-.797-2.09-1.39-.58-.597-1.03-1.3-1.346-2.113-.32-.813-.48-1.7-.48-2.652 0-.956.16-1.84.48-2.654.32-.814.768-1.517 1.348-2.112s1.274-1.06 2.09-1.39c.813-.33 1.712-.5 2.697-.5.987 0 1.885.17 2.695.506.812.335 1.505.8 2.082 1.39.576.59 1.023 1.29 1.34 2.106.32.815.48 1.7.48 2.655m11.003 0c0-.714-.097-1.355-.29-1.923-.192-.566-.464-1.046-.82-1.44-.353-.393-.784-.695-1.292-.905-.506-.21-1.077-.314-1.715-.314h-2.53v9.17h2.53c.64 0 1.21-.103 1.717-.314.51-.21.94-.516 1.295-.908.356-.393.628-.873.82-1.44.193-.57.29-1.21.29-1.924zm2.477 0c0 .955-.16 1.83-.48 2.63-.32.8-.77 1.488-1.344 2.063-.58.576-1.27 1.023-2.08 1.342-.81.32-1.71.477-2.697.477h-4.97V70.18h4.97c.987 0 1.886.16 2.696.48.81.322 1.503.77 2.08 1.344.576.58 1.025 1.26 1.343 2.06.313.8.473 1.68.473 2.63m10.117-6.51v1.93h-5.77v3.61h4.544v1.865h-4.55v3.683h5.775v1.938h-8.215V70.18h8.215m2.85 11.135V79.73c0-.12.03-.23.09-.328.06-.1.16-.187.295-.258l3.27-1.684c.266-.134.575-.24.93-.325-.174-.04-.34-.088-.49-.14-.154-.05-.3-.11-.44-.184l-3.27-1.67c-.136-.07-.235-.155-.295-.255s-.09-.21-.09-.33v-1.59l7.134 3.72v.9l-7.137 3.73"/><path fill="#ec8558" d="M613.192 203.196c0-.732-.17-1.33-.515-1.794-.34-.46-.89-.693-1.647-.693v-2.58c.757 0 1.306-.23 1.647-.7.344-.465.515-1.06.515-1.79 0-.57-.04-1.13-.117-1.688-.08-.56-.17-1.12-.27-1.685-.103-.565-.193-1.133-.27-1.703-.08-.57-.118-1.15-.118-1.74 0-.913.132-1.744.397-2.495.263-.75.668-1.4 1.216-1.94.546-.54 1.236-.956 2.07-1.25.836-.295 1.817-.44 2.946-.44H620v1.98c0 .156-.03.29-.098.406-.067.114-.15.206-.252.28l-.315.16-.29.054h-.16c-.843 0-1.484.265-1.93.794-.443.528-.665 1.255-.665 2.18 0 .66.035 1.293.107 1.9.074.606.148 1.195.227 1.765.077.57.152 1.132.223 1.685.073.55.11 1.11.11 1.673 0 .457-.063.89-.19 1.3-.126.41-.312.78-.557 1.105-.248.33-.54.622-.884.874-.342.25-.73.436-1.16.56.43.13.818.32 1.16.563.343.25.636.54.884.874.245.34.43.71.557 1.12.127.406.19.833.19 1.276 0 .566-.037 1.126-.11 1.677-.07.554-.146 1.115-.223 1.685-.08.57-.153 1.16-.227 1.766-.072.608-.107 1.24-.107 1.9 0 .914.222 1.635.666 2.164.445.53 1.086.793 1.928.793h.162l.29.054.314.16c.102.07.185.17.252.29.067.12.1.26.1.41v1.964h-.956c-1.13 0-2.11-.15-2.945-.44-.83-.3-1.52-.71-2.07-1.244-.54-.534-.95-1.177-1.21-1.927s-.392-1.583-.392-2.494c0-.59.04-1.17.117-1.74.078-.57.168-1.14.27-1.7.1-.568.19-1.13.27-1.696.078-.565.118-1.13.118-1.694m16.194-3.167h3.694l.918-4.972h-3.674l-.932 4.974zm6.9 3.205l-1.386 7.35h-2.04c-.36 0-.67-.143-.933-.43-.267-.29-.398-.644-.398-1.064l.003-.17.03-.17 1.06-5.514h-3.693l-1.046 5.73c-.11.577-.357.99-.74 1.243-.386.25-.81.38-1.28.38h-1.96l1.37-7.35h-2.077c-.384 0-.677-.096-.882-.28-.202-.19-.303-.498-.303-.93 0-.17.015-.36.05-.578l.236-1.42h3.422l.936-4.977h-3.85l.34-1.855c.085-.46.27-.796.56-1.02.288-.22.755-.33 1.405-.33h2l1.117-5.8c.097-.48.32-.855.668-1.12.348-.266.757-.397 1.226-.397h2.018l-1.37 7.313h3.678l1.385-7.316h1.98c.42 0 .765.12 1.028.36s.396.548.396.918c0 .125-.008.215-.02.275l-1.118 5.766h3.658l-.34 1.855c-.084.455-.273.795-.567 1.016-.295.226-.76.338-1.397.338h-1.8l-.92 4.972h2.554c.387 0 .68.09.877.275.2.187.3.502.3.946 0 .17-.02.36-.055.58l-.217 1.405h-3.91m14.05-.035c0 .562.04 1.13.116 1.69.08.56.17 1.126.27 1.69.103.566.193 1.133.27 1.704.08.57.12 1.15.12 1.74 0 .91-.134 1.74-.398 2.49-.264.75-.67 1.393-1.216 1.93-.548.532-1.238.945-2.073 1.242-.834.29-1.815.44-2.944.44h-.953v-1.966c0-.155.034-.294.1-.414.065-.12.15-.215.25-.286l.316-.164.29-.053h.16c.842 0 1.483-.266 1.93-.793.442-.53.664-1.25.664-2.16 0-.66-.037-1.294-.11-1.9-.072-.607-.15-1.196-.226-1.766-.08-.57-.154-1.13-.225-1.684-.075-.55-.11-1.11-.11-1.675 0-.44.063-.87.19-1.276.124-.41.306-.78.55-1.12.24-.335.53-.627.88-.874.35-.245.74-.435 1.17-.566-.43-.12-.82-.307-1.17-.56-.35-.25-.64-.543-.88-.875-.244-.33-.426-.7-.55-1.108-.127-.407-.19-.84-.19-1.295 0-.565.035-1.123.11-1.675.07-.55.144-1.112.22-1.683.08-.57.154-1.16.227-1.766.07-.61.106-1.24.106-1.9 0-.926-.225-1.653-.67-2.18-.445-.53-1.086-.794-1.93-.794h-.16l-.29-.054-.314-.16c-.104-.072-.188-.164-.254-.28-.063-.113-.1-.25-.1-.404v-1.98h.958c1.13 0 2.11.146 2.944.44.835.295 1.525.71 2.072 1.25.548.54.953 1.19 1.216 1.94.267.75.4 1.58.4 2.494 0 .586-.04 1.165-.12 1.736-.075.57-.165 1.137-.27 1.7-.1.564-.19 1.125-.27 1.684-.075.558-.115 1.12-.115 1.686 0 .73.173 1.326.516 1.79.34.46.89.693 1.645.693v2.574c-.755 0-1.305.23-1.646.69-.345.46-.517 1.06-.517 1.79"/><path fill="#70a5c5" d="M.56 164.414l14.27-7.44v3.17c0 .242-.062.46-.182.658-.12.2-.318.37-.594.514l-6.54 3.35c-.276.145-.567.268-.872.37-.307.1-.634.195-.983.28.34.083.67.176.98.28.3.1.59.223.87.368l6.54 3.368c.27.144.47.315.59.513.12.2.18.417.18.657v3.17L.56 166.216v-1.802m22.32 13.096c-.11.276-.247.516-.414.72-.17.205-.362.376-.578.514-.216.137-.444.242-.683.315-.24.07-.475.1-.704.1h-1.87l10.52-26.91c.21-.51.5-.89.89-1.168.387-.27.85-.405 1.39-.405h1.89L22.88 177.51m14.14-3.838v-3.17c0-.24.06-.458.18-.657.12-.198.318-.37.595-.513l6.54-3.368c.527-.264 1.146-.48 1.855-.65-.35-.083-.676-.177-.983-.28-.306-.1-.597-.223-.872-.368l-6.54-3.35c-.277-.144-.475-.315-.594-.514-.12-.198-.18-.416-.18-.657v-3.17l14.27 7.44v1.8l-14.26 7.457"/><path fill="#fff" d="M779.544 48.285h3.71c.907 0 1.697-.114 2.37-.34.675-.226 1.23-.55 1.672-.974.44-.42.773-.93.993-1.54.22-.61.33-1.28.33-2.03 0-.71-.11-1.35-.33-1.93-.22-.57-.56-1.06-1-1.47-.44-.4-1-.71-1.67-.93-.68-.21-1.47-.32-2.37-.32h-3.71v9.54zm0 3.857v9.352h-4.942V34.927h8.652c1.776 0 3.313.21 4.612.625 1.298.417 2.37 1 3.215 1.747.85.74 1.47 1.64 1.88 2.68.41 1.04.61 2.18.61 3.42 0 1.28-.212 2.46-.64 3.53-.43 1.07-1.073 1.99-1.93 2.76-.86.77-1.93 1.37-3.214 1.8-1.29.43-2.794.64-4.52.64h-3.71m40.27 9.353h-4.98V49.88h-12.46v11.613h-4.98V34.927h4.98v11.43h12.457v-11.43h4.98v26.567m10.47-13.21H834c.91 0 1.7-.113 2.372-.34.67-.225 1.23-.55 1.67-.973.44-.42.77-.93.99-1.54.22-.61.33-1.28.33-2.03 0-.71-.11-1.35-.33-1.93-.22-.57-.55-1.06-.99-1.47-.44-.4-1-.71-1.67-.93-.68-.21-1.47-.32-2.378-.32h-3.71v9.54zm0 3.858v9.352h-4.94V34.927H834c1.777 0 3.314.21 4.613.625 1.298.417 2.37 1 3.216 1.747.84.74 1.47 1.64 1.87 2.68.4 1.04.6 2.18.6 3.42 0 1.28-.216 2.46-.644 3.53-.43 1.07-1.07 1.99-1.93 2.76-.86.77-1.93 1.37-3.22 1.8-1.284.43-2.79.64-4.52.64h-3.71"/><path fill="#70a5c5" d="M883.99 147.394c1.655 7.555 7.335 13.845 12.686 14.103 1.915.07 43.506 2.342 54.914 3.29 5.33.502 11.04-7.105 12.77-17.047 2.022-12.14 4.046-24.28 6.066-36.42 1.73-9.94-2.75-17.428-9.987-16.655-24.18 2.427-48.27 5.414-72.25 8.955-7.18 1.104-11.66 8.182-10 15.734.73 3.52 2.18 10.556 2.18 10.556l-19.83-5.17 21.22 15.835s1.49 3.227 2.23 6.82"/><path fill="#fff" d="M910.2 135.167v4.778c0 5.756-2.88 9.044-8.428 9.044-5.55 0-8.426-3.29-8.426-9.05v-18.7c0-5.76 2.876-9.04 8.426-9.04 5.55 0 8.428 3.28 8.428 9.04v3.49h-5.344v-3.856c0-2.565-1.13-3.54-2.93-3.54-1.8 0-2.93.975-2.93 3.544v19.425c0 2.57 1.13 3.492 2.93 3.492 1.8 0 2.93-.925 2.93-3.495v-5.14h5.344m13.564-6.58h6.885v4.008h-6.89v7.04h-4.01v-7.04h-6.89v-4.01h6.884v-6.935h4.01v6.94m20.346 0h6.887v4.006H944.1v7.04h-4v-7.04h-6.886v-4.01h6.886v-6.936h4.008v6.94"/><path fill="#70a5c5" d="M540.45 148.687c-14.145 0-25.655 11.513-25.655 25.664 0 14.15 11.51 25.66 25.656 25.66 14.16 0 25.67-11.51 25.67-25.66s-11.51-25.66-25.66-25.66zm0 53.823c-15.525 0-28.155-12.633-28.155-28.16 0-15.528 12.63-28.163 28.156-28.163 15.53 0 28.17 12.635 28.17 28.164 0 15.53-12.63 28.16-28.16 28.16zm-14.15 10.575l.97.324c2.035.68 4.117 1.2 6.19 1.55l1.04.173v7.05c0 .74.6 1.34 1.34 1.34l10.38.004c.74 0 1.344-.6 1.344-1.345v-7.217l1-.207c2.127-.43 4.197-1.016 6.152-1.73l.985-.36 3.52 6.08c.37.623 1.2.85 1.84.49l8.98-5.19c.64-.37.86-1.197.49-1.848l-3.62-6.256.78-.68c1.617-1.41 3.118-2.948 4.458-4.56l.674-.813 6.1 3.526c.62.354 1.478.122 1.84-.498l5.18-8.986c.373-.64.15-1.463-.49-1.834l-6.255-3.62.327-.97c.67-1.976 1.2-4.054 1.568-6.173l.18-1.038h7.04c.735 0 1.336-.608 1.337-1.357v-10.37c0-.36-.137-.694-.388-.945-.253-.255-.59-.395-.95-.395h-7.22l-.2-1.004c-.415-2.06-1-4.13-1.742-6.155l-.36-.982 6.086-3.516c.64-.37.86-1.2.49-1.845l-5.184-8.974c-.355-.615-1.212-.855-1.835-.494l-6.27 3.62-.674-.776c-1.41-1.604-2.95-3.1-4.567-4.45l-.81-.67 3.52-6.097c.37-.64.145-1.47-.498-1.84l-8.976-5.19c-.615-.35-1.477-.12-1.83.5l-3.62 6.26-.974-.33c-1.965-.67-4.046-1.198-6.184-1.565l-1.04-.176v-7.05c0-.74-.604-1.346-1.35-1.346H534.7c-.747 0-1.353.603-1.353 1.344v7.223l-1.005.204c-2.09.42-4.157 1.003-6.14 1.733l-.99.36-3.51-6.088c-.366-.625-1.21-.86-1.854-.49l-8.98 5.19c-.308.177-.527.46-.62.805-.093.35-.046.715.135 1.03l3.617 6.27-.77.68c-1.644 1.45-3.142 2.983-4.45 4.56l-.67.815-6.1-3.52c-.615-.358-1.48-.12-1.85.503l-5.183 8.973c-.177.31-.223.67-.13 1.02s.316.64.626.82l6.262 3.618-.328.974c-.68 1.993-1.205 4.073-1.565 6.18l-.178 1.04h-7.04c-.745 0-1.352.604-1.352 1.35v10.37c0 .74.606 1.344 1.352 1.344h7.22l.2 1.005c.417 2.105 1 4.174 1.73 6.15l.362.986-6.09 3.52c-.638.368-.857 1.188-.488 1.83l5.184 8.988c.353.617 1.21.85 1.835.487l6.263-3.61.675.766c1.438 1.63 2.975 3.13 4.57 4.457l.81.674-3.516 6.1c-.18.315-.23.675-.14 1.02.09.346.313.634.623.814l8.99 5.19c.62.36 1.47.127 1.82-.483l3.62-6.257zm19.92 12.952l-10.38-.006c-2.12 0-3.84-1.72-3.84-3.83v-4.95c-1.524-.296-3.048-.68-4.55-1.146l-2.604 4.497c-.675 1.18-1.95 1.916-3.32 1.916-.67 0-1.334-.177-1.917-.514l-8.99-5.186c-.89-.51-1.53-1.34-1.79-2.33-.27-.992-.13-2.03.38-2.92l2.47-4.285c-1.16-1.014-2.29-2.11-3.36-3.28l-4.5 2.6c-.59.335-1.25.514-1.92.514-1.37 0-2.65-.735-3.33-1.92l-5.19-8.99c-1.06-1.84-.426-4.19 1.41-5.244l4.27-2.47c-.5-1.473-.926-2.986-1.27-4.524h-5.18c-2.125 0-3.853-1.724-3.853-3.844v-10.37c0-2.12 1.73-3.85 3.853-3.85h4.94c.304-1.54.69-3.06 1.154-4.545l-4.5-2.6c-.89-.51-1.525-1.34-1.79-2.332-.27-.993-.13-2.03.38-2.92l5.19-8.98c.7-1.19 1.98-1.923 3.35-1.923.664 0 1.325.176 1.906.51l4.286 2.475c1.002-1.15 2.1-2.27 3.272-3.35l-2.6-4.504c-.514-.896-.65-1.936-.38-2.93.266-.99.9-1.813 1.784-2.32l8.983-5.19c.59-.34 1.257-.52 1.93-.52 1.37 0 2.646.737 3.336 1.92l2.467 4.28c1.477-.5 2.988-.93 4.517-1.27v-5.188c0-2.12 1.73-3.84 3.853-3.84h10.37c2.12 0 3.85 1.72 3.85 3.84v4.95c1.555.303 3.08.69 4.55 1.15l2.6-4.49c.68-1.19 1.96-1.925 3.33-1.925.667 0 1.327.177 1.91.51l8.98 5.194c1.836 1.06 2.47 3.415 1.416 5.25l-2.474 4.287c1.17 1.026 2.293 2.12 3.355 3.276l4.5-2.596c.58-.34 1.244-.518 1.916-.518 1.37 0 2.65.736 3.34 1.92l5.19 8.98c1.05 1.844.42 4.2-1.41 5.257l-4.28 2.47c.51 1.492.94 3.01 1.28 4.522h5.186c1.03 0 1.994.4 2.72 1.13.72.728 1.12 1.694 1.112 2.718v10.368c-.007 2.126-1.728 3.854-3.84 3.854h-4.95c-.308 1.543-.693 3.062-1.153 4.537l4.495 2.6c1.832 1.06 2.46 3.413 1.4 5.25l-5.183 8.99c-.69 1.182-1.968 1.92-3.334 1.92-.668 0-1.33-.18-1.91-.51l-4.294-2.48c-1.024 1.17-2.12 2.29-3.28 3.353l2.596 4.492c1.06 1.854.427 4.21-1.407 5.26l-8.983 5.19c-.59.334-1.254.51-1.92.51-1.37 0-2.64-.735-3.324-1.922l-2.47-4.27c-1.46.494-2.974.92-4.52 1.27v5.185c0 2.12-1.724 3.844-3.844 3.844"/><path fill="#dce4e7" d="M469.5 218.7c-3.765 0-6.818-3.053-6.818-6.82 0-3.765 3.053-6.818 6.818-6.818 3.764 0 6.82 3.053 6.82 6.82 0 3.765-3.056 6.817-6.82 6.817zm20.22-10.815h-3.345c-.78 0-1.614-.603-1.86-1.34l-.624-1.51c-.34-.695-.18-1.71.37-2.26l2.37-2.366c.55-.55.55-1.45 0-2l-3.66-3.66c-.54-.55-1.44-.55-1.99 0l-2.364 2.36c-.55.55-1.56.718-2.262.37l-1.505-.63c-.735-.24-1.335-1.076-1.335-1.854v-3.347c0-.77-.635-1.41-1.414-1.41h-5.17c-.78 0-1.41.64-1.41 1.41V195c0 .78-.604 1.614-1.34 1.856l-1.51.63c-.7.35-1.716.18-2.26-.37l-2.366-2.365c-.55-.55-1.45-.55-1.996 0l-3.66 3.66c-.55.55-.55 1.45 0 2l2.37 2.366c.543.55.71 1.566.36 2.26l-.62 1.51c-.247.738-1.086 1.34-1.86 1.34h-3.35c-.77 0-1.406.636-1.406 1.41v5.173c0 .773.638 1.41 1.41 1.41h3.35c.775 0 1.614.604 1.86 1.337l.62 1.517c.35.693.184 1.71-.36 2.26l-2.37 2.367c-.55.544-.55 1.446 0 1.993l3.66 3.656c.544.547 1.444.547 1.994 0l2.365-2.366c.543-.55 1.56-.716 2.26-.37l1.51.625c.735.25 1.34 1.08 1.34 1.86v3.343c0 .78.63 1.41 1.41 1.41h5.17c.78 0 1.414-.633 1.414-1.412v-3.342c0-.78.6-1.61 1.334-1.86l1.508-.626c.7-.35 1.714-.18 2.26.37l2.368 2.36c.55.55 1.45.55 1.995 0l3.66-3.66c.55-.544.55-1.45 0-1.99l-2.37-2.366c-.546-.55-.71-1.568-.366-2.26l.626-1.515c.245-.734 1.08-1.34 1.86-1.34h3.345c.775 0 1.41-.635 1.41-1.41v-5.17c0-.776-.635-1.41-1.41-1.41"/><path fill="#70a5c5" d="M593.207 122.49c-2.093 0-3.79-1.698-3.79-3.79 0-2.1 1.697-3.795 3.79-3.795 2.095 0 3.793 1.696 3.793 3.794 0 2.09-1.698 3.79-3.793 3.79zm11.25-6.015h-1.865c-.432 0-.898-.335-1.032-.745l-.346-.84c-.194-.388-.103-.95.2-1.26l1.317-1.313c.31-.303.31-.805 0-1.108l-2.03-2.04c-.31-.31-.8-.31-1.11 0l-1.31 1.31c-.31.3-.87.4-1.26.2l-.84-.347c-.41-.138-.74-.603-.74-1.035v-1.86c0-.43-.352-.786-.79-.786h-2.873c-.432 0-.783.353-.783.782v1.86c0 .43-.336.896-.75 1.033l-.84.35c-.385.192-.95.1-1.254-.208l-1.314-1.316c-.304-.307-.803-.307-1.11 0l-2.037 2.036c-.307.302-.307.804 0 1.107l1.316 1.318c.306.31.396.872.204 1.26l-.34.84c-.14.41-.606.745-1.04.745h-1.86c-.43 0-.782.353-.782.786v2.873c0 .432.356.785.785.785h1.86c.43 0 .9.332 1.04.743l.34.843c.19.384.1.95-.205 1.257l-1.316 1.315c-.305.306-.305.805 0 1.108l2.04 2.036c.305.305.804.305 1.11 0l1.31-1.317c.305-.307.87-.398 1.256-.207l.84.347c.414.14.75.6.75 1.035v1.86c0 .432.35.782.782.782h2.876c.433 0 .788-.35.788-.786v-1.86c0-.434.335-.896.743-1.035l.84-.346c.388-.19.952-.1 1.26.204l1.313 1.316c.305.304.803.304 1.112 0l2.03-2.038c.31-.305.31-.804 0-1.11l-1.316-1.316c-.303-.31-.394-.875-.2-1.26l.346-.84c.135-.41.6-.746 1.033-.746h1.866c.43 0 .784-.354.784-.786v-2.875c0-.434-.356-.786-.784-.786"/><path fill="#ec8558" d="M368.72 166.64c-2.094 0-3.79-1.7-3.79-3.793 0-2.096 1.696-3.793 3.79-3.793 2.095 0 3.792 1.697 3.792 3.793 0 2.094-1.697 3.792-3.792 3.792zm11.25-6.016h-1.865c-.43 0-.898-.335-1.033-.745l-.346-.85c-.194-.39-.102-.95.2-1.26l1.32-1.315c.306-.3.306-.805 0-1.11l-2.035-2.035c-.3-.303-.8-.303-1.11 0l-1.31 1.317c-.3.306-.87.4-1.26.206l-.84-.347c-.4-.137-.74-.6-.74-1.033v-1.86c0-.43-.35-.784-.79-.784h-2.87c-.43 0-.782.353-.782.78v1.86c0 .43-.334.896-.746 1.034l-.84.345c-.385.195-.952.1-1.254-.205l-1.316-1.31c-.306-.305-.805-.305-1.11 0l-2.038 2.037c-.31.304-.31.807 0 1.11l1.316 1.314c.304.31.395.87.2 1.258l-.34.842c-.14.41-.606.743-1.037.743h-1.862c-.43 0-.783.35-.783.784v2.876c0 .43.357.787.785.787h1.862c.43 0 .897.33 1.037.743l.34.84c.195.384.104.95-.2 1.255l-1.317 1.315c-.308.304-.308.802 0 1.107l2.036 2.034c.305.31.804.31 1.11 0l1.313-1.312c.305-.305.87-.397 1.258-.205l.84.348c.414.14.748.6.748 1.036v1.857c0 .437.35.787.782.787h2.875c.433 0 .79-.35.79-.785v-1.858c0-.436.33-.9.74-1.037l.84-.347c.39-.192.95-.1 1.26.205l1.312 1.314c.305.306.804.306 1.11 0l2.035-2.036c.307-.306.307-.804 0-1.11l-1.32-1.32c-.3-.306-.393-.87-.2-1.256l.347-.844c.133-.41.6-.743 1.03-.743h1.866c.427 0 .78-.354.78-.785v-2.874c0-.433-.353-.785-.78-.785m628.148-66.537c-3.57 0-6.48 2.91-6.48 6.488 0 3.57 2.91 6.48 6.48 6.48 3.575 0 6.483-2.904 6.483-6.475 0-3.577-2.91-6.487-6.48-6.487zm0 15.465c-4.95 0-8.98-4.027-8.98-8.977 0-4.955 4.03-8.987 8.98-8.987 4.955 0 8.983 4.032 8.983 8.987 0 4.95-4.03 8.975-8.98 8.975zm-8.702 5.89c.537 0 1.05.114 1.49.333l1.636.668c1.275.43 2.295 1.85 2.295 3.27v3.79c0 .195.157.35.35.35h5.862c.197 0 .36-.155.36-.35v-3.79c0-1.42 1.01-2.834 2.354-3.294l1.645-.68c.364-.18.88-.295 1.41-.295.954 0 1.894.37 2.516.985l2.683 2.688c.172.175.318.178.502-.002l4.14-4.15.105-.242-.1-.245-2.69-2.684c-1.01-1.017-1.28-2.736-.647-4.004l.667-1.635c.415-1.27 1.832-2.294 3.264-2.294h3.803c.18 0 .34-.16.34-.35V97.63c0-.185-.16-.35-.34-.35h-3.802c-1.432 0-2.85-1.02-3.295-2.376l-.673-1.63c-.596-1.187-.32-2.906.672-3.916l2.693-2.69.1-.244-.1-.24-4.15-4.16c-.2-.19-.35-.15-.5 0l-2.676 2.68c-.98.974-2.786 1.27-4.014.656l-1.633-.672c-1.27-.423-2.282-1.84-2.282-3.262V77.63c0-.187-.165-.345-.36-.345h-5.862c-.188 0-.348.158-.348.345v3.797c0 1.427-1.022 2.844-2.38 3.295l-1.627.677c-.36.18-.874.3-1.41.3-.96 0-1.9-.378-2.52-1l-2.67-2.677c-.152-.155-.296-.196-.5.003l-4.15 4.15-.102.247.1.237 2.69 2.687c1.004 1.015 1.28 2.735.65 4.005l-.66 1.63c-.43 1.28-1.85 2.295-3.27 2.295h-3.79c-.19 0-.35.163-.35.35v5.866c0 .19.16.35.345.35h3.793c1.423 0 2.842 1.02 3.3 2.37l.67 1.647c.594 1.186.32 2.906-.687 3.915l-2.683 2.687-.106.25.1.235 4.16 4.16c.19.19.34.15.5 0l2.67-2.68c.616-.62 1.555-.99 2.51-.99zm11.63 10.91h-5.86c-1.57 0-2.85-1.28-2.85-2.85v-3.79c0-.347-.34-.815-.67-.93l-1.79-.733c-.524-.25-.975-.086-1.197.14l-2.68 2.69c-1.08 1.07-2.95 1.07-4.03.003l-4.156-4.16c-.54-.527-.838-1.244-.84-2.01 0-.764.298-1.48.84-2.02l2.68-2.68c.238-.24.33-.816.18-1.12l-.74-1.805c-.136-.4-.605-.737-.955-.737h-3.79c-1.57 0-2.848-1.28-2.848-2.85v-5.86c0-1.57 1.278-2.85 2.848-2.85h3.795c.35 0 .82-.338.93-.67l.725-1.785c.19-.396.1-.964-.146-1.212l-2.68-2.675c-.535-.527-.835-1.243-.835-2.01 0-.77.3-1.487.843-2.024l4.144-4.143c1.087-1.08 2.96-1.08 4.036 0l2.676 2.68c.23.23.83.32 1.114.182l1.794-.748c.416-.143.752-.608.752-.954v-3.78c0-1.57 1.28-2.846 2.848-2.846h5.863c1.577 0 2.86 1.274 2.86 2.843v3.79c0 .34.338.816.66.924l1.793.74c.526.252.97.082 1.21-.154l2.673-2.674c1.07-1.076 2.95-1.08 4.03-.005l4.15 4.155c.54.533.838 1.25.837 2.02 0 .765-.3 1.482-.846 2.016l-2.68 2.675c-.236.24-.326.81-.17 1.122l.742 1.792c.137.405.61.743.95.743h3.806c1.566 0 2.84 1.28 2.84 2.85v5.865c0 1.574-1.274 2.85-2.84 2.85h-3.804c-.34 0-.812.34-.92.66l-.734 1.804c-.19.384-.1.962.14 1.205l2.68 2.678c.54.534.84 1.252.84 2.017 0 .765-.3 1.48-.843 2.015l-4.137 4.147c-1.092 1.076-2.962 1.07-4.034 0l-2.68-2.686c-.23-.227-.84-.325-1.13-.18l-1.79.74c-.404.14-.74.61-.74.955v3.79c0 1.57-1.28 2.85-2.86 2.85"/><path fill="#dce4e7" d="M713.576 48.736c0-9.63-7.817-17.452-17.46-17.452-2.066 0-4.05.38-5.885 1.05-2.12-9-10.18-15.718-19.83-15.718-11.1 0-20.14 8.91-20.36 19.974-.98-.204-2-.314-3.04-.314-8.26 0-14.96 6.693-14.96 14.96 0 6.764 4.495 12.47 10.65 14.323 1.237.4 2.553.63 3.94.63H697c1.53 0 3.013-.3 4.374-.81 7.07-2.225 12.207-8.84 12.207-16.656"/><path fill="#70a5c5" d="M724.865 38.025c0-6.89-5.593-12.485-12.49-12.485-1.48 0-2.9.27-4.21.75-1.52-6.438-7.286-11.243-14.185-11.243-7.95 0-14.413 6.374-14.57 14.288-.705-.145-1.433-.224-2.18-.224-5.906 0-10.7 4.79-10.7 10.71 0 4.84 3.215 8.92 7.615 10.25.886.29 1.83.456 2.82.456H713c1.097 0 2.157-.213 3.13-.58 5.057-1.586 8.733-6.32 8.733-11.91m-243.71 114.78c-1.66 7.804-7.626 14.233-13.314 14.438-2.04.05-4.07.107-6.1.17-.61 5.547-1.23 11.09-1.84 16.637-4.25-5.055-8.92-10.39-14.01-15.99-12.157.606-24.307 1.468-36.444 2.583-5.676.582-11.657-7.207-13.373-17.478-2.01-12.547-4.015-25.09-6.02-37.63-1.715-10.27 3.033-18.1 10.605-17.386 25.293 2.236 50.534 5.32 75.7 9.25 7.53 1.226 12.275 8.63 10.615 16.43l-5.834 28.974"/><path fill="#fff" d="M426.03 140.85v4.78c0 5.754-2.878 9.042-8.426 9.042-5.55 0-8.427-3.288-8.427-9.043v-18.71c0-5.76 2.877-9.05 8.427-9.05 5.548 0 8.427 3.29 8.427 9.043v3.493h-5.34v-3.855c0-2.57-1.13-3.545-2.93-3.545-1.8 0-2.93.975-2.93 3.544v19.423c0 2.57 1.13 3.492 2.93 3.492 1.8 0 2.93-.926 2.93-3.496v-5.14h5.35m11.048-22.965c5.498 0 8.324 3.29 8.324 9.045v1.13h-5.342v-1.49c0-2.57-1.025-3.544-2.824-3.544-1.795 0-2.824.973-2.824 3.542 0 7.4 11.046 8.787 11.046 19.064 0 5.754-2.876 9.04-8.425 9.04-5.55 0-8.424-3.286-8.424-9.04v-2.21h5.34v2.57c0 2.57 1.13 3.49 2.93 3.49 1.798 0 2.93-.922 2.93-3.492 0-7.4-11.05-8.79-11.05-19.066 0-5.755 2.828-9.044 8.325-9.044m19.216.003c5.5 0 8.324 3.29 8.324 9.04v1.13h-5.342v-1.49c0-2.57-1.027-3.544-2.826-3.544-1.796 0-2.825.975-2.825 3.544 0 7.4 11.05 8.785 11.05 19.062 0 5.752-2.877 9.04-8.427 9.04s-8.428-3.288-8.428-9.043v-2.21h5.343v2.57c0 2.57 1.13 3.494 2.927 3.494 1.8 0 2.93-.923 2.93-3.493 0-7.4-11.05-8.787-11.05-19.064 0-5.753 2.825-9.042 8.323-9.042"/><path fill="#70a5c5" d="M253.19 129.282h27.8v-2.5h-27.8v2.5zm13.51 5.088h38.67v-2.5H266.7v2.5zm0 5.09h34.847v-2.5H266.7v2.5zm0 5.09h27.8v-2.5h-27.8v2.5zm-13.51 42.29h27.8v-2.5h-27.8v2.5zm13.51 5.09h70.975v-2.5H266.7v2.5zm0 5.09h62.838v-2.5h-62.84v2.5zm7.047 5.09h27.8v-2.5h-27.8v2.5zm-20.557-42.875h27.8v-2.5h-27.8v2.5zm13.51 5.09h60.63v-2.5H266.7v2.5zm0 5.09h56.806v-2.5H266.7v2.5zm0 5.09h27.8v-2.5h-27.8v2.5zM100.91 180.7l16.587-12.298v6.46H156.2v11.675h-38.703v6.453L100.91 180.7"/><path fill="#ec8558" d="M156.196 150.985l-16.59 12.3v-6.463H100.91v-11.675h38.696v-6.453l16.59 12.29"/><path fill="#70a5c5" d="M331.78 129.31h12.35v-18.74h-12.35v18.74zm14.85 2.5h-17.35v-23.74h17.35v23.74"/><path fill="#70a5c5" d="M336.752 130.215h2.5v-20.55h-2.5v20.55z"/><path fill="#70a5c5" d="M330.53 117.51h14.944v-2.5H330.53v2.5zm0 7.112h14.944v-2.5H330.53v2.5zm-8.174-3.88h4.636v-2.5h-4.636v2.5zm-6.692-16.11h2.5v-2.72h-2.5v2.72zm15.522 0h2.5v-2.72h-2.5v2.72z"/><path fill="#70a5c5" d="M323.425 119.045h2.5V102.72h-2.5v16.325z"/><path fill="#70a5c5" d="M316.914 103.16h15.522v-2.5h-15.522v2.5z"/><path fill="#dce4e7" d="M178.62 156.014l22.25 24.82 22.245-24.82H178.62zm22.25 28.565l-27.846-31.07h55.69l-27.844 31.07"/><path fill="#dce4e7" d="M191.665 156.014l9.204 23.29 9.2-23.29h-18.41zm9.204 30.093l-12.88-32.593h25.76l-12.88 32.593"/><path fill="#dce4e7" d="M178.374 153.576h44.988l-4.952-6.384h-35.085l-4.95 6.384zm50.09 2.5H173.27l8.83-11.384h37.537l8.83 11.384"/><path fill="#dce4e7" d="M193.347 153.576h15.044l-7.52-6.11-7.52 6.11zm22.085 2.5h-29.126l14.563-11.83 14.56 11.83"/><path fill="#dce4e7" d="M178.374 153.576h8.785l-4.43-5.617-4.36 5.61zm13.94 2.5H173.27l8.83-11.384h1.22l.394.477 8.6 10.9m22.266-2.5h8.782l-4.356-5.62-4.427 5.615zm13.885 2.5h-19.04l8.975-11.388h1.22l.39.484 8.455 10.9"/><path fill="#70a5c5" d="M1075.502 169.282c-10.23-3.942-21.395-5.266-32.28-3.83l-.327-2.477c11.3-1.49 22.886-.118 33.506 3.974l-.89 2.33m-54.45 3.25l-1.17-2.21c2.47-1.31 5.048-2.48 7.67-3.48l.89 2.34c-2.525.96-5.01 2.085-7.383 3.345"/><path fill="#70a5c5" d="M1062.7 189.8l-2.5-.01c.07-21.82-10.64-42.205-28.645-54.53l1.41-2.06c18.692 12.79 29.81 33.95 29.735 56.6m-5.798-46.034c-6.316-4.26-11.838-9.504-16.413-15.594l1.99-1.5c4.41 5.865 9.723 10.92 15.81 15.022l-1.4 2.072m27.97 10.906c-5.082-.77-10.09-2.12-14.88-4.012l.917-2.324c4.615 1.82 9.44 3.123 14.34 3.866l-.38 2.47"/><path fill="#70a5c5" d="M1063.917 140.227c-3.283 0-5.956 2.672-5.956 5.955 0 3.284 2.68 5.957 5.96 5.957 3.29 0 5.96-2.68 5.96-5.96 0-3.29-2.67-5.96-5.952-5.96zm0 14.412c-4.663 0-8.456-3.8-8.456-8.46 0-4.66 3.8-8.46 8.46-8.46s8.46 3.79 8.46 8.45c0 4.665-3.79 8.458-8.452 8.458m18.53 11.07c-3.283 0-5.956 2.672-5.956 5.957 0 3.284 2.673 5.956 5.957 5.956s5.955-2.67 5.955-5.952-2.672-5.956-5.957-5.956zm0 14.413c-4.663 0-8.456-3.79-8.456-8.452 0-4.66 3.793-8.456 8.457-8.456 4.66 0 8.455 3.793 8.455 8.456 0 4.664-3.795 8.456-8.457 8.456"/><path fill="#70a5c5" d="M1051.85 194.442c-19.21 0-34.838-15.628-34.838-34.84 0-19.21 15.63-34.838 34.838-34.838 19.214 0 34.844 15.627 34.844 34.838 0 1.714-.158 3.524-.48 5.537l-2.468-.4c.3-1.88.448-3.57.448-5.14 0-17.83-14.51-32.34-32.344-32.34-17.83 0-32.338 14.5-32.338 32.34s14.508 32.34 32.338 32.34c10.782 0 20.82-5.35 26.85-14.31l2.074 1.394c-6.495 9.65-17.31 15.41-28.924 15.41"/><path fill="#70a5c5" d="M1035.732 160.69c-3.283 0-5.956 2.67-5.956 5.955s2.673 5.957 5.956 5.957c3.285 0 5.957-2.672 5.957-5.957 0-3.284-2.68-5.955-5.96-5.955zm0 14.412c-4.663 0-8.456-3.793-8.456-8.457 0-4.663 3.793-8.455 8.456-8.455 4.663 0 8.457 3.792 8.457 8.455 0 4.664-3.8 8.457-8.46 8.457M362.1 232.084c-1.294 0-2.344 1.05-2.344 2.343s1.05 2.344 2.345 2.344c1.3 0 2.35-1.05 2.35-2.34s-1.053-2.34-2.345-2.34zm0 7.187c-2.67 0-4.844-2.17-4.844-4.84s2.174-4.84 4.845-4.84c2.67 0 4.85 2.17 4.85 4.848 0 2.67-2.175 4.844-4.845 4.844M382 221.41c-1.295 0-2.345 1.05-2.345 2.343 0 1.298 1.05 2.35 2.344 2.35 1.29 0 2.34-1.05 2.34-2.345 0-1.29-1.05-2.343-2.347-2.343zm0 7.187c-2.67 0-4.845-2.173-4.845-4.844 0-2.67 2.173-4.84 4.844-4.84 2.67 0 4.84 2.174 4.84 4.845 0 2.672-2.177 4.845-4.847 4.845m0 14.162c-1.295 0-2.345 1.053-2.345 2.346 0 1.3 1.05 2.35 2.344 2.35 1.29 0 2.343-1.053 2.343-2.345 0-1.293-1.053-2.344-2.345-2.344zm0 7.19c-2.67 0-4.845-2.173-4.845-4.844 0-2.67 2.173-4.84 4.844-4.84 2.67 0 4.843 2.178 4.843 4.85 0 2.67-2.175 4.843-4.845 4.843"/><path fill="#70a5c5" d="M377.676 244.29l-12.76-7.368 1.25-2.165 12.76 7.367-1.25 2.166m-11.51-10.193l-1.25-2.165 12.76-7.367 1.25 2.166-12.76 7.37"/><path fill="#dce4e7" d="M1054.4 102.12l-1.77-1.77 10.915-10.91 1.767 1.767-10.913 10.912"/><path fill="#dce4e7" d="M1064.29 97.532c-.2 0-.405-.008-.61-.027l.226-2.49c1.245.116 2.453-.324 3.324-1.193l3.104-3.107c1.64-1.64 1.64-4.308.002-5.95l-.35-.35c-1.64-1.638-4.307-1.64-5.946 0l-3.108 3.106c-.87.88-1.307 2.09-1.196 3.33l-2.49.23c-.18-1.98.52-3.917 1.92-5.315l3.106-3.107c2.61-2.61 6.864-2.612 9.48 0l.353.353c2.612 2.615 2.61 6.87-.003 9.48l-3.105 3.11c-1.255 1.25-2.942 1.94-4.706 1.94m-13 12.99c-1.72 0-3.43-.65-4.74-1.956l-.352-.36c-1.262-1.26-1.96-2.945-1.96-4.736 0-1.79.698-3.474 1.965-4.74l3.105-3.108c1.394-1.398 3.324-2.095 5.313-1.92l-.22 2.49c-1.232-.114-2.454.322-3.325 1.194l-3.103 3.106c-.796.796-1.233 1.85-1.233 2.974 0 1.12.436 2.178 1.23 2.97l.353.36c1.64 1.63 4.305 1.63 5.944-.005l3.11-3.11c.87-.87 1.303-2.08 1.19-3.32l2.49-.227c.176 1.98-.52 3.915-1.914 5.31l-3.114 3.11c-1.306 1.31-3.023 1.96-4.74 1.96"/></g></svg>