<svg xmlns="http://www.w3.org/2000/svg" version="1" width="400" height="277.333" viewBox="0 0 300.000000 208.000000"><path d="M200.6 2.5c-3.8 1.8-6 2.3-9.1 1.9-4-.6-4.1-.5-13.1 8.8-12 12.4-20.4 25.1-26.9 40.7-2.9 6.9-5.5 13.4-5.8 14.3-.5 1.5-1.9.8-8.4-4.1-10.1-7.6-23.9-15.5-40.3-23-7.2-3.4-13.3-6.1-13.6-6.1-.4 0-7.6-2.7-16.1-6.1-15-6-15.4-6.1-18-4.4-2.4 1.6-2.5 2.1-2 7.1.8 7.9 4.9 16 11.5 22.6 5.4 5.5 5.5 5.8 3 5.8-1.5 0-3.9 1.1-5.5 2.4l-2.7 2.4 1.7 5.5c2.2 7 8 14.5 14.6 18.8 4.8 3 6.3 4.9 4.1 4.9-.5 0-2.6 1.4-4.5 3.2-4.7 4-4.2 6.4 2.8 13.6 5.7 5.9 10.1 8.5 17.1 10.3 4.9 1.2 5.5 1.9 3.2 3.8-2.2 1.8-2.8 7.6-1.3 11.3 1.8 4.1 5.1 7.3 10 9.3l3.9 1.6-4.3 3.1c-5.4 3.9-18.9 10.2-24.9 11.6-20.1 4.8-36.1 1.3-62.6-13.9-3.6-2-4.4-2.1-5.8-1-2.9 2.4-1.8 5.5 4.6 12.7 18.7 21 42.6 36 66.8 41.7 5.8 1.4 13.9 3.4 18 4.4 5.9 1.4 11.6 1.8 26.1 1.8 12.2 0 19.1-.4 20-1.1.8-.6 3.9-1.4 6.9-1.8 35.8-4.4 71.5-23.7 93.4-50.5 3.1-3.8 5.6-7 5.6-7.3 0-.2 2-4 4.5-8.3 2.5-4.4 5.9-11.8 7.6-16.5l3-8.6 7.3-1.1c9.9-1.6 14.5-3.4 20.5-7.7 4.1-3.1 5.1-4.3 5.1-6.7 0-3.6-2.7-4.9-10.3-4.9h-5.1l5.2-2.6c5.7-2.8 10.2-7.8 10.2-11.2 0-3-3.6-5.3-6.6-4.2-3.6 1.4-16.4 2.1-21.9 1.3l-5-.8-2.6-8.1c-4-12.4-8.5-20-16.9-28.5-7.7-7.8-16.8-13.6-24.8-16l-4.3-1.2 4.8-2.6c2.6-1.4 5.4-3.9 6.3-5.4 1.4-2.7 1.4-2.9-1.3-5.3-2.1-1.8-4-2.4-7.3-2.4-3.2 0-4.4-.4-4.4-1.4 0-1.7-3.8-4.6-6-4.6-.8 0-3.7 1.2-6.4 2.5zm8.4 2.9c0 .8-1.4 2.6-3.1 4.1-1.7 1.4-3 2.7-2.8 2.9.2.2 3.3-.2 6.9-1 8.6-1.8 12-1.8 12 .1 0 2.2-7.1 6.3-14.5 8.3-3.6 1-6.7 2.2-6.8 2.7-.1.6 2.1 1.3 4.8 1.6 14 1.8 25.1 7.3 35.5 17.8 8.8 8.9 12.5 15.2 16 27.5 2.3 8.1 2.9 9.1 5.5 9.9 4.3 1.3 24.5 1.2 27.8-.1 6.2-2.6.9 4.7-6 8.2-1.8.9-6.9 2.5-11.4 3.6-4.5 1-8.4 2.1-8.7 2.4-1.3 1.4 6.5 2.9 17.1 3.4 6.4.2 11.7.8 11.7 1.2 0 1.4-9 6.8-14.1 8.5-2.7.9-7.9 2-11.5 2.3l-6.5.7-2.4 7c-11.8 35.1-36.7 59.9-75.9 75.5-10.6 4.2-24.9 7.7-36.8 9-5.7.6-11.1 1.6-12 2.1-2.4 1.2-22.5 1.2-23.3-.1-.3-.6-2.7-1-5.3-1-11.3 0-32.5-5.7-46.7-12.5-17.6-8.5-37.1-23.7-45.6-35.7l-2.3-3.2 4.4 3.1c22.8 15.6 54.2 18.3 77.3 6.7 6.2-3.1 16.3-10.2 19.5-13.7l2.4-2.5-5.2-1.1c-9.6-2.1-14-5.7-14-11.7 0-3.6 3.8-8.9 7-9.9 3.6-1.2 2.1-2.1-5.2-3.3-9.9-1.5-19.3-6.4-23.3-12l-3-4.4 2.9-2.3c3-2.4 8.9-4.5 12.5-4.5 4 0 1.7-2-6.3-5.5-4.5-1.9-9.7-5.1-11.9-7.2-4.1-4-8.7-12-8.7-15.2 0-2.3 1.2-2.8 8.9-3.7 3.4-.3 6.1-.9 6.1-1.3 0-.3-2.3-2.1-5-4-5.2-3.5-13.1-13.1-15.5-18.6-2.1-5.3-2.9-11.5-1.3-11.5.7 0 6 1.8 11.8 4.1 39.6 15.3 63.3 27.9 77.7 41.2 3.9 3.5 6.3 4.2 6.3 1.6 0-2.1 9.2-24.5 12.7-30.9 6.6-12.1 20.2-29.7 26.5-34.1l3-2.2-.7 3.2c-.7 3.2.4 4.1 2.3 1.8.6-.7 3.9-2.6 7.4-4.2 3.5-1.7 6.5-3.3 6.6-3.8.6-1.3 3.2-.7 3.2.7z" fill="#fff"/></svg>