<svg xmlns="http://www.w3.org/2000/svg" viewBox="0 0 1091.2714 273.14099" height="273.141" width="1091.271"><path d="M0 273.14h1091.27V0H0v273.14z" fill="#596273"/><g opacity=".5"><path fill="#333" d="M962 215.597V44.834c0-3.887-3.148-7.037-7.03-7.037H686.736c-3.89 0-7.028 3.15-7.028 7.037v170.763H962"/><path fill="#545454" d="M680.077 215.23H961.63V44.833c0-3.677-2.988-6.668-6.66-6.668H686.736c-3.672 0-6.66 2.99-6.66 6.668V215.23zm281.923.735H679.71c-.205 0-.37-.164-.37-.368V44.834c0-4.083 3.32-7.404 7.397-7.404H954.97c4.077 0 7.397 3.32 7.397 7.404v170.763c0 .204-.163.368-.367.368"/><path fill="#fff" d="M867.787 265.784H773.92c-2.38 0-4.315 2.27-4.315 5.066v1.902h102.5v-1.902c0-2.795-1.938-5.066-4.318-5.066M679.71 215.597v20.168c0 3.877 3.137 7.02 7.027 7.02H954.97c3.882 0 7.03-3.143 7.03-7.02v-20.168H679.71"/><path fill="#ec8558" d="M691.274 203.935h259.163V48.78H691.274v155.155z"/><path fill="#dce4e7" d="M862.47 265.784c-1.88-7.67-3.75-15.333-5.63-22.998h-71.97c-1.87 7.665-3.748 15.33-5.624 22.998h83.223"/><path fill="#cdd5d8" d="M779.246 265.784h38.16l22.996-22.998h-55.53c-1.873 7.665-3.75 15.33-5.626 22.998"/><path fill="#70a5c5" d="M881.914 45.31c0 7.59 5.01 13.74 11.19 13.74h6.536v15.065l16.98-15.064h67.555c6.18 0 11.19-6.15 11.19-13.74V17.37c0-7.588-5.01-13.74-11.19-13.74h-91.07c-6.18 0-11.19 6.152-11.19 13.74v27.95m-124.05 94.164c0 7.588-6.15 13.74-13.74 13.74h-8.02v15.064l-20.848-15.062H632.32c-7.59 0-13.74-6.15-13.74-13.74v-27.95c0-7.59 6.15-13.74 13.74-13.74h111.806c7.59 0 13.74 6.152 13.74 13.74v27.946m5.31-69.372c1.94 8.637 8.608 15.826 14.905 16.118 2.25.08 4.5.165 6.75.255.72 6.13 1.43 12.264 2.14 18.396 4.65-5.55 9.78-11.41 15.4-17.59 13.45.7 26.89 1.6 40.31 2.7 6.27.58 12.99-8.12 15.01-19.49l7.09-41.65c2.02-11.37-3.24-19.94-11.74-19.06-28.39 2.75-56.69 6.17-84.87 10.23-8.43 1.27-13.69 9.37-11.76 18 2.27 10.68 4.53 21.37 6.79 32.06m23.2 110.04c1.75-7.46 8-13.96 13.99-14.44 2.14-.15 4.28-.3 6.42-.44l1.92-15.83c4.48 4.61 9.41 9.55 14.76 14.82 12.82-.68 25.64-1.18 38.48-1.5 6.01-.21 12.23 7.63 13.9 17.46l5.86 35.97c1.66 9.83-3.34 16.8-11.19 15.66-26.25-3.66-52.61-6.72-79.05-9.15-7.91-.78-12.92-7.4-11.18-14.87l6.11-27.7"/><path fill="#fff" d="M918.554 40.642h-3.833v-8.937h-9.58v8.937h-3.84V20.194h3.84v8.796h9.59v-8.796h3.84v20.448m18.53-20.448v3.125h-6.15v17.32h-3.8V23.32h-6.18v-3.126h16.13M950.22 33.1c.137.322.27.65.405.98.13-.34.27-.673.41-1.004.14-.33.29-.646.45-.947l6.055-11.33c.075-.15.152-.26.232-.34l.27-.19c.1-.04.21-.07.332-.07.122-.01.268-.02.438-.02h2.872v20.45h-3.353v-13.2c0-.25.01-.52.03-.81.02-.3.04-.59.07-.9l-6.18 11.6c-.14.26-.32.47-.55.61-.22.15-.49.22-.79.22h-.52c-.3 0-.56-.07-.79-.22-.22-.15-.41-.35-.55-.62l-6.26-11.64c.04.31.07.62.08.91.02.29.02.57.02.82v13.21h-3.35V20.19h2.87c.17 0 .32.004.44.014s.23.03.33.07l.28.18c.09.09.17.2.24.34l6.11 11.36c.16.3.31.612.45.94m19.4 4.402h8.19v3.14h-12V20.19h3.81V37.5M812.9 199.6v4.78c0 5.756-2.875 9.04-8.425 9.04s-8.43-3.284-8.43-9.04v-18.7c0-5.755 2.88-9.043 8.426-9.043 5.55 0 8.43 3.288 8.43 9.043v3.494h-5.34v-3.854c0-2.57-1.13-3.545-2.93-3.545-1.8 0-2.93.976-2.93 3.545v19.424c0 2.57 1.13 3.493 2.93 3.493 1.8 0 2.93-.923 2.93-3.493v-5.138h5.35m15.42 2.98l3.86-25.54h7.86v35.97h-5.35V187.22l-3.9 25.796h-5.35l-4.21-25.435v25.44h-4.93v-35.97h7.86l4.16 25.54m23.43-25.95c5.5 0 8.32 3.29 8.32 9.05v1.13h-5.34v-1.49c0-2.57-1.03-3.54-2.83-3.54s-2.82.98-2.82 3.55c0 7.4 11.05 8.79 11.05 19.07 0 5.76-2.88 9.04-8.43 9.04s-8.43-3.28-8.43-9.04v-2.21h5.35v2.57c0 2.57 1.13 3.49 2.93 3.49 1.8 0 2.93-.92 2.93-3.49 0-7.4-11.05-8.78-11.05-19.06 0-5.75 2.83-9.04 8.33-9.04m-212.18-48.08c0 .74-.09 1.4-.27 1.98-.18.59-.45 1.09-.8 1.51-.36.41-.8.73-1.34.95-.53.22-1.15.33-1.86.33-.33 0-.64-.02-.96-.05-.31-.04-.64-.1-.98-.18l.12-1.44c.01-.13.06-.24.15-.32.08-.08.21-.12.38-.12.1 0 .23.02.4.06.16.05.37.07.62.07.34 0 .64-.05.91-.15.26-.1.48-.25.66-.47.18-.21.31-.49.4-.84.09-.34.13-.76.13-1.26v-8.45h2.43v8.4m5.18-.28h4.16l-1.59-4.33c-.07-.19-.15-.42-.24-.68-.09-.26-.17-.54-.26-.85-.08.31-.16.59-.24.86-.08.27-.16.5-.24.69l-1.59 4.32zm8.44 4.92h-1.87c-.21 0-.38-.05-.52-.16-.13-.11-.23-.24-.29-.39l-.97-2.66h-5.39l-.98 2.66c-.04.14-.14.27-.28.38-.14.12-.31.18-.51.18h-1.89l5.12-13.03h2.48l5.12 13.03m-1.46-13.03h1.96c.21 0 .38.05.52.15.13.1.23.24.3.4l3.07 7.95c.1.26.2.54.29.85.09.31.18.64.26.98.14-.69.31-1.3.52-1.82l3.05-7.94c.05-.14.15-.26.29-.38.14-.11.31-.17.51-.17h1.95l-5.26 13.03H657l-5.26-13.03m15.567 8.11h4.155l-1.584-4.34c-.074-.19-.15-.42-.24-.68-.087-.26-.17-.54-.257-.85-.08.31-.17.59-.25.86-.08.27-.16.5-.24.7l-1.58 4.32zm8.435 4.92h-1.873c-.21 0-.39-.05-.52-.16-.14-.1-.23-.23-.29-.39l-.98-2.66h-5.4l-.98 2.66c-.05.14-.15.26-.29.38-.14.11-.31.17-.52.17h-1.88l5.12-13.03h2.48l5.12 13.03m11.8-10.66c-.07.13-.14.23-.23.28-.09.05-.19.08-.31.08s-.26-.05-.41-.14c-.15-.09-.33-.2-.53-.31-.21-.11-.45-.22-.72-.31-.28-.09-.6-.14-.97-.14-.34 0-.63.04-.88.12-.25.08-.46.19-.63.34-.17.14-.3.32-.38.52-.09.2-.13.42-.13.66 0 .31.08.56.25.77.17.2.4.38.68.52.28.15.6.28.96.39.36.12.73.24 1.1.37.37.13.74.28 1.1.45.36.18.68.39.96.65.28.26.51.58.68.96.17.38.25.84.25 1.38 0 .59-.1 1.14-.3 1.65-.21.51-.5.96-.89 1.34-.39.38-.86.68-1.42.9-.56.22-1.2.33-1.92.33-.41 0-.82-.04-1.22-.12-.41-.08-.79-.19-1.16-.34-.37-.15-.72-.33-1.04-.54-.32-.21-.61-.45-.86-.7l.7-1.16.24-.22c.09-.05.2-.08.31-.08.15 0 .31.06.48.19s.38.26.62.41c.23.15.51.28.83.41.32.12.7.18 1.15.18.69 0 1.23-.162 1.6-.49.38-.33.57-.8.57-1.41 0-.34-.09-.62-.26-.84-.17-.212-.4-.4-.68-.542-.29-.14-.61-.27-.97-.37-.36-.1-.73-.21-1.1-.33-.37-.12-.74-.26-1.1-.43-.36-.17-.69-.39-.97-.66-.29-.27-.51-.61-.68-1.01-.18-.4-.26-.9-.26-1.5 0-.47.09-.93.28-1.383.19-.45.47-.85.83-1.2s.81-.63 1.34-.84c.53-.21 1.13-.315 1.81-.315.77 0 1.48.12 2.13.36.64.24 1.2.58 1.65 1.01l-.6 1.14m11.64 7.58c.13 0 .24.055.34.16l.95 1.033c-.53.65-1.18 1.157-1.95 1.5-.78.35-1.7.52-2.78.52-.97 0-1.84-.16-2.61-.49-.77-.33-1.43-.79-1.98-1.37-.55-.59-.97-1.29-1.26-2.11-.29-.81-.44-1.71-.44-2.67 0-.98.16-1.88.48-2.69.33-.82.78-1.52 1.37-2.11.59-.59 1.29-1.04 2.11-1.37.82-.33 1.73-.49 2.72-.49.97 0 1.81.16 2.534.47.72.31 1.34.72 1.86 1.23l-.81 1.12-.19.19c-.08.06-.18.08-.31.08-.14 0-.28-.05-.43-.16-.14-.11-.32-.22-.55-.35-.22-.13-.5-.24-.84-.35-.34-.1-.77-.16-1.29-.16-.61 0-1.175.11-1.69.32-.51.22-.954.52-1.324.92s-.66.88-.862 1.45c-.21.57-.315 1.21-.315 1.917 0 .73.1 1.38.31 1.95.202.57.483 1.05.84 1.44.352.39.77.69 1.25.89.48.21 1 .31 1.55.31.33 0 .63-.014.894-.05.26-.04.51-.095.73-.17.23-.08.44-.18.64-.305.2-.12.405-.27.6-.45l.19-.13.22-.05m5.63-3.76h1.513c.453 0 .85-.056 1.19-.17.34-.11.62-.27.836-.47.22-.2.38-.44.49-.717.11-.28.16-.58.16-.91 0-.66-.22-1.17-.654-1.53-.435-.35-1.1-.53-1.99-.53h-1.55v4.33zm0 1.74v5.09h-2.42v-13.1h3.97c.89 0 1.65.09 2.284.27.637.18 1.157.44 1.56.77.41.33.708.72.897 1.18.19.46.28.962.28 1.52 0 .433-.07.85-.2 1.24s-.32.743-.56 1.06c-.247.32-.547.6-.9.84-.36.24-.77.43-1.22.57.3.173.57.42.79.746l3.26 4.82h-2.18c-.21 0-.39-.04-.54-.12-.15-.09-.27-.21-.375-.36l-2.74-4.17c-.1-.15-.215-.26-.34-.33-.12-.06-.3-.1-.54-.1h-1.04m9.59 5.09h2.43V120.2h-2.43v13.02zm7.86-6.47h1.9c.45 0 .84-.06 1.17-.17.33-.11.6-.27.82-.48.216-.2.377-.46.485-.75.11-.3.16-.63.16-.99 0-.35-.05-.66-.16-.94-.11-.29-.27-.53-.48-.72-.22-.19-.49-.34-.82-.45-.33-.11-.72-.16-1.16-.16h-1.82v4.68zm0 1.89v4.59h-2.42V120.2h4.3c.87 0 1.63.1 2.26.304.64.208 1.17.49 1.58.858.42.37.72.81.92 1.32.2.51.3 1.07.3 1.68 0 .63-.1 1.21-.31 1.736s-.52.977-.94 1.356c-.42.375-.95.67-1.58.88-.63.21-1.37.317-2.216.317h-1.82m17.93-8.44v1.99h-3.92v11.04h-2.43V122.2h-3.94v-1.99h10.28"/><path fill="#dce4e7" d="M524.26 76.68l7.135-3.72v1.586c0 .12-.03.23-.09.328-.06.1-.16.185-.296.257l-3.28 1.68c-.14.08-.29.14-.44.19-.16.05-.32.1-.49.14.17.04.33.09.49.14.15.05.3.11.43.19l3.28 1.68c.13.07.23.16.29.26s.09.21.09.33v1.59l-7.14-3.73v-.9m11.16 6.55c-.06.14-.13.26-.21.36l-.29.26c-.11.07-.22.13-.34.16-.12.04-.24.06-.35.06h-.94l5.26-13.46c.1-.25.25-.44.44-.58.19-.13.42-.2.69-.2h.95l-5.21 13.41m14.77-3.1c.13 0 .24.06.34.16l.95 1.04c-.53.66-1.18 1.16-1.95 1.51-.78.35-1.7.53-2.78.53-.97 0-1.84-.16-2.61-.5-.77-.33-1.43-.79-1.98-1.37-.55-.59-.97-1.29-1.26-2.11-.29-.81-.44-1.71-.44-2.67 0-.98.16-1.88.48-2.69.32-.81.78-1.52 1.37-2.1.59-.59 1.29-1.05 2.11-1.37.82-.33 1.73-.49 2.72-.49.96 0 1.81.16 2.53.47.72.31 1.34.72 1.86 1.23l-.81 1.13-.19.19c-.08.06-.18.08-.31.08-.14 0-.28-.05-.43-.16-.14-.11-.33-.23-.55-.35-.22-.13-.5-.24-.84-.35-.34-.1-.77-.16-1.29-.16-.62 0-1.18.11-1.69.32-.52.21-.96.52-1.33.91-.37.39-.66.88-.86 1.44-.21.57-.31 1.21-.31 1.92 0 .73.1 1.39.31 1.96.2.57.48 1.05.84 1.44.35.39.77.69 1.25.9.48.21.99.31 1.54.31.33 0 .63-.01.89-.05.27-.03.52-.09.74-.17.23-.08.44-.18.64-.3s.4-.27.6-.45l.19-.13.21-.05m13.13-3.44c0-.72-.1-1.36-.29-1.93-.19-.56-.46-1.05-.82-1.44-.36-.4-.79-.7-1.3-.91-.51-.21-1.08-.32-1.72-.32-.64 0-1.21.11-1.72.32-.51.21-.95.52-1.31.91-.35.4-.63.88-.82 1.45-.19.57-.29 1.21-.29 1.93s.1 1.36.29 1.93c.19.56.47 1.04.82 1.44.36.39.8.69 1.31.9.51.21 1.08.32 1.72.32s1.21-.1 1.72-.31.94-.51 1.29-.9c.36-.39.63-.87.82-1.44.19-.57.28-1.21.28-1.92zm2.48 0c0 .95-.16 1.84-.48 2.65-.32.81-.77 1.52-1.34 2.11-.58.6-1.27 1.06-2.09 1.39-.81.33-1.71.5-2.69.5-.99 0-1.89-.17-2.7-.5-.82-.33-1.51-.8-2.09-1.39-.58-.6-1.03-1.3-1.35-2.11-.32-.82-.48-1.7-.48-2.66 0-.96.16-1.84.48-2.65.32-.81.77-1.51 1.35-2.11s1.27-1.06 2.09-1.39c.81-.33 1.71-.5 2.69-.5.99 0 1.89.17 2.7.51.82.34 1.51.8 2.09 1.39.58.59 1.02 1.29 1.34 2.11.32.82.48 1.7.48 2.66m11 0c0-.71-.1-1.35-.29-1.92-.19-.56-.46-1.04-.82-1.44-.35-.39-.78-.69-1.29-.9-.51-.21-1.08-.31-1.72-.31h-2.53v9.17h2.53c.64 0 1.21-.1 1.72-.31s.94-.515 1.29-.91c.35-.39.63-.87.82-1.44.19-.57.29-1.21.29-1.92zm2.48 0c0 .96-.16 1.83-.48 2.63-.32.8-.77 1.49-1.35 2.06-.58.58-1.27 1.03-2.08 1.35-.81.32-1.71.48-2.7.48h-4.97V70.2h4.97c.99 0 1.88.16 2.69.48.81.323 1.5.77 2.08 1.345.57.58 1.02 1.26 1.34 2.06.31.8.47 1.68.47 2.63m10.12-6.51v1.93h-5.77v3.61h4.544v1.86h-4.55v3.68h5.77v1.94h-8.21V70.18h8.22m2.85 11.135V79.73c0-.12.03-.23.09-.328.06-.1.16-.187.295-.258l3.27-1.684c.26-.134.57-.24.93-.325-.18-.04-.34-.088-.49-.14-.16-.05-.3-.11-.44-.184l-3.27-1.67c-.14-.07-.24-.15-.3-.25s-.09-.21-.09-.33v-1.59l7.13 3.72v.9l-7.14 3.73"/><path fill="#ec8558" d="M613.192 203.196c0-.732-.17-1.33-.515-1.794-.34-.46-.89-.693-1.647-.693v-2.58c.757 0 1.306-.23 1.647-.7.344-.47.515-1.06.515-1.79 0-.57-.04-1.13-.117-1.69-.08-.56-.17-1.12-.27-1.69-.103-.57-.193-1.14-.27-1.71-.08-.57-.118-1.15-.118-1.74 0-.92.132-1.75.397-2.5.263-.75.668-1.4 1.216-1.94.546-.54 1.236-.96 2.07-1.25.836-.3 1.817-.44 2.946-.44H620v1.98c0 .15-.03.29-.098.4-.067.11-.15.2-.252.28l-.315.16-.29.05h-.16c-.843 0-1.484.26-1.93.79-.443.53-.665 1.25-.665 2.18 0 .66.035 1.29.107 1.9.074.61.148 1.19.227 1.76.077.57.152 1.13.223 1.68.073.55.11 1.11.11 1.68 0 .45-.063.89-.19 1.3-.126.41-.312.78-.557 1.1-.248.33-.54.62-.884.87-.342.25-.73.44-1.16.56.43.13.818.32 1.16.56.343.25.636.54.884.87.245.34.43.71.557 1.12.127.41.19.83.19 1.28 0 .56-.037 1.12-.11 1.67-.07.55-.146 1.11-.223 1.68-.08.57-.153 1.16-.227 1.77-.072.61-.107 1.24-.107 1.9 0 .91.222 1.63.666 2.16.445.53 1.086.79 1.928.79h.162l.29.05.314.16c.102.07.185.17.252.29.067.12.1.26.1.41v1.96h-.956c-1.13 0-2.11-.15-2.945-.44-.83-.3-1.52-.71-2.07-1.25-.54-.53-.95-1.18-1.21-1.93s-.39-1.59-.39-2.5c0-.59.04-1.17.12-1.74.08-.57.17-1.14.27-1.7.1-.57.19-1.13.27-1.7.08-.57.12-1.13.12-1.7m16.2-3.16h3.7l.92-4.97h-3.67l-.93 4.97zm6.9 3.2l-1.38 7.35h-2.04c-.36 0-.67-.14-.93-.43s-.4-.64-.4-1.06l.01-.17.03-.17 1.06-5.52h-3.69l-1.04 5.73c-.11.58-.36.99-.74 1.24-.39.25-.81.38-1.28.38h-1.96l1.37-7.35h-2.08c-.38 0-.68-.09-.88-.28-.2-.19-.3-.5-.3-.93 0-.17.02-.36.05-.58l.24-1.42h3.42l.94-4.98h-3.85l.34-1.86c.09-.46.27-.8.56-1.02.29-.22.76-.33 1.41-.33h2l1.12-5.8c.1-.48.32-.86.67-1.12.35-.27.76-.4 1.23-.4h2.02l-1.37 7.31h3.68l1.39-7.32h1.98c.42 0 .76.12 1.03.36s.4.55.4.92c0 .123-.01.213-.02.273l-1.12 5.77h3.66l-.34 1.86c-.09.45-.28.79-.57 1.01-.29.23-.76.34-1.4.34h-1.8l-.92 4.97h2.56c.39 0 .68.09.88.27.2.19.3.5.3.95 0 .17-.02.36-.05.58l-.22 1.4h-3.91m14.05-.04c0 .56.04 1.13.12 1.69.08.56.17 1.125.27 1.69s.19 1.13.27 1.7c.08.57.12 1.15.12 1.74 0 .91-.14 1.74-.4 2.49-.26.75-.67 1.39-1.22 1.93-.55.53-1.24.94-2.07 1.24-.84.29-1.82.44-2.95.44h-.95v-1.97c0-.15.04-.29.1-.41.07-.12.15-.21.25-.283l.32-.17.29-.06h.16c.85 0 1.49-.26 1.93-.79.45-.53.67-1.25.67-2.16 0-.66-.04-1.29-.11-1.9-.07-.61-.15-1.19-.23-1.76-.08-.57-.16-1.13-.23-1.684-.08-.55-.11-1.11-.11-1.68 0-.44.06-.87.19-1.27.12-.41.3-.78.55-1.12.24-.34.53-.63.88-.88s.74-.43 1.17-.56c-.43-.12-.82-.31-1.17-.56-.35-.25-.64-.55-.88-.88-.25-.33-.43-.7-.55-1.11-.13-.406-.19-.84-.19-1.294 0-.57.03-1.13.11-1.68.07-.55.14-1.11.22-1.69.08-.57.15-1.16.23-1.77.07-.61.11-1.24.11-1.9 0-.93-.22-1.657-.67-2.18-.44-.53-1.08-.798-1.93-.798h-.16l-.29-.057-.31-.16c-.1-.07-.19-.16-.25-.28-.07-.11-.1-.25-.1-.4v-1.98h.95c1.13 0 2.11.142 2.95.44.83.29 1.52.71 2.07 1.25.55.54.95 1.19 1.22 1.94s.4 1.58.4 2.49c0 .584-.04 1.163-.12 1.734-.07.57-.16 1.14-.27 1.7-.1.57-.19 1.13-.27 1.69-.07.56-.11 1.12-.11 1.69 0 .73.17 1.32.51 1.79.34.46.89.69 1.65.69v2.576c-.75 0-1.3.23-1.65.69-.34.46-.52 1.06-.52 1.79"/><path fill="#70a5c5" d="M.56 164.414l14.27-7.44v3.17c0 .242-.062.46-.182.658-.12.2-.318.37-.594.514l-6.54 3.35c-.276.145-.567.268-.872.37-.307.1-.634.195-.983.28.34.083.67.176.98.28.3.1.59.223.87.368l6.54 3.368c.27.144.47.315.59.513.12.2.18.417.18.657v3.17L.56 166.216v-1.802m22.32 13.096c-.11.276-.247.516-.414.72-.17.205-.362.376-.578.514-.216.137-.444.242-.683.315-.24.07-.475.1-.704.1h-1.87l10.52-26.91c.21-.51.5-.89.89-1.17.39-.27.85-.41 1.39-.41h1.89l-10.44 26.84m14.14-3.84v-3.17c0-.24.06-.46.18-.66s.32-.37.6-.52l6.54-3.37c.53-.27 1.15-.48 1.86-.65-.35-.09-.67-.18-.98-.28-.3-.1-.59-.23-.87-.37l-6.54-3.35c-.28-.15-.47-.32-.59-.52s-.18-.42-.18-.66v-3.17l14.27 7.44v1.8l-14.26 7.45"/><path fill="#fff" d="M779.544 48.285h3.71c.907 0 1.697-.114 2.37-.34.675-.226 1.23-.55 1.672-.974.44-.42.773-.93.993-1.54.22-.61.33-1.28.33-2.03 0-.71-.11-1.35-.33-1.93-.22-.57-.56-1.06-1-1.47-.44-.4-1-.71-1.67-.93-.68-.21-1.47-.32-2.37-.32h-3.71v9.54zm0 3.857v9.352h-4.942V34.927h8.652c1.776 0 3.313.21 4.612.625 1.298.417 2.37 1 3.215 1.747.85.74 1.47 1.64 1.88 2.68.41 1.04.61 2.18.61 3.42 0 1.28-.21 2.46-.64 3.53-.43 1.07-1.07 1.99-1.93 2.76-.86.77-1.93 1.37-3.21 1.8-1.29.43-2.79.64-4.52.64h-3.71m40.27 9.35h-4.98v-11.6h-12.46v11.61h-4.98V34.92h4.98v11.43h12.46V34.92h4.98v26.57m10.47-13.21h3.7c.91 0 1.7-.112 2.38-.34.67-.224 1.23-.55 1.67-.972.44-.42.77-.93.99-1.54.22-.61.33-1.28.33-2.03 0-.71-.11-1.35-.33-1.93-.22-.57-.55-1.06-.99-1.47-.44-.4-1-.71-1.67-.93-.68-.21-1.47-.32-2.38-.32h-3.71v9.54zm0 3.86v9.352h-4.94V34.927H834c1.777 0 3.314.21 4.613.625 1.298.417 2.37 1 3.216 1.747.84.74 1.47 1.64 1.87 2.68.4 1.04.6 2.18.6 3.42 0 1.28-.22 2.46-.65 3.53-.43 1.07-1.07 1.99-1.93 2.76-.86.77-1.93 1.37-3.22 1.8-1.29.43-2.79.64-4.52.64h-3.71"/><path fill="#70a5c5" d="M883.99 147.394c1.655 7.555 7.335 13.845 12.686 14.103 1.915.07 43.506 2.342 54.914 3.29 5.33.502 11.04-7.105 12.77-17.047 2.022-12.14 4.046-24.28 6.066-36.42 1.73-9.94-2.75-17.428-9.987-16.655-24.18 2.427-48.27 5.414-72.25 8.955-7.18 1.104-11.66 8.182-10 15.734.73 3.52 2.18 10.556 2.18 10.556l-19.83-5.17 21.22 15.835s1.49 3.227 2.23 6.82"/><path fill="#fff" d="M910.2 135.167v4.778c0 5.756-2.88 9.044-8.428 9.044-5.55 0-8.426-3.29-8.426-9.05v-18.7c0-5.76 2.876-9.04 8.426-9.04 5.55 0 8.428 3.28 8.428 9.04v3.49h-5.344v-3.86c0-2.57-1.13-3.54-2.93-3.54-1.8 0-2.93.97-2.93 3.54v19.43c0 2.57 1.13 3.49 2.93 3.49 1.8 0 2.93-.93 2.93-3.5v-5.14h5.344m13.564-6.58h6.885v4h-6.89v7.04h-4.01v-7.04h-6.89v-4.01h6.88v-6.94h4.01v6.94m20.34 0h6.88v4h-6.88v7.04h-4v-7.04h-6.89v-4.01h6.88v-6.94h4v6.94"/><path fill="#70a5c5" d="M540.45 148.687c-14.145 0-25.655 11.513-25.655 25.664 0 14.15 11.51 25.66 25.656 25.66 14.16 0 25.67-11.51 25.67-25.66s-11.51-25.66-25.66-25.66zm0 53.823c-15.525 0-28.155-12.633-28.155-28.16 0-15.528 12.63-28.163 28.156-28.163 15.53 0 28.17 12.635 28.17 28.164 0 15.53-12.63 28.16-28.16 28.16zm-14.15 10.575l.97.324c2.035.68 4.117 1.2 6.19 1.55l1.04.17v7.05c0 .74.6 1.34 1.34 1.34h10.38c.74 0 1.344-.6 1.344-1.35v-7.22l1-.21c2.127-.43 4.197-1.02 6.152-1.73l.985-.36 3.52 6.08c.37.62 1.2.85 1.84.49l8.98-5.19c.64-.37.86-1.2.49-1.85l-3.62-6.26.78-.68c1.62-1.41 3.12-2.95 4.46-4.56l.68-.81 6.1 3.52c.62.35 1.48.12 1.84-.5l5.18-8.99c.38-.64.15-1.46-.49-1.83l-6.25-3.62.33-.97c.67-1.98 1.2-4.06 1.57-6.18l.18-1.04h7.04c.74 0 1.34-.61 1.34-1.36v-10.37c0-.36-.13-.7-.38-.95-.25-.26-.59-.4-.95-.4h-7.22l-.2-1.01c-.41-2.06-1-4.13-1.74-6.16l-.36-.98 6.09-3.52c.64-.37.86-1.2.49-1.85l-5.18-8.97c-.36-.62-1.21-.86-1.84-.5l-6.27 3.62-.67-.78c-1.41-1.61-2.95-3.1-4.56-4.45l-.81-.67 3.52-6.1c.37-.64.15-1.47-.5-1.84l-8.97-5.19c-.61-.35-1.48-.12-1.83.5l-3.62 6.26-.97-.33c-1.96-.67-4.05-1.2-6.18-1.57l-1.04-.17v-7.05c0-.74-.61-1.35-1.35-1.35h-10.4c-.75 0-1.35.6-1.35 1.34v7.22l-1 .2c-2.09.42-4.15 1-6.14 1.73l-.99.36-3.51-6.09c-.36-.63-1.21-.86-1.85-.49l-8.98 5.19c-.3.18-.52.46-.62.8-.09.35-.04.72.14 1.03l3.6 6.29-.77.68c-1.64 1.45-3.14 2.98-4.45 4.56l-.67.81-6.1-3.52c-.61-.36-1.48-.12-1.85.5l-5.18 8.98c-.17.31-.22.67-.13 1.02s.32.64.63.82l6.26 3.62-.33.97c-.68 1.99-1.2 4.07-1.56 6.18l-.18 1.04h-7.04c-.74 0-1.35.61-1.35 1.35v10.37c0 .74.61 1.35 1.35 1.35h7.22l.2 1.01c.42 2.1 1 4.17 1.73 6.15l.36.98-6.09 3.52c-.64.36-.85 1.18-.49 1.83l5.19 8.98c.35.61 1.21.85 1.84.48l6.27-3.61.68.77c1.44 1.63 2.98 3.13 4.57 4.45l.81.67-3.52 6.1c-.18.316-.23.676-.14 1.02.09.347.31.635.62.815l8.99 5.19c.62.36 1.47.12 1.82-.49l3.62-6.26zm19.92 12.952l-10.38-.006c-2.12 0-3.84-1.72-3.84-3.83v-4.95c-1.524-.29-3.048-.68-4.55-1.14l-2.604 4.5c-.675 1.18-1.95 1.92-3.32 1.92-.67 0-1.334-.17-1.917-.51l-8.99-5.18c-.89-.51-1.53-1.34-1.79-2.33-.27-.99-.13-2.03.38-2.92l2.47-4.28c-1.16-1.01-2.29-2.11-3.36-3.28l-4.5 2.6c-.59.34-1.25.52-1.92.52-1.37 0-2.65-.73-3.33-1.92l-5.19-8.99c-1.06-1.84-.43-4.19 1.41-5.24l4.27-2.47c-.5-1.47-.93-2.99-1.27-4.53h-5.18c-2.13 0-3.86-1.72-3.86-3.84v-10.37c0-2.12 1.73-3.85 3.85-3.85h4.94c.3-1.54.69-3.06 1.15-4.54l-4.5-2.6c-.89-.51-1.53-1.34-1.79-2.33-.27-.99-.13-2.03.38-2.92l5.19-8.98c.7-1.19 1.98-1.92 3.35-1.92.66 0 1.32.18 1.9.51l4.28 2.48c1-1.15 2.1-2.27 3.27-3.35l-2.6-4.51c-.52-.9-.65-1.94-.38-2.93.26-.99.9-1.81 1.78-2.32l8.98-5.19c.59-.34 1.26-.52 1.93-.52 1.37 0 2.64.74 3.33 1.92l2.46 4.28c1.47-.5 2.99-.93 4.51-1.27v-5.19c0-2.12 1.73-3.84 3.85-3.84H545c2.12 0 3.85 1.72 3.85 3.84v4.95c1.56.31 3.08.69 4.55 1.15l2.6-4.49c.68-1.19 1.96-1.92 3.33-1.92.67 0 1.33.18 1.91.51l8.98 5.19c1.84 1.06 2.47 3.42 1.42 5.25l-2.47 4.29c1.17 1.03 2.29 2.12 3.35 3.28l4.5-2.59c.58-.34 1.25-.52 1.92-.52 1.37 0 2.65.74 3.34 1.92l5.19 8.98c1.05 1.84.42 4.2-1.41 5.26l-4.28 2.47c.51 1.5.94 3.01 1.28 4.53h5.187c1.03 0 2 .4 2.72 1.13.72.73 1.12 1.69 1.116 2.72V179c-.007 2.126-1.728 3.854-3.84 3.854h-4.95c-.308 1.54-.69 3.06-1.15 4.537l4.494 2.6c1.83 1.06 2.46 3.41 1.4 5.25l-5.18 8.99c-.69 1.18-1.965 1.92-3.33 1.92-.67 0-1.33-.18-1.91-.51l-4.293-2.48c-1.03 1.17-2.12 2.29-3.28 3.35l2.59 4.49c1.06 1.86.43 4.21-1.405 5.26l-8.99 5.19c-.59.34-1.25.51-1.92.51-1.37 0-2.64-.73-3.32-1.92l-2.47-4.27c-1.46.5-2.97.92-4.52 1.27v5.19c0 2.12-1.72 3.85-3.84 3.85"/><path fill="#dce4e7" d="M469.5 218.7c-3.765 0-6.818-3.053-6.818-6.82 0-3.765 3.053-6.818 6.818-6.818 3.764 0 6.82 3.053 6.82 6.82 0 3.765-3.056 6.817-6.82 6.817zm20.22-10.815h-3.345c-.78 0-1.614-.603-1.86-1.34l-.624-1.51c-.34-.695-.18-1.71.37-2.26l2.37-2.366c.55-.55.55-1.45 0-2l-3.66-3.66c-.54-.55-1.44-.55-1.99 0l-2.36 2.36c-.55.55-1.56.71-2.26.37l-1.5-.63c-.73-.24-1.33-1.08-1.33-1.86v-3.35c0-.77-.63-1.41-1.41-1.41h-5.17c-.78 0-1.41.64-1.41 1.41V195c0 .78-.6 1.614-1.34 1.856l-1.51.63c-.7.35-1.71.18-2.26-.37l-2.36-2.365c-.55-.55-1.45-.55-1.99 0l-3.66 3.66c-.55.55-.55 1.45 0 2l2.37 2.37c.55.55.71 1.57.36 2.26l-.62 1.51c-.24.74-1.08 1.34-1.86 1.34h-3.35c-.77 0-1.4.64-1.4 1.41v5.18c0 .78.64 1.41 1.41 1.41h3.35c.78 0 1.62.61 1.86 1.34l.62 1.52c.35.7.19 1.71-.36 2.26l-2.37 2.37c-.55.55-.55 1.45 0 2l3.66 3.66c.55.55 1.45.55 2 0l2.37-2.36c.55-.55 1.56-.71 2.26-.37l1.51.63c.74.25 1.34 1.08 1.34 1.86v3.34c0 .78.63 1.41 1.41 1.41h5.17c.78 0 1.42-.63 1.42-1.41v-3.34c0-.78.6-1.61 1.34-1.86l1.51-.63c.7-.35 1.71-.18 2.26.37l2.37 2.36c.55.55 1.45.55 2 0l3.66-3.66c.55-.54.55-1.45 0-1.99l-2.37-2.36c-.54-.55-.71-1.56-.36-2.26l.62-1.51c.25-.73 1.08-1.34 1.86-1.34h3.35c.77 0 1.41-.63 1.41-1.41v-5.17c0-.77-.64-1.41-1.41-1.41"/><path fill="#70a5c5" d="M593.207 122.49c-2.093 0-3.79-1.698-3.79-3.79 0-2.1 1.697-3.795 3.79-3.795 2.095 0 3.793 1.696 3.793 3.794 0 2.09-1.698 3.79-3.793 3.79zm11.25-6.015h-1.865c-.432 0-.898-.335-1.032-.745l-.346-.84c-.194-.388-.103-.95.2-1.26l1.317-1.313c.31-.303.31-.805 0-1.108l-2.03-2.04c-.31-.31-.8-.31-1.11 0l-1.31 1.31c-.31.3-.87.4-1.26.2l-.84-.35c-.41-.14-.74-.61-.74-1.04v-1.86c0-.43-.35-.79-.79-.79h-2.87c-.43 0-.78.35-.78.78v1.86c0 .43-.33.89-.75 1.03l-.84.35c-.38.19-.95.1-1.25-.21l-1.31-1.32c-.3-.31-.8-.31-1.11 0l-2.03 2.03c-.3.3-.3.8 0 1.1l1.32 1.32c.31.31.4.87.21 1.26l-.34.84c-.14.41-.61.74-1.04.74H582c-.43 0-.785.35-.785.78v2.88c0 .43.355.78.784.78h1.86c.43 0 .9.33 1.04.74l.34.84c.19.38.1.95-.21 1.25l-1.32 1.31c-.31.3-.31.8 0 1.11l2.04 2.03c.3.3.8.3 1.11 0l1.31-1.32c.3-.31.87-.4 1.25-.21l.84.35c.41.14.75.6.75 1.04v1.86c0 .43.35.78.78.78h2.87c.43 0 .79-.35.79-.79V128c0-.44.33-.9.74-1.04l.84-.34c.38-.19.95-.1 1.26.2l1.31 1.32c.3.31.8.31 1.11 0l2.03-2.033c.31-.304.31-.803 0-1.11l-1.32-1.315c-.3-.31-.39-.87-.2-1.26l.35-.84c.13-.41.6-.747 1.03-.747h1.87c.43 0 .78-.357.78-.79v-2.87c0-.44-.36-.79-.79-.79"/><path fill="#ec8558" d="M368.72 166.64c-2.094 0-3.79-1.7-3.79-3.793 0-2.096 1.696-3.793 3.79-3.793 2.095 0 3.792 1.697 3.792 3.793 0 2.094-1.697 3.792-3.792 3.792zm11.25-6.016h-1.865c-.43 0-.898-.335-1.033-.745l-.346-.85c-.194-.39-.102-.95.2-1.26l1.32-1.32c.306-.3.306-.81 0-1.11l-2.035-2.04c-.3-.31-.8-.31-1.11 0l-1.31 1.31c-.3.3-.87.4-1.26.2l-.84-.35c-.4-.14-.74-.6-.74-1.04v-1.86c0-.43-.35-.79-.79-.79h-2.87c-.43 0-.78.35-.78.78v1.86c0 .43-.33.89-.74 1.03l-.84.34c-.38.19-.95.1-1.25-.21l-1.31-1.31c-.3-.31-.8-.31-1.11 0l-2.04 2.03c-.31.3-.31.81 0 1.11l1.32 1.31c.31.31.4.87.2 1.26l-.34.84c-.14.41-.6.74-1.03.74h-1.86c-.43 0-.78.35-.78.78v2.88c0 .43.36.78.79.78h1.86c.43 0 .9.33 1.04.74l.34.84c.2.38.11.95-.2 1.25l-1.31 1.31c-.3.3-.3.8 0 1.11l2.04 2.03c.31.31.81.31 1.11 0l1.32-1.31c.31-.31.87-.4 1.26-.21l.84.34c.42.14.75.6.75 1.04V174c0 .44.35.79.79.79h2.88c.44 0 .79-.35.79-.78v-1.86c0-.44.33-.9.74-1.04l.84-.35c.39-.19.95-.1 1.26.21l1.31 1.31c.31.3.81.3 1.11 0l2.04-2.04c.31-.304.31-.8 0-1.11l-1.32-1.32c-.3-.304-.39-.87-.2-1.254l.35-.85c.14-.41.6-.74 1.03-.74H380c.43 0 .78-.35.78-.78v-2.875c0-.44-.35-.79-.78-.79M1008.15 94c-3.57 0-6.48 2.91-6.48 6.49 0 3.57 2.91 6.48 6.48 6.48 3.578 0 6.486-2.904 6.486-6.475 0-3.577-2.91-6.487-6.48-6.487zm0 15.467c-4.95 0-8.98-4.03-8.98-8.98 0-4.96 4.03-8.99 8.98-8.99 4.958 0 8.986 4.03 8.986 8.99 0 4.95-4.03 8.975-8.98 8.975zm-8.7 5.89c.538 0 1.05.11 1.49.33l1.637.665c1.276.43 2.296 1.85 2.296 3.27v3.79c0 .194.16.35.35.35h5.865c.197 0 .36-.156.36-.35v-3.79c0-1.42 1.01-2.835 2.354-3.295l1.646-.68c.365-.18.88-.295 1.41-.295.955 0 1.895.37 2.517.98l2.68 2.69c.17.176.317.18.5 0l4.14-4.15.105-.24-.1-.25-2.69-2.68c-1.01-1.013-1.28-2.732-.648-4l.664-1.633c.415-1.27 1.832-2.29 3.264-2.29h3.803c.18 0 .34-.16.34-.35V97.6c0-.19-.16-.35-.34-.35h-3.8c-1.43 0-2.85-1.02-3.292-2.38l-.67-1.63c-.59-1.188-.32-2.907.67-3.917l2.7-2.69.1-.242-.1-.24-4.15-4.16c-.2-.19-.35-.15-.5 0l-2.67 2.68c-.98.98-2.78 1.27-4.01.66l-1.63-.67c-1.27-.42-2.28-1.84-2.28-3.26v-3.79c0-.19-.16-.34-.36-.34h-5.86c-.19 0-.35.16-.35.35v3.79c0 1.43-1.02 2.85-2.38 3.3l-1.63.68c-.36.18-.87.3-1.41.3-.96 0-1.9-.38-2.52-1L994.28 82c-.15-.16-.29-.2-.5 0l-4.15 4.15-.1.24.1.24 2.69 2.683c1.01 1.012 1.28 2.732.65 4.002l-.66 1.63c-.43 1.28-1.85 2.295-3.27 2.295h-3.79c-.19 0-.35.163-.35.35v5.866c0 .19.16.35.35.35H989c1.425 0 2.844 1.02 3.3 2.37l.67 1.65c.596 1.19.32 2.91-.685 3.92l-2.68 2.69-.108.25.1.238 4.16 4.16c.19.19.34.15.5 0l2.67-2.68c.615-.62 1.554-.99 2.51-.99zm11.63 10.91h-5.86c-1.57 0-2.85-1.28-2.85-2.85v-3.79c0-.35-.34-.82-.67-.93l-1.79-.74c-.523-.25-.974-.09-1.2.14l-2.68 2.69c-1.08 1.07-2.95 1.07-4.03 0l-4.153-4.16c-.54-.53-.837-1.244-.84-2.01 0-.764.3-1.48.84-2.02l2.68-2.68c.24-.24.33-.816.18-1.12l-.74-1.805c-.135-.4-.604-.735-.954-.735h-3.79c-1.57 0-2.85-1.28-2.85-2.85V97.6c0-1.57 1.28-2.85 2.85-2.85H989c.35 0 .82-.34.93-.67l.726-1.786c.19-.397.1-.965-.144-1.213l-2.68-2.67c-.535-.52-.835-1.24-.835-2.01 0-.77.3-1.48.843-2.02l4.146-4.14c1.086-1.08 2.96-1.08 4.035 0l2.68 2.68c.23.23.83.32 1.12.18l1.8-.75c.42-.14.75-.61.75-.95v-3.78c0-1.57 1.28-2.84 2.85-2.84h5.86c1.58 0 2.86 1.28 2.86 2.85v3.79c0 .34.34.82.66.93l1.8.74c.53.25.97.08 1.21-.16l2.68-2.67c1.07-1.07 2.95-1.08 4.03 0l4.15 4.16c.54.53.84 1.25.84 2.02s-.3 1.48-.84 2.02l-2.68 2.68c-.23.24-.32.81-.17 1.13l.74 1.79c.14.41.61.74.95.74h3.81c1.57 0 2.84 1.28 2.84 2.85v5.87c0 1.57-1.27 2.85-2.84 2.85h-3.8c-.34 0-.81.34-.92.66l-.73 1.8c-.19.38-.1.96.14 1.2l2.68 2.68c.54.54.84 1.25.84 2.02 0 .76-.3 1.48-.84 2.01l-4.14 4.15c-1.09 1.08-2.96 1.07-4.03 0l-2.68-2.68c-.23-.23-.84-.32-1.13-.18l-1.79.74c-.4.14-.74.61-.74.96v3.79c0 1.57-1.28 2.85-2.86 2.85"/><path fill="#dce4e7" d="M713.576 48.736c0-9.63-7.817-17.452-17.46-17.452-2.066 0-4.05.38-5.885 1.05-2.12-9-10.18-15.718-19.83-15.718-11.1 0-20.14 8.91-20.36 19.974-.98-.204-2-.314-3.04-.314-8.26 0-14.96 6.693-14.96 14.96 0 6.764 4.5 12.47 10.65 14.323 1.24.4 2.56.63 3.94.63H697c1.53 0 3.013-.3 4.374-.81 7.07-2.23 12.207-8.84 12.207-16.66"/><path fill="#70a5c5" d="M724.865 38.025c0-6.89-5.593-12.485-12.49-12.485-1.48 0-2.9.27-4.21.75-1.52-6.438-7.286-11.243-14.185-11.243-7.95 0-14.413 6.374-14.57 14.288-.705-.145-1.433-.224-2.18-.224-5.906 0-10.7 4.79-10.7 10.71 0 4.84 3.215 8.92 7.615 10.25.886.29 1.83.46 2.82.46H713c1.097 0 2.157-.21 3.13-.58 5.057-1.58 8.733-6.32 8.733-11.91m-243.71 114.78c-1.66 7.81-7.626 14.24-13.314 14.44-2.04.05-4.07.11-6.1.17-.61 5.55-1.23 11.09-1.84 16.64-4.25-5.05-8.92-10.39-14.01-15.99-12.16.61-24.31 1.47-36.45 2.59-5.68.58-11.66-7.2-13.38-17.48-2.01-12.54-4.02-25.09-6.02-37.63-1.72-10.27 3.03-18.1 10.6-17.38 25.29 2.24 50.53 5.32 75.7 9.25 7.53 1.23 12.27 8.63 10.61 16.43l-5.83 28.98"/><path fill="#fff" d="M426.03 140.85v4.78c0 5.754-2.878 9.042-8.426 9.042-5.55 0-8.427-3.288-8.427-9.043v-18.71c0-5.76 2.877-9.05 8.427-9.05 5.548 0 8.427 3.29 8.427 9.04v3.49h-5.34v-3.86c0-2.57-1.13-3.55-2.93-3.55-1.8 0-2.93.97-2.93 3.54v19.42c0 2.57 1.13 3.49 2.93 3.49 1.8 0 2.93-.93 2.93-3.5v-5.14h5.35m11.05-22.97c5.5 0 8.33 3.29 8.33 9.04V128h-5.34v-1.49c0-2.57-1.02-3.54-2.82-3.54-1.79 0-2.82.973-2.82 3.54 0 7.4 11.05 8.788 11.05 19.065 0 5.75-2.87 9.04-8.42 9.04s-8.42-3.29-8.42-9.04v-2.21h5.34v2.57c0 2.57 1.13 3.49 2.93 3.49 1.8 0 2.93-.925 2.93-3.495 0-7.4-11.05-8.79-11.05-19.07 0-5.752 2.83-9.04 8.33-9.04m19.22 0c5.5 0 8.33 3.29 8.33 9.04V128h-5.35v-1.49c0-2.57-1.02-3.547-2.82-3.547-1.79 0-2.82.972-2.82 3.54 0 7.4 11.05 8.785 11.05 19.06 0 5.75-2.88 9.04-8.43 9.04s-8.43-3.29-8.43-9.042v-2.21h5.34v2.57c0 2.57 1.13 3.5 2.93 3.5 1.8 0 2.93-.92 2.93-3.49 0-7.4-11.05-8.78-11.05-19.06 0-5.75 2.83-9.04 8.32-9.04"/><path fill="#70a5c5" d="M253.19 129.282h27.8v-2.5h-27.8v2.5zm13.51 5.088h38.67v-2.5H266.7v2.5zm0 5.09h34.847v-2.5H266.7v2.5zm0 5.09h27.8v-2.5h-27.8v2.5zm-13.51 42.29h27.8v-2.5h-27.8v2.5zm13.51 5.09h70.975v-2.5H266.7v2.5zm0 5.09h62.838v-2.5h-62.84v2.5zm7.047 5.09h27.8v-2.5h-27.8v2.5zm-20.557-42.875h27.8v-2.5h-27.8v2.5zm13.51 5.09h60.63v-2.5H266.7v2.5zm0 5.09h56.806v-2.5H266.7v2.5zm0 5.09h27.8v-2.5h-27.8v2.5zM100.91 180.7l16.587-12.298v6.46H156.2v11.675h-38.703v6.453L100.91 180.7"/><path fill="#ec8558" d="M156.196 150.985l-16.59 12.3v-6.463H100.91v-11.675h38.696v-6.453l16.59 12.29"/><path fill="#70a5c5" d="M331.78 129.31h12.35v-18.74h-12.35v18.74zm14.85 2.5h-17.35v-23.74h17.35v23.74"/><path fill="#70a5c5" d="M336.752 130.215h2.5v-20.55h-2.5v20.55z"/><path fill="#70a5c5" d="M330.53 117.51h14.944v-2.5H330.53v2.5zm0 7.112h14.944v-2.5H330.53v2.5zm-8.174-3.88h4.636v-2.5h-4.636v2.5zm-6.692-16.11h2.5v-2.72h-2.5v2.72zm15.522 0h2.5v-2.72h-2.5v2.72z"/><path fill="#70a5c5" d="M323.425 119.045h2.5V102.72h-2.5v16.325z"/><path fill="#70a5c5" d="M316.914 103.16h15.522v-2.5h-15.522v2.5z"/><path fill="#dce4e7" d="M178.62 156.014l22.25 24.82 22.245-24.82H178.62zm22.25 28.565l-27.846-31.07h55.69l-27.844 31.07"/><path fill="#dce4e7" d="M191.665 156.014l9.204 23.29 9.2-23.29h-18.41zm9.204 30.093l-12.88-32.593h25.76l-12.88 32.593"/><path fill="#dce4e7" d="M178.374 153.576h44.988l-4.952-6.384h-35.085l-4.95 6.384zm50.09 2.5H173.27l8.83-11.384h37.537l8.83 11.384"/><path fill="#dce4e7" d="M193.347 153.576h15.044l-7.52-6.11-7.52 6.11zm22.085 2.5h-29.126l14.563-11.83 14.56 11.83"/><path fill="#dce4e7" d="M178.374 153.576h8.785l-4.43-5.617-4.36 5.61zm13.94 2.5H173.27l8.83-11.384h1.22l.394.477 8.6 10.9m22.266-2.5h8.782l-4.356-5.62-4.427 5.61zm13.885 2.5h-19.04l8.975-11.39h1.22l.39.48 8.455 10.9"/><path fill="#70a5c5" d="M1075.502 169.282c-10.23-3.942-21.395-5.266-32.28-3.83l-.327-2.477c11.3-1.49 22.886-.118 33.506 3.974l-.89 2.33m-54.45 3.25l-1.17-2.21c2.47-1.31 5.05-2.48 7.67-3.48l.89 2.34c-2.52.96-5.01 2.08-7.38 3.34"/><path fill="#70a5c5" d="M1062.7 189.8l-2.5-.01c.07-21.82-10.64-42.205-28.645-54.53l1.41-2.06c18.692 12.79 29.81 33.95 29.735 56.6m-5.798-46.034c-6.316-4.26-11.838-9.504-16.413-15.594l1.99-1.5c4.41 5.865 9.72 10.92 15.81 15.022l-1.4 2.072m27.97 10.906c-5.09-.77-10.09-2.12-14.88-4.012l.91-2.324c4.61 1.82 9.44 3.123 14.34 3.866l-.38 2.47"/><path fill="#70a5c5" d="M1063.917 140.227c-3.283 0-5.956 2.672-5.956 5.955 0 3.284 2.68 5.957 5.96 5.957 3.29 0 5.96-2.68 5.96-5.96 0-3.29-2.67-5.96-5.95-5.96zm0 14.412c-4.663 0-8.456-3.8-8.456-8.46 0-4.66 3.8-8.46 8.46-8.46s8.46 3.79 8.46 8.45c0 4.66-3.79 8.45-8.45 8.45m18.53 11.07c-3.28 0-5.95 2.67-5.95 5.95s2.68 5.95 5.96 5.95 5.96-2.67 5.96-5.96-2.67-5.96-5.95-5.96zm0 14.41c-4.66 0-8.45-3.79-8.45-8.46 0-4.66 3.8-8.46 8.46-8.46 4.66 0 8.46 3.79 8.46 8.45 0 4.66-3.79 8.46-8.45 8.46"/><path fill="#70a5c5" d="M1051.85 194.442c-19.21 0-34.838-15.628-34.838-34.84 0-19.21 15.63-34.838 34.838-34.838 19.214 0 34.844 15.627 34.844 34.838 0 1.714-.158 3.524-.48 5.537l-2.468-.4c.3-1.88.448-3.57.448-5.14 0-17.83-14.51-32.34-32.344-32.34-17.83 0-32.338 14.5-32.338 32.34s14.508 32.34 32.338 32.34c10.782 0 20.82-5.35 26.85-14.31l2.074 1.39c-6.495 9.65-17.31 15.41-28.924 15.41"/><path fill="#70a5c5" d="M1035.732 160.69c-3.283 0-5.956 2.67-5.956 5.955s2.673 5.957 5.956 5.957c3.285 0 5.957-2.672 5.957-5.957 0-3.284-2.68-5.955-5.96-5.955zm0 14.412c-4.663 0-8.456-3.793-8.456-8.457 0-4.663 3.793-8.455 8.456-8.455 4.663 0 8.457 3.792 8.457 8.455 0 4.664-3.8 8.457-8.46 8.457M362.1 232.084c-1.294 0-2.344 1.05-2.344 2.343s1.05 2.344 2.345 2.344c1.3 0 2.35-1.05 2.35-2.34s-1.05-2.34-2.34-2.34zm0 7.187c-2.67 0-4.844-2.17-4.844-4.84s2.174-4.84 4.845-4.84c2.67 0 4.85 2.17 4.85 4.85 0 2.67-2.17 4.85-4.84 4.85M382 221.41c-1.295 0-2.345 1.05-2.345 2.343 0 1.298 1.05 2.35 2.344 2.35 1.29 0 2.34-1.05 2.34-2.345 0-1.29-1.05-2.343-2.35-2.343zm0 7.187c-2.67 0-4.845-2.173-4.845-4.844 0-2.67 2.173-4.84 4.844-4.84 2.67 0 4.84 2.174 4.84 4.845 0 2.672-2.18 4.845-4.85 4.845m0 14.162c-1.3 0-2.35 1.053-2.35 2.346 0 1.3 1.05 2.35 2.34 2.35 1.29 0 2.34-1.05 2.34-2.34s-1.06-2.34-2.35-2.34zm0 7.19c-2.67 0-4.85-2.173-4.85-4.844 0-2.67 2.17-4.84 4.84-4.84s4.84 2.18 4.84 4.85c0 2.67-2.18 4.85-4.85 4.85"/><path fill="#70a5c5" d="M377.676 244.29l-12.76-7.368 1.25-2.165 12.76 7.367-1.25 2.166m-11.51-10.193l-1.25-2.165 12.76-7.367 1.25 2.166-12.76 7.37"/><path fill="#dce4e7" d="M1054.4 102.12l-1.77-1.77 10.915-10.91 1.767 1.767-10.913 10.912"/><path fill="#dce4e7" d="M1064.29 97.532c-.2 0-.405-.008-.61-.027l.226-2.49c1.245.116 2.453-.324 3.324-1.193l3.104-3.107c1.64-1.64 1.64-4.308.002-5.95l-.35-.35c-1.64-1.638-4.307-1.64-5.946 0l-3.108 3.106c-.87.88-1.307 2.09-1.196 3.33l-2.49.23c-.18-1.98.52-3.91 1.92-5.31l3.106-3.1c2.61-2.61 6.864-2.61 9.48 0l.353.36c2.612 2.62 2.61 6.87-.003 9.48l-3.105 3.11c-1.255 1.25-2.942 1.94-4.706 1.94m-13 12.99c-1.72 0-3.43-.65-4.74-1.95l-.35-.36c-1.26-1.26-1.96-2.94-1.96-4.73 0-1.79.7-3.47 1.97-4.74l3.11-3.1c1.4-1.4 3.33-2.09 5.32-1.92l-.22 2.49c-1.23-.11-2.45.32-3.32 1.2l-3.1 3.11c-.79.8-1.23 1.85-1.23 2.98 0 1.12.44 2.18 1.23 2.97l.36.36c1.64 1.63 4.31 1.63 5.95 0l3.11-3.11c.87-.87 1.3-2.08 1.19-3.32l2.49-.22c.18 1.98-.52 3.92-1.91 5.31l-3.11 3.11c-1.31 1.31-3.02 1.96-4.74 1.96"/></g></svg>