<svg xmlns="http://www.w3.org/2000/svg" width="446.252" height="371.037"><path d="M440.05 193.227c-.353.214-.222-2.658.3-6.397.516-3.727 3.147-13.49 3.35-13.653.2-.15.56.707.303 1.396-.255.692-.688 2.773-.437 2.87.263.103.624 1.487.393 1.955-.24.456-.2 2.3-.35 2.988-.15.688-1.29 3.01-1.2 3.715.09.72 1.32 2.91 1.03 3.2-.276.28-.827.76-.59.42.233-.34 1.076.51 1.234.828.144.313-.89 1.81-1.505 2.703-.63.903-2.678 3.51-2.84 3.427-.16-.095-.56-.3-.535-.587.02-.284.47-1.24.95-1.47.49-.23.23-1.61-.12-1.378" fill="#afd7a6"/><path d="M442.393 192.07c-.126 0-.19.47.044.47.134.032.2-.44-.044-.47" fill="#c1e2de"/><path d="M439.275 197.142c.17.09 2.243-2.554 2.87-3.46.625-.91 1.684-2.412 1.532-2.734-.13-.263-.717-.853-1.06-.853l.428-.377c.284-.287-.94-2.49-1.037-3.204-.093-.71 1.07-3.05 1.222-3.744.15-.692.125-2.544.372-3.016.23-.464-.125-1.853-.387-1.957-.26-.095.19-2.185.452-2.888.263-.7-.1-1.56-.296-1.41-.17.13-2.02 6.82-2.98 11.29-.21 1.12-.4 2.25-.58 3.37-.44 3.29-.54 5.71-.22 5.51.36-.23.62 1.15.11 1.393-.28.137-.55.524-.73.89-.02.29-.05.576-.06.874l.37.297" fill="#7ac286"/><path d="M447.633 282.594V12.787c0-6.14-4.973-11.117-11.11-11.117H12.718c-6.146 0-11.105 4.977-11.105 11.117v269.807h446.02" fill="#333"/><path d="M2.195 282.01H447.05V12.788c0-5.808-4.722-10.534-10.527-10.534H12.718c-5.803 0-10.523 4.726-10.523 10.534V282.01zm445.438 1.165H1.613c-.322 0-.58-.26-.58-.58V12.785c0-6.45 5.24-11.697 11.685-11.697h423.805c6.445 0 11.69 5.247 11.69 11.697v269.807c0 .32-.258.58-.58.58" fill="#545454"/><path d="M298.777 361.888h-148.31c-3.76 0-6.818 3.59-6.818 8.005v3.006H305.6v-3.01c0-4.42-3.063-8.01-6.823-8.01M1.613 282.59v31.867c0 6.12 4.96 11.09 11.105 11.09h423.805c6.137 0 11.11-4.97 11.11-11.1v-31.86H1.613" fill="#fff"/><path d="M19.885 264.167h409.48V19.02H19.885v245.147z" fill="#70a5c5"/><path d="M290.373 361.888c-2.966-12.116-5.925-24.225-8.89-36.336H167.768c-2.96 12.11-5.924 24.22-8.888 36.336h131.49" fill="#cdd5d8"/><path d="M158.882 361.888h60.293l36.334-36.336h-87.74c-2.96 12.11-5.93 24.22-8.89 36.336" fill="#c5cdcf"/><path d="M101.607 352.793l-65.908 8.41-7.04-55.12 65.9-8.414 7.03 55.12" fill="#f4da80"/><path d="M96.41 312.05l-65.91 8.41-1.836-14.377 65.906-8.414 1.84 14.38" fill="#f0ca67"/><path d="M20.045 264.146h408.827V18.894H20.045v245.252z" fill="#00aaef"/><path d="M156.135 164.52c-14.684-7.643-41.665-23.683-43.447-25.83-1.086-1.31-.815-5.627.44-7.02 1.564-1.735 10.593-7.502 21.408-13.674 26.29-15.004 31.812-16.964 34.657-12.297 2.777 4.55.193 7.51-13.75 15.74-17.29 10.21-21.676 12.92-21.87 13.5-.24.712 3.6 3.2 18 11.643 17.41 10.212 19.417 11.907 18.483 15.63-.473 1.88-4.497 5.86-5.928 5.86-.622 0-4.22-1.607-7.993-3.57zm32.172 55.152c-1.324-.468-2.88-1.555-3.527-2.466l-1.16-1.628 2.33-6.846c4.36-12.82 17.544-45.906 37.23-93.428 18.815-45.414 20.57-49.35 22.63-50.793 3.297-2.3 8.823.13 8.823 3.89 0 1.03-1.037 4.84-2.304 8.47-4.83 13.81-41.05 102.8-52.67 129.37-4.31 9.86-5.7 12.47-7.15 13.49-1.46 1.02-1.18 1.03-4.21-.05zm91.183-52.792c-3.652-2.02-4.957-5.18-3.39-8.21 1.016-1.963 3.004-3.278 22.338-14.77 7.35-4.367 13.458-8.226 13.574-8.575.23-.69-1.98-2.103-19.607-12.536-16.226-9.61-18.65-12.1-16.26-16.72 1.626-3.15 3.64-3.45 9.424-1.4 8.17 2.88 40.72 21.7 45.45 26.29 4.34 4.2 3.95 6.21-1.99 10.24-7.64 5.18-30.67 18.69-40.24 23.61-5.37 2.75-7.29 3.18-9.3 2.07z" fill="#fff"/></svg>