<svg xmlns="http://www.w3.org/2000/svg" width="512" height="300"><g fill="#00aaef"><path d="M246.733 106.17c-30.855-2.818-59.13-22.14-73.176-50.007l-2.702-5.36 7.92-5.83c10.275-7.566 30.672-17.43 42.68-20.643 39.378-10.533 78.08-3.29 112.238 21.002l7.96 5.66-4.005 7.162c-15.09 26.987-42.644 45.285-72.335 48.037-5.005.47-13.366.46-18.58-.02z"/><path d="M154.777 232.744c-7.416-9.43-17.23-26.156-20.545-35.018-8.767-23.432-11.074-49.545-6.383-72.227 4.54-21.98 14.49-43.13 27.29-58.03l4.66-5.42 4.6 7.83c6.24 10.62 21.24 26.34 31.93 33.45 26 17.29 59.16 22.47 88.69 13.85 26.72-7.79 46.69-22.61 61.39-45.55l6.18-9.656 4.373 5.453c39.93 49.746 39.326 120.02-1.43 167.11l-4.866 5.62-5.805-8.494c-6.507-9.524-19.23-22.595-27.55-28.3-7.63-5.235-24.234-12.937-33.313-15.453-11.13-3.08-38.137-3.892-49.477-1.482-27.535 5.85-54.415 24.054-67.98 46.034-2.684 4.344-5.08 7.9-5.33 7.9s-3.156-3.436-6.46-7.634z"/><path d="M233.252 279.035c-13.237-2.522-24.94-6.61-36.92-12.896-12.21-6.41-22.91-13.93-22.91-16.11 0-2.84 9.04-15.35 16.84-23.33 18.816-19.23 44.978-29.4 70.975-27.6 14.946 1.03 22.833 3.25 36.954 10.36 14.16 7.13 25.65 17.29 34.46 30.45 3.5 5.23 6.36 9.96 6.36 10.51 0 1.802-18.82 14.052-28.39 18.48-16.47 7.61-30.57 10.77-50.6 11.34-11.71.33-20.76-.08-26.75-1.228z"/></g></svg>