<svg xmlns="http://www.w3.org/2000/svg" viewBox="0 0 336 254"><g fill="#fff"><path d="M143.977 187.175c-2.05.033-4.11.55-5.975 1.6-7.51 3.65-9.42 14.095-5 20.825 3.06 5.47 10.295 8.025 15.925 4.975 2.13 1.47 4.775 1.165 7.225 1.275.02-5.2 0-10.4 0-15.6h-11.75v6.15c1.65.11 3.325.235 4.975.375-2.13 1.01-4.43 2.725-6.9 1.725-5.47-2.68-4.965-12.725 1.175-14.225 2.58-.23 4.245 2.065 5.975 3.575 1.97-1.51 3.94-3.02 5.9-4.55-2.53-3.94-7.038-6.197-11.55-6.125zm75.475.05c-3.54 9.49-7 19.025-10.5 28.525h8.5c.54-1.91 1.075-3.84 1.625-5.75 2.38-.02 4.76-.015 7.15-.025.58 1.92 1.17 3.845 1.75 5.775 2.81 0 5.63-.02 8.45 0-3.47-9.51-6.965-18.99-10.425-28.5-2.19 0-4.37-.015-6.55-.025zm-135 .025c-3.58 9.48-7.12 18.985-10.7 28.475 2.84.02 5.685.005 8.525.025.6-1.93 1.225-3.83 1.825-5.75 2.36 0 4.715-.01 7.075 0 .69 1.91 1.4 3.83 2.1 5.75 2.74 0 5.46-.01 8.2 0-3.41-9.53-7.01-18.98-10.45-28.5h-6.575zm18.2 0v28.5h8.25c0-4.39-.005-8.81.025-13.2 3.55 4.4 7.12 8.78 10.65 13.2 2.28-.01 4.545 0 6.825 0v-28.5h-8.25c0 4.77.02 9.53 0 14.3-3.57-4.78-7.17-9.53-10.75-14.3h-6.75zm56 0c.46 7.16-1.17 14.66 1.3 21.55 3.67 9.92 20.49 9.56 23.45-.7 1.61-6.81.39-13.91.75-20.85h-7.5c-.14 5.6.455 11.25-.425 16.8-.35 2.37-2.1 5.025-4.8 4.775-2.77.15-4.345-2.705-4.525-5.125-.53-5.47-.115-10.97-.225-16.45h-8.025zm28.5 0v28.5h20.75v-7c-4.25 0-8.5-.015-12.75-.025V187.25h-8zm57.9.45c-2.467.022-4.935.08-7.4.05.01 9.33-.01 18.67 0 28h8.25V207c.67-.01 2.005-.025 2.675-.025 1.74 2.9 3.46 5.81 5.15 8.75 3.05.02 6.115.025 9.175.025-2.05-3.36-4.105-6.735-6.175-10.075 1.64-2.21 3.68-4.48 3.7-7.4.63-4.83-2.965-10.055-7.975-10.425-2.465-.15-4.932-.173-7.4-.15zm.85 6.375c1.73.12 3.48.115 5.2.425 2.04 1.4.955 3.84.625 5.8-1.95-.05-3.875-.065-5.825-.075.01-2.05.01-4.1 0-6.15zM87.727 196.2c.78 2.92 1.555 5.855 2.325 8.775-1.61.01-3.215.015-4.825.025.82-2.93 1.64-5.88 2.5-8.8zm134.975.25c.76 2.84 1.53 5.685 2.3 8.525l-4.675.025c.79-2.86 1.565-5.7 2.375-8.55zM75.58 231.472c2.72-6.84 10.7-10.93 17.85-9.05 3.93.63 6.83 3.54 9.08 6.62-2.26 1.63-4.52 3.24-6.79 4.85-1.88-2.38-4.74-4.79-7.98-3.44-6.11 2.85-5.79 13.89.71 16.09 3.02 1 5.38-1.54 7.12-3.6 2.45 1.42 4.86 2.9 7.29 4.38-3.66 6.37-12.07 9.24-18.84 6.35-8.19-3.53-11.99-14.12-8.44-22.2zm39.22-8.66c8.35-3.16 17.93 2.99 19.63 11.49 2.54 8.87-3.71 19.41-13.12 20.36-8.23 1.31-16-5.44-17.08-13.44-1.48-7.59 3.03-16.1 10.57-18.41zm22.86-.81c1.71-.01 3.43-.02 5.15-.02 8.48 10.93 17.02 21.83 25.52 32.76-3.11 0-6.22 0-9.32.01-4.13-5.24-8.21-10.52-12.34-15.75-.02 5.25-.01 10.49-.01 15.74h-9c-.01-10.91 0-21.83 0-32.74zm8.87 0c3.11-.01 6.23-.01 9.34 0 4.08 5.42 8.16 10.83 12.29 16.21v-16.22h9.75v32.76c-1.97-.02-3.93-.02-5.9-.01-8.48-10.93-17-21.82-25.48-32.74zm33.63-.01c7.67 0 15.34-.01 23 0v7.5h-13.75v4.5c3.83-.01 7.67 0 11.5 0 0 2.41 0 4.83.01 7.25-3.84-.01-7.68 0-11.51 0v6h14.25v7.5h-23.5v-32.75z"/><path d="M209 226.822c6.31-7.1 19.16-6.22 23.91 2.24-2.28 1.63-4.56 3.26-6.84 4.9-1.79-2.34-4.29-4.69-7.52-3.65-6.72 2.54-6.24 14.72.89 16.39 2.92.61 4.83-1.96 6.54-3.84 2.42 1.49 4.84 2.97 7.28 4.44-3.98 7.2-14.21 9.78-21.05 5.15-8.38-5.34-10.17-18.41-3.21-25.63zm25.91 2.67v-7.5h27.75v7.5h-9.5v25.25h-8.75v-25.25h-9.5z"/><path style="line-height:125%" d="M170.225 1c-.105.01-.217.02-.325.05-.432.12-.74.366-.95.75-.21.384-.27.793-.15 1.225.322 1.106.665 2.22 1 3.3l-.675.275c-.385.195-.67.513-.825.925-.156.41-.138.802.05 1.2.188.398.49.694.9.85.41.156.838.132 1.25-.05l.225-.1c.262.857.454 1.46.575 1.825.604 1.957 1.13 3.535 1.6 4.75.59 1.58 1.096 2.602 1.5 3.075.357.398.73.735 1.125.975.394.24.807.4 1.225.475.418.075.768.114 1.075.125.307.01.673-.007 1.075-.05.402-.043.665-.076.8-.075.452.007.84-.133 1.15-.45.31-.317.474-.712.475-1.15 0-.438-.158-.814-.475-1.125-.317-.31-.7-.456-1.125-.45-.432-.015-.836-.02-1.2 0s-.597.055-.725.075c-.128.02-.265.01-.4-.025-.135-.034-.236-.093-.3-.15-.064-.057-.16-.145-.3-.3-.14-.156-.43-.85-.875-2.05-.457-1.175-.985-2.708-1.575-4.625-.148-.446-.372-1.172-.675-2.15l1.3-.5c.412-.18.716-.474.875-.875.16-.4.146-.81-.025-1.225-.17-.415-.45-.69-.85-.85-.4-.16-.83-.16-1.25 0l-.975.4-.85-2.925c-.12-.432-.39-.765-.775-.975-.288-.157-.585-.204-.9-.175zm-9.95 8.375c-.556.035-1.087.144-1.575.3-.975.312-1.838.838-2.575 1.6-.737.76-1.322 1.597-1.775 2.5-.453.903-.798 1.95-1.05 3.125-.25 1.174-.36 2.323-.3 3.45.06 1.126.467 2.28 1.2 3.475.733 1.195 1.758 2.053 3.1 2.575.782.325 1.627.483 2.5.475.874-.01 1.683-.13 2.425-.4.743-.27 1.438-.63 2.1-1.075.77-.525 1.444-1.203 2.025-2.025l.025.125c.155.398.452.692.85.875.398.183.807.186 1.225.025.418-.16.717-.452.9-.85.183-.398.18-.777.025-1.175-.497-1.296-.916-2.54-1.275-3.725-.36-1.185-.8-2.44-1.325-3.75-.524-1.31-1.11-2.522-1.775-3.65-.168-.44-.482-.75-.9-.925-.007-.02-.088-.07-.25-.15l-.525-.275c-.182-.074-.38-.152-.625-.25-.246-.098-.486-.173-.675-.2-.624-.085-1.194-.11-1.75-.075zm.35 3.2c.272-.015.564 0 .85.05.075.02.14.036.2.05.06.014.106.02.15.05.044.03.106.078.2.125.094.047.187.114.275.175.895 1.546 1.794 3.666 2.7 6.4-.048.06-.073.12-.1.175-.182.263-.41.617-.675 1.075-.264.458-.452.78-.55.925-.098.145-.244.324-.45.55-.206.226-.448.418-.725.6-.64.437-1.328.723-2.05.85-.722.127-1.382.08-1.975-.15-.99-.413-1.65-1.13-2-2.15-.35-1.02-.353-2.355 0-4 .36-1.626.99-2.848 1.9-3.7.682-.64 1.435-.98 2.25-1.025zM134.75 17.55c-.206.006-.42.06-.625.15-.62.296-.924.775-.925 1.45-.532-.25-1.164-.31-1.9-.225-2.874.347-4.98 1.577-6.3 3.7-1.156 1.867-1.433 3.95-.85 6.25.396 1.465.894 2.623 1.5 3.5.633.892 1.386 1.66 2.275 2.275.89.615 1.955.99 3.2 1.15 1.245.16 2.532.015 3.875-.475 1.404-.51 2.465-1.208 3.175-2.05.268 1.282.37 2.102.275 2.425-.163.526-.508 1.04-1.025 1.55-.517.508-1.153.92-1.875 1.25-1.398.666-2.414.88-3.075.65-.316-.075-.548-.222-.7-.475-.15-.253-.28-.477-.375-.625-.25-.344-.583-.547-1.025-.625-.442-.08-.845.022-1.2.275-.354.253-.572.583-.65 1.025-.078.44.06.9.4 1.35.34.45.698.793 1.075 1.05 1.01.676 2.12 1.02 3.325 1.025 1.204.005 2.36-.234 3.5-.725 1.08-.47 2.042-1.14 2.9-1.975.858-.835 1.474-1.773 1.8-2.825.27-.877.167-2.25-.275-4.125-.308-1.403-.808-3.107-1.5-5.125-1.222-3.55-2.372-6.524-3.475-8.9-.195-.385-.514-.644-.925-.8-.206-.078-.394-.13-.6-.125zm-2.25 5.15c.19-.002.323-.006.4.025 1.2.366 1.957.872 2.3 1.5.39 1.04.797 2.127 1.2 3.275.246 1.76-.1 2.918-1.025 3.45-.19.175-.72.427-1.625.75-1.425.517-2.658.454-3.675-.175-1.038-.69-1.776-1.88-2.225-3.575-.308-1.27-.163-2.364.425-3.3.656-1.072 1.81-1.707 3.475-1.9.304-.034.56-.05.75-.05zm-33.95.85c-.202-.017-.412.03-.625.1-.425.14-.73.384-.925.775-.196.39-.216.8-.075 1.225.14.425.41.753.8.95.39.196.8.216 1.225.075.426-.14.73-.41.925-.8.196-.39.216-.8.075-1.225-.14-.425-.402-.717-.8-.9-.192-.105-.398-.183-.6-.2zM114 24.775c-.367.02-.744.07-1.125.175-1.816.49-3.42 1.71-4.8 3.65l-.1-.325c-.14-.425-.416-.74-.8-.95-.384-.21-.775-.24-1.2-.1-.425.14-.765.39-.975.775-.21.384-.24.8-.1 1.225.544 1.707 1.347 4.037 2.375 7s1.72 4.977 2.075 6.05c.14.425.41.73.8.925.39.196.775.24 1.2.1.425-.14.754-.41.95-.8.196-.39.216-.8.075-1.225-.383-1.154-.935-2.77-1.65-4.825-.715-2.056-1.167-3.397-1.375-4.025.108-.148.29-.424.55-.825.26-.4.43-.654.525-.775.095-.12.262-.343.475-.65.213-.307.36-.522.475-.65l.5-.45c.203-.202.38-.374.55-.475.17-.1.377-.193.6-.3.223-.108.446-.197.675-.25.662-.175 1.27-.015 1.825.475.556.49 1.11 1.41 1.675 2.775.417 1.053.828 2.452 1.25 4.2.496 1.97.817 3.125.925 3.45.14.425.384.73.775.925.39.196.8.24 1.225.1.425-.14.754-.41.95-.8.197-.39.216-.8.075-1.225-.08-.244-.35-1.316-.825-3.225-.49-1.95-.968-3.493-1.425-4.6-.228-.62-.492-1.187-.775-1.7-.283-.513-.634-1.05-1.075-1.6-.44-.55-.923-.972-1.425-1.3-.502-.328-1.095-.574-1.8-.7-.352-.063-.708-.07-1.075-.05zm-31.475 4.05c-.204-.014-.412.03-.625.1-.425.14-.73.41-.925.8-.196.39-.216.8-.075 1.225 2.585 7.795 4.528 14.044 5.85 18.775.114.41.363.73.75.95.387.22.803.267 1.225.15.422-.117.73-.362.95-.75.22-.388.27-.793.15-1.225-.463-1.667-.916-3.307-1.4-4.9.034-.034.048-.07.075-.125l1.2-1.9c2.02 1.824 4.62 3.625 7.8 5.425.39.23.803.292 1.225.175.422-.117.73-.387.95-.775.22-.388.267-.778.15-1.2-.117-.422-.366-.74-.75-.95-3.16-1.807-5.722-3.626-7.675-5.45 1.346-2.244 2.367-4.022 3.05-5.35.183-.398.186-.807.025-1.225-.16-.42-.445-.706-.85-.875-.405-.17-.807-.186-1.225-.025-.418.16-.694.44-.85.85-.77 1.47-2.237 3.95-4.375 7.4-.845-2.686-1.934-6.032-3.25-10-.14-.426-.41-.73-.8-.925-.195-.098-.396-.16-.6-.175zm17.975.275c-.204-.014-.412.03-.625.1-.425.14-.728.41-.925.8-.196.39-.216.8-.075 1.225.322.97.96 3.02 1.95 6.175s1.756 5.495 2.3 7c.14.425.427.742.825.925.398.183.8.19 1.225.05.425-.14.742-.402.925-.8.183-.398.19-.825.05-1.25-.544-1.505-1.317-3.815-2.3-6.95-.983-3.135-1.628-5.204-1.95-6.175-.14-.426-.41-.73-.8-.925-.195-.098-.396-.16-.6-.175zm-26.075 8.75c-.556.035-1.087.144-1.575.3-.975.312-1.813.838-2.55 1.6-.737.76-1.347 1.597-1.8 2.5-.453.903-.8 1.926-1.05 3.1-.25 1.174-.334 2.323-.275 3.45.06 1.126.442 2.305 1.175 3.5.733 1.195 1.783 2.053 3.125 2.575.782.325 1.602.483 2.475.475.873-.008 1.683-.156 2.425-.425.743-.27 1.438-.63 2.1-1.075.77-.525 1.444-1.178 2.025-2l.05.1c.155.398.427.692.825.875.398.183.807.21 1.225.05.418-.16.717-.452.9-.85.183-.398.205-.802.05-1.2-.497-1.296-.94-2.54-1.3-3.725-.36-1.185-.8-2.415-1.325-3.725-.524-1.31-1.11-2.547-1.775-3.675-.168-.44-.457-.724-.875-.9-.007-.02-.088-.07-.25-.15l-.525-.275c-.182-.074-.404-.152-.65-.25s-.46-.173-.65-.2c-.624-.085-1.22-.11-1.775-.075zm.35 3.175c.272-.015.564 0 .85.05.075.02.14.036.2.05.06.014.106.044.15.075.044.03.13.078.225.125.094.047.187.09.275.15.895 1.546 1.793 3.69 2.7 6.425-.048.06-.098.12-.125.175-.182.263-.41.617-.675 1.075-.264.458-.427.755-.525.9-.098.145-.27.35-.475.575-.206.226-.448.418-.725.6-.64.437-1.303.723-2.025.85s-1.382.08-1.975-.15c-.99-.413-1.676-1.13-2.025-2.15-.35-1.02-.328-2.355.025-4 .36-1.626.99-2.873 1.9-3.725.682-.64 1.41-.98 2.225-1.025zM57.25 44.2c-.593-.026-1.196.015-1.8.125-1.27.24-2.378.706-3.35 1.4-.972.693-1.742 1.507-2.3 2.4-.558.893-.934 1.815-1.125 2.8-.19.985-.238 1.916-.125 2.8.194 1.06.438 1.904.7 2.525.262.62.63 1.226 1.1 1.8.47.574 1.105 1.116 1.9 1.65.795.534 1.837.893 3.125 1.05 1.288.157 2.682.044 4.2-.325 1.35-.335 2.36-.664 3-1 .64-.336 1.104-.64 1.425-.925.32-.287.612-.585.875-.875.304-.303.49-.675.55-1.1.06-.425-.03-.787-.3-1.125-.27-.338-.636-.557-1.075-.625-.44-.068-.813.03-1.15.3-.318.33-.608.613-.875.825-.267.212-.685.49-1.225.825-.317.195-.976.41-1.975.65-1.498.362-2.743.382-3.775.05s-1.825-.913-2.35-1.75l.1-.05c-.02-.06 1.79-.657 5.45-1.825l5.5-1.8c.283-.094.53-.252.725-.475.324-.242.53-.56.625-.95.095-.39.033-.768-.175-1.125-.068-.135-.19-.354-.375-.675-.185-.32-.31-.562-.4-.7-.09-.138-.25-.34-.45-.6-.2-.26-.404-.492-.65-.725-.246-.233-.533-.465-.85-.675-.964-.737-2.037-1.278-3.2-1.6-.582-.16-1.157-.25-1.75-.275zm-.7 3.175c1.266-.103 2.523.3 3.725 1.2.478.358.798.68 1 .95-5.136 1.658-8.29 2.695-9.45 3.125.002-1.214.39-2.318 1.125-3.325.734-1.007 1.76-1.64 3.075-1.875.182-.035.344-.06.525-.075zm-18.025 2.35c-.58.046-1.163.172-1.75.4-1.174.457-2.25 1.243-3.225 2.375l-.35.425c-.256-.364-.556-.636-.9-.825-.344-.19-.67-.25-.975-.15-.425.14-.73.41-.925.8-.196.39-.216.8-.075 1.225 2.9 8.748 4.958 15.134 6.2 19.15.14.426.416.74.8.95.384.21.8.24 1.225.1.425-.14.74-.39.95-.775.21-.384.24-.8.1-1.225-.584-1.896-1.196-3.785-1.8-5.675 1.706.536 3.456.32 5.225-.65 1.026-.565 1.866-1.25 2.525-2.075.66-.825 1.1-1.69 1.325-2.575.224-.884.33-1.745.325-2.575-.005-.83-.166-1.66-.475-2.525-.31-.864-.697-1.654-1.175-2.35-.64-.98-1.405-1.82-2.325-2.525-.92-.706-1.916-1.164-2.975-1.375-.573-.136-1.145-.17-1.725-.125zm-19.775.65c-1.457.024-2.878.262-4.25.75-1.95.692-3.408 1.72-4.375 3.075-1.17 1.624-1.32 3.406-.475 5.35.733 1.667 2.382 2.71 4.925 3.125.35.04.71.072 1.1.1.39.028.837.054 1.35.075.513.02.9.043 1.15.05l1.35.025c.688-.026 1.087-.044 1.175-.05 2.34.01 3.942.158 4.825.45.465.183.787.412.975.675.188.263.3.672.325 1.225-.015.634-.38 1.322-1.1 2.1-.72.778-1.676 1.46-2.875 2.05-1.2.588-2.275.908-3.25.95-.975.042-1.7-.138-2.15-.55-.196-.182-.37-.395-.525-.625-.155-.23-.33-.52-.55-.875-.22-.355-.453-.694-.675-1.025-.25-.344-.59-.542-1.025-.6-.435-.058-.832.03-1.2.275-.368.245-.587.588-.675 1-.088.412-.024.78.225 1.125.074.088.24.358.5.8.26.442.545.857.825 1.225.28.368.554.69.85.975.56.533 1.254.92 2.05 1.15.796.23 1.564.295 2.35.225.786-.07 1.598-.207 2.425-.425.827-.218 1.594-.516 2.275-.9.966-.477 1.836-1.062 2.65-1.725.814-.663 1.523-1.445 2.125-2.375.602-.93.93-1.874.95-2.825.05-2.355-1.036-3.914-3.275-4.7-1.214-.407-3.204-.64-5.95-.65-2.927-.018-4.795-.07-5.625-.2-1.397-.21-2.248-.69-2.55-1.4-.397-.857-.357-1.642.15-2.35.54-.808 1.454-1.42 2.75-1.85 1.39-.484 2.764-.655 4.1-.525 1.336.13 2.34.515 3 1.15l.025.125.075.2.05.15c.067.202.132.39.2.525.195.385.495.64.9.775s.828.11 1.25-.075c.422-.185.7-.478.85-.875.15-.398.15-.783-.025-1.175-.04-.054-.09-.15-.125-.25l-.125-.425c-.18-.48-.43-.866-.725-1.15-1.186-1.203-2.77-1.875-4.75-2.05-.495-.044-.99-.058-1.475-.05zm20.375 2.55c.158.01.315.04.475.075 1.248.238 2.35 1.06 3.3 2.5.956 1.46 1.325 2.885 1.1 4.275-.225 1.39-1.055 2.482-2.5 3.275-.837.458-1.633.636-2.375.5s-1.538-.573-2.4-1.275c-.1-.102-.24-.182-.375-.25L34.7 57.05l.225-.675c.04-.215.076-.36.1-.425.024-.064.06-.144.1-.225.06-.155.355-.525.875-1.125.988-1.173 2.02-1.737 3.125-1.675z" font-size="40" letter-spacing="0" word-spacing="0" font-family="Sans"/><path d="M124.177 178.008c-2.058-.634-15.992-8.016-36.543-19.36-11.596-6.4-12.306-6.88-13.09-8.84-.382-.954-1.495-8.942-2.906-20.86-1.258-10.62-3.217-27.094-4.354-36.607-2.248-18.81-2.246-18.55-.164-20.46 1.224-1.12 54.537-19.46 57.523-19.79 2.473-.27 1.403-.6 37.023 11.63l19.776 6.79 2.733-1.78c12.834-8.38 29.692-11.26 44.414-7.58 26.81 6.69 45.09 32.13 42.6 59.31-1.24 13.57-6.27 24.72-15.46 34.28-5.85 6.09-13.27 11.02-20.96 13.93-11.29 4.27-25.84 4.55-37.42.72-8.11-2.69-16.81-8.09-22.54-13.99-.94-.96-1.84-1.75-2.02-1.75-.17 0-5.41 2.81-11.63 6.23-6.22 3.43-14.91 8.16-19.31 10.53-14.2 7.63-15.68 8.27-17.71 7.64zm9.48-10.847c6.917-3.65 36.546-19.84 36.826-20.12.05-.05.708-5.57 1.463-12.27.756-6.7 2.572-22.03 4.037-34.07 1.464-12.04 2.702-22.38 2.75-22.97l.088-1.08-26-8.91c-14.3-4.9-26.58-8.91-27.28-8.91-.7 0-8.28 2.38-16.83 5.29-17.63 6-36.32 12.49-36.48 12.68-.06.07 1.76 15.71 4.03 34.77 2.27 19.06 4.14 34.83 4.14 35.06.01.23 6.14 3.77 13.62 7.88 13.95 7.65 31.02 16.92 31.27 16.99.08.02 3.85-1.92 8.38-4.31zm93.137-3.02c9.63-2.52 17.057-6.81 23.66-13.67 5.704-5.92 9.11-11.4 11.685-18.8 2.05-5.91 2.67-10.45 2.41-17.77-.24-6.8-.75-9.56-2.73-14.85-6.27-16.73-20.33-28.68-37.75-32.08-4.97-.96-13.61-.88-18.69.19-8.16 1.72-18.5 6.66-19.51 9.32-.37.96-3.51 26.26-6.69 53.93l-2.04 17.71 2.16 2.23c5.84 6.01 13.68 10.79 21.59 13.17 5.22 1.58 8 1.9 15.22 1.77 5.92-.11 7.37-.26 10.66-1.12z"/><path d="M92.192 141.154c25.496-55.906 33.124-72.248 33.513-71.797.226.263 14.43 31.033 30.37 65.79l4.89 10.66-5.524.107c-3.03.058-5.7.036-5.92-.05-.22-.085-2.11-3.945-4.2-8.578l-3.8-8.423-15.94.096-15.94.09-3.87 8.37-3.87 8.37-5.96.1-5.95.1 2.22-4.86zm43.67-23.996c-.094-.157-2.346-5.17-5.005-11.137-2.658-5.96-4.964-10.98-5.125-11.15-.243-.25-10.304 21.55-10.304 22.33 0 .14 4.636.26 10.302.26 5.667 0 10.226-.13 10.132-.28zm76.848 28.59c-8.81-1.89-16.835-8.18-20.75-16.267-2.238-4.62-3.05-8.26-3.047-13.64.003-5.02 1-9.26 3.29-13.98 1.492-3.08 2.266-4.11 5.41-7.27 6.524-6.54 12.82-9.13 22.258-9.15 7.19-.01 12.94 2.04 18.85 6.71 1.72 1.36 3.12 2.6 3.12 2.76 0 .16-1.5 1.79-3.34 3.62l-3.34 3.33-3.73-2.46c-4.3-2.84-6.46-3.62-10.73-3.9-5.97-.39-10.48 1.36-14.83 5.76-4.12 4.18-5.9 8.6-5.9 14.68.01 4.72.86 7.55 3.48 11.47 1.88 2.82 4.65 5.26 7.62 6.73 3.04 1.5 5.12 1.98 8.57 1.99 3.61.02 6.63-.97 11.53-3.78l3.97-2.27.99.72c.55.39 2.09 1.84 3.45 3.21l2.46 2.5-.93 1c-3.22 3.44-10.31 7.3-15.29 8.32-3.62.74-9.51.725-13.05-.033z"/></g></svg>