<svg xmlns="http://www.w3.org/2000/svg" viewBox="0 0 355 355"><path d="M167.404 0L0 58.914l26.454 219.328L167.58 355.81l141.858-78.62L335.88 57.87 167.405 0z" fill="#b3b3b3"/><path d="M319.184 70.546l-152.17-51.89v318.62L294.54 266.7l24.645-196.154z" fill="#82cf8f"/><path d="M18.784 71.484l22.67 196.152 125.557 69.64V18.65L18.79 71.483z" fill="#9fe3ab"/><path d="M202.284 177.133l-34.994-73.08-30.807 73.08h65.8zm13.344 30.728h-92.764l-20.753 51.91-38.6.72L167.02 30.23l107.112 230.26h-35.78l-22.72-52.623z" fill="#f2f2f2"/><path d="M167.014 30.225l.275 73.828 34.96 73.136h-35.16l-.08 30.62 48.61.04 22.72 52.63 36.93.68L167 30.21z" fill="#fff"/></svg>