<svg xmlns="http://www.w3.org/2000/svg" width="800" height="800" viewBox="0 0 600 600"><path fill="#020202" d="M316.4 37.41c3.95-1.29 8.21-.52 11.8 1.41 3.52 1.97 7.91 1.43 11.19 3.9 3.71 2.56 7.71 4.76 12.18 5.65 7.19 1.33 12.43 6.81 18.26 10.77 5.1 3.16 11.05 4.7 16.09 7.96 2.77 2.61 5.85 4.83 8.98 6.99 6.71 5.73 14.21 10.9 22.79 13.34 1.54.62 2.89 1.62 4.31 2.48 5.42 3.56 11.6 5.68 17.16 8.99 7.84 3.17 16.35 5.42 22.95 10.97 3.26 2.83 7.21 4.7 10.57 7.41 3.22 2.37 3.94 6.58 6.35 9.61.93 1.59 2.73 3.03 2.24 5.09-.55 6.01-1.64 11.95-2.72 17.89-1.59 7.34-5.98 13.58-10.26 19.58-4.55 8.99-9.55 17.93-16.62 25.21-4.07 3.37-8.07 6.83-12.06 10.3-9.79-1.15-17.99-7.59-27.5-9.92-3-2.37-5.7-5.1-8.88-7.23-4.2-2.84-8.96-4.68-13.59-6.66-3.83-3.79-8.8-6.36-11.93-10.86-2.22-3.71-6.53-5.01-10.23-6.73-4.17-1.71-8.02-4.07-11.98-6.21-5.39-2.93-11.43-4.3-16.99-6.86-3.32-1.25-6.66-2.88-10.26-3.04-5.23.69-10.24 2.56-15.46 3.35-3.71.44-7.41-.46-11.12-.13-3.46.27-6.94.14-10.32-.65-1.83-1.07-3.6-3.56-5.98-2.62-3.89 1.68-7.19 4.46-10.6 6.94-3.91 3.57-8.84 5.64-13.14 8.68-10.81 5.43-16.77 16.42-24.24 25.39-4.07 5.23-9.04 9.69-14.33 13.64-3.04 2.4-5.04 5.84-8.07 8.26-1.02-7.55 3.67-14.66 1.77-22.23-1.86-7.13-4.25-14.55-9.3-20.11.46-.1 1.37-.32 1.83-.42 1.75-7.8 5.65-14.88 9.01-22.06 1.99-4.41 3.21-9.17 5.8-13.3 3.37-5.39 6.69-10.97 8.09-17.25 1.63-8.7 5.36-17.01 10.66-24.09 2.77-4.01 3.78-9.13 7.5-12.49 3.01-3.62 8.33-4.04 11.18-7.82 2.46-3.08 3.28-7.14 5.87-10.14 2.5-2.87 5.32-5.54 8.71-7.33 9.34-4.12 17.09-11.72 27.47-13.42 4.33-.37 8.67-.9 12.82-2.24z"/><path fill="#52443d" d="M274.77 154.34c3.41-2.48 6.71-5.26 10.6-6.94 2.38-.94 4.15 1.55 5.98 2.62-3.2.13-7.17-.94-9.61 1.74-2.91 2.29-1.94 7.32-5.79 8.63-.68-1.95-1.12-3.98-1.18-6.05z"/><path fill="#f7bead" d="M312.79 150.8c5.22-.79 10.23-2.66 15.46-3.35 3.6.16 6.94 1.79 10.26 3.04 5.56 2.56 11.6 3.93 16.99 6.86 3.96 2.14 7.81 4.5 11.98 6.21 3.7 1.72 8.01 3.02 10.23 6.73 3.13 4.5 8.1 7.07 11.93 10.86 2.43 4.14 5.76 7.98 10.23 9.95 3.94 1.71 8.06 2.98 12.24 3.94 9.51 2.33 17.71 8.77 27.5 9.92-5.65 3.61-5.39 10.97-8.25 16.39-3.13 6.21-4.86 13-7.85 19.27-5.21 9.48-9.97 19.26-13.31 29.57-.59 2.1-2.02 3.77-3.88 4.87-1.84-3.98.05-8.33-.99-12.45-.58-2.62-1.08-5.92-3.85-7.12-5.37-2.4-9.47-6.94-14.99-9.04-2.4-.91-4.72-2.12-7.23-2.66-1.32.38-2.58.92-3.85 1.41-.55-1.75-1.06-3.5-1.55-5.25-2.6 2.83-6.05 4.56-9.14 6.75-1.73 2.49-3.11 5.29-5.59 7.17-7.81 5.84-10.06 15.91-11.31 25.03.71-1.28 1.42-2.57 2.16-3.84 1.44 1.78 2.84 3.6 4.32 5.36.14-.45.43-1.35.57-1.8 1.33-2.92 3.86-4.81 7.09-5.06 3.48 3.37 6.52 7.25 10.41 10.17 3.25 2.52 7.59 2.32 11.49 2.31.74 1.14 1.47 2.3 2.22 3.45 1.31-.21 2.63-.42 3.95-.62.84-3.99 1.33-8.24.24-12.21-2.52-6.26-8.7-9.63-14.36-12.57-3.98-2.48-8.49-4.02-13.17-4.34.11-1.51.24-3.02.38-4.52 2.88-.26 5.78-.51 8.66-.14 6.65 2.19 12.58 5.96 18.43 9.72 6.09 4.02 10.92 9.76 14.49 16.08-5.68 6.11-11.5 12.47-14.56 20.36-4.2 9.96-8.17 20.26-15.13 28.7-4.31 5.1-7.54 11.02-12.09 15.92-6.21 6.8-10.72 15.22-18.29 20.71-5.65 3.98-10.18 9.32-16.02 13.03-7.39 4.88-15.21 9.07-22.9 13.46-1.76.1-3.53.13-5.29.09-.03-.32-.09-.96-.11-1.28-.03-.46-.07-1.38-.09-1.84-4.85 1.45-10.73.99-14.59 4.71-9.65.84-19.37.76-29.03.11-.84-2.69-1.7-5.51-3.62-7.65-1.57-1.18-3.51-1.73-5.27-2.56.43-1.25.86-2.5 1.31-3.75-.4-.8-.8-1.6-1.2-2.39.71-1.64 1.36-3.31 1.98-4.98-3.45 1.36-6.05 4.05-8.28 6.91-.78-.28-2.33-.83-3.11-1.1-1.94-.72-3.86-1.46-5.84-2.02.58-2.12 1.22-4.21 1.96-6.27-3.06.97-6.05 2.13-8.98 3.42-.66-1.54-1.23-3.1-1.74-4.69 1.47-.5 2.93-1.05 4.35-1.72 1.14-1.09 2.24-2.22 3.35-3.34-3.77-2.37-7.92-4.34-10.69-7.97-.58.85-1.15 1.71-1.72 2.57-2.3 2.97.76 6.56.89 9.83-2.53-.78-3.78-3.19-4.76-5.44-1.31-3.77-4.27-6.85-8.39-7.28.81 2.32 1.7 4.62 2.76 6.85 1.23 1.85 1.36 3.97.13 5.85 3.21 3.17 2.99 7.78 3.6 11.92 1.33 1.01 2.5.06 3.58-.76 3.25 3.23 5.54 7.33 5.74 12 4.92.35 8.98 3.58 11.5 7.64 3.41 2.5 6.79 5.12 10.56 7.1-.17 3.13.85 6.51 4.3 7.27 1.04-.4 2.08-.8 3.12-1.22 1.51-.07 3.03-.06 4.54-.07.45 1.09.88 2.2 1.3 3.31l.4 2.01c-.76.48-1.51.97-2.26 1.46 2.67-.19 5.34-.39 8.02-.57-.62 2.61-1.38 5.18-2.18 7.75 2.57-.59 5.17-1.02 7.81-1.15-.98 4.35-2.33 8.69-4.96 12.36-1.14 1.44-2.27 2.88-3.38 4.34-1.36 1.12-2.8 2.14-4.37 2.95-3.29-1.41-6.79-2.2-10.2-3.25-16.72-5.04-32.91-12.02-47.72-21.3-7.71-4.5-14.8-10.36-23.38-13.18l-3.14-.28c-.01.66-.05 1.98-.07 2.63-2.03-14.45-6.12-28.52-8.98-42.82-2.28-9.12-5.24-18.06-7.82-27.1-1.1-3.37-1.71-7.13-4.32-9.72 1.8-2.82 3.93-5.39 6.18-7.85 3.58-3.96 5.89-8.81 8.67-13.32 2.47-4.12 6.36-7.29 8.16-11.82 3.38-8.32 3.78-17.41 5.96-26.04 1.09-5.94 3.6-11.95 2.28-18.06-1.4-6.6-7.66-11.3-7.7-18.29-.23-14.39.36-28.77 1.1-43.14.21-7.27 1.69-14.84 6.14-20.76 2.58-2.75 6.32-3.98 9.79-5.2 5.17-1.89 10.59.18 15.46 2 5.05 5.56 7.44 12.98 9.3 20.11 1.9 7.57-2.79 14.68-1.77 22.23 3.03-2.42 5.03-5.86 8.07-8.26 5.29-3.95 10.26-8.41 14.33-13.64 7.47-8.97 13.43-19.96 24.24-25.39 4.98 1.03 9.98-.12 14.32-2.63 3.85-1.31 2.88-6.34 5.79-8.63 2.44-2.68 6.41-1.61 9.61-1.74 3.38.79 6.86.92 10.32.65 3.71-.33 7.41.57 11.12.13z"/><path fill="#211d1d" d="M261.63 163.02c4.3-3.04 9.23-5.11 13.14-8.68.06 2.07.5 4.1 1.18 6.05-4.34 2.51-9.34 3.66-14.32 2.63z"/><path fill="#0b0207" d="M184.37 174.4c2.69-3.03 7.45-3.37 10.95-1.62 6.16 2.9 11.78 7.73 14.29 14.2-1.61 1.36-3.39 2.5-5.38 3.23.5-2.43 2.21-4.98 1.03-7.47-2-4.36-6.68-6.51-10.97-8.01-3.3-1.12-7.89-.32-9.34 3.23-1.3 3.3-1.59 6.88-2.64 10.26-.18-4.64-.86-9.82 2.06-13.82z"/><path fill="#3c302a" d="M389.64 181.15c4.63 1.98 9.39 3.82 13.59 6.66 3.18 2.13 5.88 4.86 8.88 7.23-4.18-.96-8.3-2.23-12.24-3.94-4.47-1.97-7.8-5.81-10.23-9.95z"/><path fill="#060403" d="M264.58 194.25c3.57-5.06 9.47-8.73 15.72-8.99.17.51.5 1.52.67 2.02 2.32-.27 4.68-.7 7.01-.19-1.31 1.29-2.62 2.58-3.94 3.86.33.43.99 1.29 1.32 1.73-6.85 1.18-13.87.93-20.78 1.57z"/><path fill="#4a3231" d="M193.31 186.14c1.75.58-.71 3.47-2 2.76-.59-1.23.91-2.5 2-2.76z"/><path fill="#060607" d="M287.98 187.09c5.22 1.24 10.25 3.09 15.47 4.39 2.49.55 4.41 2.25 6.47 3.64 3.21 1.54 7.23 1.41 9.91 4 2.9 2.84 6.46 4.95 8.98 8.16 2.61 3.01 5.71 5.53 8.62 8.23 2.76 2.53 2.23 6.55 2.17 9.91-3.61.51-6.72-1.45-9.09-3.97-3.2-3.25-7.44-5.11-10.95-7.97-9.5-7.94-20.29-14.88-32.58-17.36-.27-1.27-.72-2.49-1.62-3.44-.33-.44-.99-1.3-1.32-1.73 1.32-1.28 2.63-2.57 3.94-3.86z"/><path fill="#080303" d="M183.89 195.36c2.03-1.96 4.12-3.9 6.48-5.47-3 4.86-8.28 8.34-9.65 14.17-1.58 6.84 2.12 13.33 2.21 20.12-3.84-3.19-4.28-8.52-4.11-13.17.31-5.6 1.52-11.09 2.25-16.64.94.34 1.87.67 2.82.99z"/><path fill="#845e4f" d="M211.3 197.57c1.51.09 1.42 3.8-.09 3.87-.83-1.06-.76-2.84.09-3.87z"/><path fill="#030404" d="M190.57 202.69c4.73-1.38 9.6-2.7 14.57-2.5-.52 4.93-5.87 6.07-9.73 7.45.18-1.26.33-2.53.45-3.8-3.59-.33-6.53 2.87-6.79 6.29-.83 5.18 2.19 10.63 6.93 12.8 1.36-2.33 2.55-4.75 3.87-7.11-.53 5.82-1.2 11.63-2.41 17.35-2.35-2.82-3.04-6.53-4.97-9.59-2.16-3.82-5.51-7-6.7-11.31-1.29-3.77.8-8.54 4.78-9.58z"/><path fill="#57463f" d="M276.66 209.53c2-.4 4.05-.57 6.1-.65-.3.96-.59 1.91-.87 2.87-1.85.08-3.7.19-5.55.3l.32-2.52z"/><path fill="#050505" d="M260.85 210.62c5.25-.63 10.58-.19 15.81-1.09l-.32 2.52c1.85-.11 3.7-.22 5.55-.3 6.15.3 12.58-1.32 18.53.66-.48 1.21-.47 2.59.73 3.37 2.45 2.23 5.34 3.91 8 5.89 1.13.71 1.84 1.89 2.26 3.14 1.55 5.09 3.2 10.16 4.28 15.38-7.28-3-14.91-5.14-21.97-8.66 1.52-.27 3.02-.61 4.55-.89 4.31.86 8.43 2.48 12.75 3.31-.92-4.1-3.47-7.49-5.96-10.75-3.22 1.88-6.38 3.86-9.62 5.72-.49-.3-1.49-.9-1.99-1.19-2.12-1.42-4.7-1.9-6.84-3.26-2.12-2.83-4.03-6-7.19-7.8-5.82-3.1-12.71-3.06-18.57-6.05z"/><path fill="#28221e" d="M301.15 215.78c-1.2-.78-1.21-2.16-.73-3.37 6.16 2.84 14.14 5.58 16.07 12.89-2.5-1.3-4.84-2.87-6.99-4.68-.09.26-.26.78-.35 1.05-2.66-1.98-5.55-3.66-8-5.89z"/><path fill="#fff" d="M295.44 228.92c3.24-1.86 6.4-3.84 9.62-5.72 2.49 3.26 5.04 6.65 5.96 10.75-4.32-.83-8.44-2.45-12.75-3.31-.96-.56-1.89-1.15-2.83-1.72z"/><path fill="#0a0301" d="M204.94 242.32c.81-5.19 2.32-10.58 6-14.5-.64 5.14-1.53 11.23-6 14.5z"/><path fill="#5c4e48" d="M293.45 227.73c.5.29 1.5.89 1.99 1.19.94.57 1.87 1.16 2.83 1.72-1.53.28-3.03.62-4.55.89-.41-.05-1.22-.16-1.62-.21.44-1.2.9-2.4 1.35-3.59z"/><path fill="#040302" d="M278.8 232.94c4.65 1.07 8.84 3.44 13.35 4.91 6.63 2.46 14.21 2.56 20 7.03-5.43-.15-10.67-1.77-15.88-3.16-6.2-1.95-12.79-4.02-17.47-8.78z"/><path fill="#845a4c" d="M367.14 239.63c1.42-.29 1.61 2.15.62 2.77-1.42.27-1.64-2.17-.62-2.77z"/><path fill="#40322b" d="M364.72 246.7c3.09-2.19 6.54-3.92 9.14-6.75.49 1.75 1 3.5 1.55 5.25-3.19 1.28-6.54 2.07-9.9 2.71-.13 1.26-.23 2.52-.35 3.79 2.15 1.24 4.32 2.44 6.62 3.39-2.88-.37-5.78-.12-8.66.14-.14 1.5-.27 3.01-.38 4.52-1.12-.12-2.24-.23-3.36-.33-.09-1.85-.18-3.7-.25-5.55 2.48-1.88 3.86-4.68 5.59-7.17z"/><path fill="#050405" d="M379.26 243.79c2.51.54 4.83 1.75 7.23 2.66 5.52 2.1 9.62 6.64 14.99 9.04 2.77 1.2 3.27 4.5 3.85 7.12 1.04 4.12-.85 8.47.99 12.45-.47 1.96-.96 3.92-1.62 5.83-3.57-6.32-8.4-12.06-14.49-16.08-5.85-3.76-11.78-7.53-18.43-9.72-2.3-.95-4.47-2.15-6.62-3.39.12-1.27.22-2.53.35-3.79 3.36-.64 6.71-1.43 9.9-2.71 1.27-.49 2.53-1.03 3.85-1.41z"/><path fill="#050505" d="M347.82 278.9c1.25-9.12 3.5-19.19 11.31-25.03.07 1.85.16 3.7.25 5.55 1.12.1 2.24.21 3.36.33 4.68.32 9.19 1.86 13.17 4.34 5.66 2.94 11.84 6.31 14.36 12.57 1.09 3.97.6 8.22-.24 12.21-1.32.2-2.64.41-3.95.62-.75-1.15-1.48-2.31-2.22-3.45-3.9.01-8.24.21-11.49-2.31-3.89-2.92-6.93-6.8-10.41-10.17-2.36-1.78-5.3-2.49-8.18-1.75.38 2.27.79 4.53 1.09 6.81-.14.45-.43 1.35-.57 1.8-1.48-1.76-2.88-3.58-4.32-5.36-.74 1.27-1.45 2.56-2.16 3.84z"/><path fill="#583c35" d="M187.65 256.19c1.71-.72 3.41 3.23 1.47 3.76-1.4-.43-2.17-2.52-1.47-3.76z"/><path fill="#784d43" d="M197.17 260.06c1.51-.82 2.27 1.58.64 1.9-1.52.82-2.28-1.59-.64-1.9z"/><path fill="#4a3231" d="M207.69 267.13c.79-.83 2.74-.8 3.06.48-.19 1.67-3.77 1.22-3.06-.48z"/><path fill="#060102" d="M207.63 273.81c5.23-2.05 11.04-2.01 16.56-2.67-5.01 2.58-10.55 4.18-16.16 4.78-.1-.52-.3-1.58-.4-2.11z"/><path fill="#4a3231" d="M353.78 271.81c2.88-.74 5.82-.03 8.18 1.75-3.23.25-5.76 2.14-7.09 5.06-.3-2.28-.71-4.54-1.09-6.81z"/><path fill="#050204" d="M341.28 272.15l2.31.08c.3 7.92-.56 15.8-.87 23.7-.65 5.92-3.16 12.39-8.73 15.28 1.59-3.66 4.27-7.04 4.17-11.21.91-9.29 1.15-18.7 3.12-27.85z"/><path fill="#fefefe" d="M371.16 278.41c2.7-1.42 5.33-3.36 8.51-3.39.22 1.86.42 3.73.51 5.61-3.01.26-6.36.83-9.11-.77.03-.36.07-1.09.09-1.45z"/><path fill="#383638" d="M387.02 278.56c1.49 1.53 1.95 3.6 2.2 5.66-3.24.14-1.93-3.63-2.2-5.66z"/><path fill="#4a3231" d="M213.47 280.16c3.35.02-2.46 4.46-3.14 2.15.51-1.24 1.94-1.78 3.14-2.15z"/><path fill="#40322b" d="M214.77 287.53c2.48-.44 4.99-.61 7.5-.38-2.26 1.52-5.1 1.73-7.5.38z"/><path fill="#020202" d="M185.48 287.64c2.87 7.56 2.32 15.9 4.36 23.69-2.97-.54-4.15-3.71-4.56-6.35-.15-5.78-.15-11.57.2-17.34z"/><path fill="#060404" d="M298.27 304.81c-3.47-4.45-8.71-10.02-5.72-16.03.66 3.35 1.04 6.92 3.43 9.58 3.62.2 7.51-.86 10.89.84 3.83 1.71 7.14 4.8 8.57 8.8-3.95-2.15-7.32-5.49-11.74-6.66-2.51-.74-3.83 2.11-5.43 3.47z"/><path fill="#0a0301" d="M209.92 291.37c1.86 1 4.46 1.27 5.35 3.45-.74-.02-2.21-.07-2.94-.09-.79-1.13-1.59-2.25-2.41-3.36z"/><path fill="#6b443d" d="M223.13 293.2c.93-.62 3.28.13 2.33 1.48-1.14 1.61-4.96-.2-2.33-1.48z"/><path fill="#4a3231" d="M201.21 295.23c1.25-.69 3.56 1.13 1.62 1.96-1.98 1.28-5.09-1.53-1.62-1.96zm14.96 2.98c1.59-.01 1.63 2.77.04 2.81-1.55-.07-1.6-2.73-.04-2.81zm46.59 2.59c2.65-1 5.47-1.35 8.29-1.32-2.54 1.36-5.47 1.55-8.29 1.32z"/><path fill="#0e0603" d="M195.52 301.94c.58 4.04.74 8.28-.8 12.14-.08-4.06.14-8.13.8-12.14zm53.05 1.39c3.45-.54 7.43-.59 9.79 2.44-3.25-.66-7.18-.08-9.79-2.44z"/><path fill="#0a0301" d="M227.22 303.97c1.88.22 3.76.47 5.6.96-1.79.83-3.66 1.5-5.53 2.13-.02-.78-.05-2.32-.07-3.09z"/><path fill="#744c44" d="M206.45 307.23c1.24-.67 2.65.3 3.89.57 1.41.05 1.24 1.7-.17 1.41-1.26-.04-3.74-.38-3.72-1.98z"/><path fill="#0a0301" d="M242.64 309.66c1.93-1.4 4.41-1.54 6.65-2.16-2.44 3.32-5.99 5.45-9.91 6.58 1.08-1.48 2.08-3.02 3.26-4.42z"/><path fill="#6c463e" d="M283.31 307.32c1.21-.76 2.46 1.3 1.54 2.21-1.19.74-2.45-1.32-1.54-2.21z"/><path fill="#4a3231" d="M260.71 311.05c2.01-1.91 4.72-2.69 7.42-3-1.97 1.98-4.74 2.64-7.42 3z"/><path fill="#0e0603" d="M272.37 311.55c1.09-.33 2.03 1.33.56 1.54-1.45.26-3.14.42-4.45-.34.37-1.36 2.73-.89 3.89-1.2z"/><path fill="#4c413e" d="M305.79 318.07c-.31-2.96 1.03-5.52 3.26-7.38.91 2 1.36 4.15 1.2 6.35l-1.97.48c-.84.18-1.66.37-2.49.55z"/><path fill="#4a3231" d="M198.09 313.66c1.41 2.6 1.7 5.62 1.69 8.54-1.38-2.62-1.84-5.61-1.69-8.54z"/><path fill="#050305" d="M319.29 316.57c6.59-.82 13.26-1.41 19.92-1.37-2.62 3.03-6.81 3.2-10.21 4.88-3.67.23-7.2-1-10.68-1.93.24-.4.72-1.18.97-1.58z"/><path fill="#050200" d="M305.79 318.07c.83-.18 1.65-.37 2.49-.55-2.12 3.84-2.51 9.07-6.2 11.77-.6-4.17 1.04-8.1 3.71-11.22z"/><path fill="#050300" d="M186.15 317.52c.84 1.13 1.49 2.38 1.98 3.7.63 1.6 1.58 3.04 2.52 4.48 1.23 1.91 1.25 4.66-.6 6.21-3.3-3.99-4.36-9.32-3.9-14.39z"/><path fill="#513f37" d="M188.13 321.22c1.38-.71 2.74-1.46 4.1-2.21 1.45 2.44 1.04 5.24-1.58 6.69-.94-1.44-1.89-2.88-2.52-4.48z"/><path fill="#0e0603" d="M220.71 321c.84.66 1.68 1.34 2.5 2.04 1.26-.18 2.51-.36 3.77-.55-.07.62-.22 1.87-.3 2.49-2.14-1.05-5.22-1.3-5.97-3.98z"/><path fill="#050403" d="M251.42 321.15c8.52-1.18 15.08 5.53 21.78 9.65 11.43 6.47 23.13 12.54 35.24 17.64 4.36.91 8.24 3.06 11.88 5.56.66 2.07 1.35 4.13 2.08 6.19-3.37 1.24-7.48-.16-9.24-3.32-2.31-3.52-6.2-5.37-9.79-7.27-14.4-7.41-28.99-14.57-42.49-23.56-2.81-2.04-6.38-1.7-9.64-2.06.05-.71.13-2.13.18-2.83z"/><path fill="#83584c" d="M285.13 322.39c1.16-.72 2.54 1.23 1.62 2.17-1.17.7-2.56-1.23-1.62-2.17z"/><path fill="#633d37" d="M247.16 323.39c1.39-.43 1.89.06 1.49 1.47-1.4.42-1.9-.07-1.49-1.47z"/><path fill="#0e0603" d="M324.08 323.34c.56.4 1.12.81 1.68 1.23 2.03.89 2.49 2.67 2.04 4.7-1.21.57-2.38 1.2-3.53 1.88l-1.17-1.62c.31-2.07.64-4.14.98-6.19z"/><path fill="#73463f" d="M220.16 327.22c1.41-.5 1.88-.04 1.41 1.37-1.41.5-1.88.04-1.41-1.37z"/><path fill="#0e0603" d="M232.66 331.86c1.4-.75 2.86-1.35 4.36-1.85-.35 1.01-.72 2.02-1.1 3.03-1.09-.38-2.18-.78-3.26-1.18z"/><path fill="#030303" d="M151.42 330.45c2.61 2.59 3.22 6.35 4.32 9.72 2.58 9.04 5.54 17.98 7.82 27.1 2.86 14.3 6.95 28.37 8.98 42.82 2.77 16.32 6.14 32.56 8.39 48.97.87 5.12 1.12 10.37 2.57 15.37.89 3.1 3.65 5.1 5.08 7.89.69 2.64.1 5.52 1.11 8.07 3.02 4.26 9.03 5.86 10.96 11.01 1.17 4.97-1.74 9.74-5.09 13.16-2.4 1.94-5.64 2.28-8.46 3.33 4.24 9.61 9.22 19.2 10.04 29.87.49 4.2.43 10.07 5.35 11.63 5.1 1.25 10.37 1.7 15.34 3.53 8.72 1.62 17.13 5.61 26.18 4.81 7.38-.53 14.63 1.29 22 1.34 7.43.44 14.91.45 22.32-.23.83-3.11 1.35-6.5 3.5-9.03 1.26-1.8 3.14-3.47 3.12-5.84.48-5.31.65-10.64.88-15.96.53-8.03-2.58-15.65-4.93-23.17-3.29-6.68-6.34-13.49-9.2-20.37-3.78-9.96-5.9-20.61-11.22-29.93-3.91-6.96-5.52-14.9-9.06-22.02 1.11-1.46 2.24-2.9 3.38-4.34 2.18 4.13 3.04 8.76 4.87 13.03 7.15 17.05 14.16 34.17 20.46 51.55 3.61 8.36 6 17.18 9.57 25.55 1.4 4.55 6.5 6.24 8.43 10.49.99 2.41 3.42 3.13 5.79 3.52 2.37 3.92 4.67 8.1 4.68 12.84-.07 7.08.06 14.33-2.13 21.16-2.29 7.75-1.24 16.09-4.2 23.68H139.18c6.94-1.61 14.23.08 21.11-1.82 2.22-.46 2.29-3.14 2.85-4.9 1.97-9.93 2.16-20.12 4.02-30.07 3.45-1.12 7.02-1.84 10.53-2.75.97-2.35-.37-5.08-.33-7.58-1.32-21.62-2.84-43.31-6.93-64.61-.71-3.79-2.25-7.4-2.44-11.28-.55-9.07-4.05-17.57-6.88-26.09-2.12-7.05-5.59-13.61-7.36-20.77-4.43-16.02-8.42-32.16-12.83-48.19-2.98-11.29-7.17-22.3-9.09-33.85 5.25-4.47 9.49-10.07 15.21-14 1.54-1.11 3.08-2.25 4.38-3.64z"/><path fill="#4a3231" d="M164.38 330.68c1.29 6.37.42 12.95.31 19.4-.28 1.66.39 3.86-1.18 5.02-.23-8.15.67-16.28.87-24.42z"/><path fill="#654039" d="M241.1 331.29c.8-1.25 3.47-.24 2.26 1.21-.79 1.34-3.48.24-2.26-1.21z"/><path fill="#514537" d="M191.72 333.16c1.86-.25 3.73-.49 5.59-.74.01 1.39-.06 2.78-.15 4.17-.46 2.37 1.04 4.41 2.02 6.44-1.91-.84-3.83-1.66-5.77-2.41.21-1.13.4-2.26.63-3.38-.8-1.35-1.57-2.7-2.32-4.08z"/><path fill="#0c0a08" d="M224.74 332.72c2.39 1.19 4.54 2.81 7 3.86-.39 1.2-.77 2.4-1.13 3.61-2.77-1.71-5.21-4.16-5.87-7.47z"/><path fill="#97665b" d="M294.16 334.52c1.2-.7 3.08 1.07 2.42 2.31-1.23.71-3.14-1.06-2.42-2.31z"/><path fill="#060202" d="M199.18 343.03c-.98-2.03-2.48-4.07-2.02-6.44 4.2 2.13 5.49 7.21 4.05 11.46-3.53-1.33-6.16-4.08-7.8-7.43 1.94.75 3.86 1.57 5.77 2.41z"/><path fill="#40322b" d="M235.81 336.76c1.72.77 3.2 1.96 4.4 3.43-2.05-.34-4.25-.98-4.4-3.43z"/><path fill="#3c302a" d="M271.71 339.2c4.57 2.27 8.96 5.47 11.51 10-4.7-2.09-8.71-5.71-11.51-10z"/><path fill="#050300" d="M214.42 340.03c3.65 1.54 7.95 2.5 9.93 6.35-1.07.09-2.14.15-3.21.19-2.62-.75-5.2-1.65-7.92-1.97.82-.53 1.64-1.07 2.46-1.61-.42-.99-.84-1.98-1.26-2.96z"/><path fill="#030301" d="M335.3 340.84c4.7 6.42 4.8 14.8 4.45 22.41-.74-2.1-1.39-4.23-2.15-6.31-1.2 1.33-2.3 2.75-3.46 4.12l-.32-2.05c-.18-1.08-.33-2.17-.55-3.24 4.22-2.67 2.76-7.81 2.3-11.91-.07-.76-.2-2.26-.27-3.02z"/><path fill="#6d5954" d="M224.35 346.38l.58-.05c-.48 2.33-.84 4.69-1.2 7.04l-.64-.47c-1.33-1.82-2.15-4.05-1.95-6.33 1.07-.04 2.14-.1 3.21-.19z"/><path d="M122.82 354.82c3.12-2.09 5.19-5.77 9.01-6.73 1.92 11.55 6.11 22.56 9.09 33.85 4.41 16.03 8.4 32.17 12.83 48.19 1.77 7.16 5.24 13.72 7.36 20.77 2.83 8.52 6.33 17.02 6.88 26.09.19 3.88 1.73 7.49 2.44 11.28 4.09 21.3 5.61 42.99 6.93 64.61-.04 2.5 1.3 5.23.33 7.58-3.51.91-7.08 1.63-10.53 2.75-1.86 9.95-2.05 20.14-4.02 30.07-.56 1.76-.63 4.44-2.85 4.9-6.88 1.9-14.17.21-21.11 1.82h-31.34c-6.82-1.76-13.89-.8-20.84-1-8.91.11-17.83-.28-26.73.22-20.08-.77-40.18.33-60.27-.03v-186.1c6.29-3.15 12.3-6.89 17.77-11.33 3.25-2.65 7.21-4.16 10.86-6.13 9.32-4.95 18.99-9.15 28.63-13.41 8.18-4.28 14.64-11.61 23.71-14.23 8.99-2.5 17.9-5.4 27.11-6.99 2.53-.38 4.65-1.9 6.98-2.84 2.57-1.17 5.63-1.3 7.76-3.34z" fill="#00aaef"/><path fill="#0a0301" d="M236 348.05c1.92.94 3.73 2.08 5.61 3.11.25-.71.74-2.15.99-2.86 2.16.5 4.34.93 6.52 1.32-2.89 1.26-5.86 2.67-9.06 2.76-2.34-.08-3.11-2.63-4.06-4.33z"/><path fill="#0e0603" d="M229.9 349.2c.74.05 2.23.16 2.97.21.09 1.2.17 2.41.23 3.63-2.08-.18-2.5-2.28-3.2-3.84z"/><path fill="#0a0301" d="M200.84 349.67c1.53 1.58 2.93 3.27 4.21 5.06-1.03.77-2.06 1.55-3.08 2.33-.73-2.4-1.36-4.87-1.13-7.39z"/><path fill="#553934" d="M267.55 351.78c2.31.26 4.36 1.35 5.69 3.29-2.52.25-4.72-.92-5.69-3.29z"/><path fill="#0e0603" d="M222.37 352.39l.72.51.64.47c2.17 1.57 4.4 3.04 6.47 4.74-2.42-.45-4.75-1.23-7-2.2-.29-1.17-.57-2.35-.83-3.52z"/><path fill="#0a0301" d="M241.76 358.96c1.16-4.28 6.13-2.52 9.39-2.73-3 1.29-6.11 2.44-9.39 2.73z"/><path fill="#2d2b22" d="M206.84 356.43c4.12.43 7.08 3.51 8.39 7.28-1.88-.15-3.76-.3-5.63-.43-1.06-2.23-1.95-4.53-2.76-6.85z"/><path fill="#645249" d="M219.1 359.32c.57-.86 1.14-1.72 1.72-2.57 2.77 3.63 6.92 5.6 10.69 7.97-1.11 1.12-2.21 2.25-3.35 3.34.2-1.33.4-2.66.61-3.99-2.07-.19-4.14-.38-6.21-.56-1.15-1.4-2.31-2.8-3.46-4.19z"/><path fill="#41382e" d="M219.99 369.15c-.13-3.27-3.19-6.86-.89-9.83 1.15 1.39 2.31 2.79 3.46 4.19 2.07.18 4.14.37 6.21.56-.21 1.33-.41 2.66-.61 3.99-1.42.67-2.88 1.22-4.35 1.72-1.29-.16-2.56-.36-3.82-.63z"/><path fill="#a57165" d="M306.5 360.13c1.15-.93 1.81-.69 1.97.74-1.16.92-1.82.68-1.97-.74z"/><path fill="#0a0301" d="M234.9 361.09c1.44.91 2.86 1.86 4.26 2.85-1.02 1.13-2.05 2.25-3.09 3.36-1.06-1.93-1.7-4.01-1.17-6.21zm10.8 2.94c2.13-.95 4.3-1.83 6.44-2.76-.52 1.61-1.07 3.2-1.59 4.81-1.77-.3-3.37-1.07-4.85-2.05z"/><path fill="#080303" d="M282.99 362.09c1.53.02 3.06.05 4.6.11.89 3.33 3.44 5.4 6.36 6.95-4.45-.86-7.7-4.17-10.96-7.06z"/><path fill="#0c0a08" d="M209.6 363.28c1.87.13 3.75.28 5.63.43.98 2.25 2.23 4.66 4.76 5.44 1.26.27 2.53.47 3.82.63.51 1.59 1.08 3.15 1.74 4.69l.96 2.23c2.02.16 4.04.33 6.06.62 1.98.56 3.9 1.3 5.84 2.02-.81 1.4-1.61 2.8-2.38 4.23 2.46.26 4.28-1.08 5.49-3.13 2.23-2.86 4.83-5.55 8.28-6.91-.62 1.67-1.27 3.34-1.98 4.98-2.4 1.67-4.36 3.85-5.98 6.27 4.97 2.33 8 6.89 11.01 11.24 2.09 3.16 5.47 5.65 9.41 5.5 2.89-.61 5.27-2.98 8.36-2.72 5.28.25 10.39-1.66 15.01-4.05 3.86-3.72 9.74-3.26 14.59-4.71.02.46.06 1.38.09 1.84-1.16.84-2.36 1.62-3.54 2.42-.04 1.23-.07 2.48-.1 3.73-3.31.83-6.29 2.54-8.84 4.79-2.89 2.62-6.81 3.43-10.39 4.68-.47 1.9-.91 3.81-1.44 5.7-1.69 4.39-3.85 8.57-6.24 12.62-2.64.13-5.24.56-7.81 1.15.8-2.57 1.56-5.14 2.18-7.75-2.68.18-5.35.38-8.02.57.75-.49 1.5-.98 2.26-1.46 2.27-.28 4.54-.7 6.67-1.56-1.02-.74-2.04-1.46-3.07-2.17-.38-.26-1.15-.79-1.54-1.05.73-1.6 1.45-3.21 2.17-4.81-3.56 1.27-7.02 2.79-10.47 4.34-1.04.42-2.08.82-3.12 1.22.25-1.43.48-2.86.73-4.29-1.67-1.02-3.34-2.03-5.03-2.98-3.77-1.98-7.15-4.6-10.56-7.1-2.52-4.06-6.58-7.29-11.5-7.64-.2-4.67-2.49-8.77-5.74-12-1.08.82-2.25 1.77-3.58.76-.61-4.14-.39-8.75-3.6-11.92 1.23-1.88 1.1-4-.13-5.85z"/><path fill="#4a3231" d="M273.47 365.27c1.49-.57 4.33.77 4.21 2.5-1.49.44-4.15-.9-4.21-2.5z"/><path fill="#080303" d="M326.95 373.01c3.02-2.08 5.74-4.54 8.2-7.26 1.06 4.23-2.99 6.63-6.23 8.09-.49-.21-1.48-.62-1.97-.83z"/><path fill="#946457" d="M201.07 368.59c1.41.13 1.67.79.78 1.98-1.42-.15-1.68-.81-.78-1.98z"/><path fill="#62443a" d="M240.18 370.57c1.39.18 1.64.86.75 2.05-1.39-.18-1.64-.86-.75-2.05z"/><path fill="#3f372d" d="M225.55 374.47c2.93-1.29 5.92-2.45 8.98-3.42-.74 2.06-1.38 4.15-1.96 6.27-2.02-.29-4.04-.46-6.06-.62l-.96-2.23z"/><path fill="#060505" d="M310.01 382.15c.58-4.13 3.86-6.99 7.53-8.52-.35 1.76-.69 3.53-1.08 5.29 2.28-.87 4.58-1.7 6.9-2.46-3.23 3.36-7.64 7.82-12.69 5.52.01.7.05 2.1.06 2.81-1.64.22-3.27.46-4.9.68.2-.73.61-2.2.81-2.93 1.12-.14 2.24-.27 3.37-.39z"/><path fill="#3c3129" d="M241.84 384.78c1.62-2.42 3.58-4.6 5.98-6.27.4.79.8 1.59 1.2 2.39-.45 1.25-.88 2.5-1.31 3.75 1.76.83 3.7 1.38 5.27 2.56 1.92 2.14 2.78 4.96 3.62 7.65 9.66.65 19.38.73 29.03-.11-4.62 2.39-9.73 4.3-15.01 4.05-3.09-.26-5.47 2.11-8.36 2.72-3.94.15-7.32-2.34-9.41-5.5-3.01-4.35-6.04-8.91-11.01-11.24z"/><path fill="#6e5a50" d="M238.41 379.34c.78.27 2.33.82 3.11 1.1-1.21 2.05-3.03 3.39-5.49 3.13.77-1.43 1.57-2.83 2.38-4.23z"/><path fill="#5a3e28" d="M216.23 385.3c.57.56.57.56 0 0z"/><path fill="#0e0603" d="M296.57 385.35c3.02.47 6.16.9 8.83 2.52-3.1-.07-6.14-.72-9.21-1.07.09-.36.28-1.09.38-1.45z"/><path fill="#beacae" d="M296.77 394.3c1.18-.8 2.38-1.58 3.54-2.42.02.32.08.96.11 1.28 1.76.04 3.53.01 5.29-.09-2.83 1.96-5.69 3.99-9.04 4.96.03-1.25.06-2.5.1-3.73z"/><path fill="#332f29" d="M264.82 406.2c2.73-.37 5.48-.48 8.23-.4-.44 1.03-.88 2.06-1.31 3.09-2.34-.57-6.16.32-6.92-2.69z"/><path fill="#51443a" d="M244.71 407.03c1.69.95 3.36 1.96 5.03 2.98-.25 1.43-.48 2.86-.73 4.29-3.45-.76-4.47-4.14-4.3-7.27z"/><path fill="#00aaef" d="M172.61 407.46l3.14.28c5.79 5.27 12.63 9.13 19.31 13.11 12.16 7.46 25.3 13.09 38.41 18.61 6.21 2.6 12.26 5.86 18.96 7.05 1.63.43 3.17-.43 4.62-1.04 1.57-.81 3.01-1.83 4.37-2.95 3.54 7.12 5.15 15.06 9.06 22.02 5.32 9.32 7.44 19.97 11.22 29.93 2.86 6.88 5.91 13.69 9.2 20.37 2.35 7.52 5.46 15.14 4.93 23.17-.23 5.32-.4 10.65-.88 15.96.02 2.37-1.86 4.04-3.12 5.84-2.15 2.53-2.67 5.92-3.5 9.03-7.41.68-14.89.67-22.32.23-7.37-.05-14.62-1.87-22-1.34-9.05.8-17.46-3.19-26.18-4.81-4.97-1.83-10.24-2.28-15.34-3.53-4.92-1.56-4.86-7.43-5.35-11.63-.82-10.67-5.8-20.26-10.04-29.87 2.82-1.05 6.06-1.39 8.46-3.33 3.35-3.42 6.26-8.19 5.09-13.16-1.93-5.15-7.94-6.75-10.96-11.01-1.01-2.55-.42-5.43-1.11-8.07-1.43-2.79-4.19-4.79-5.08-7.89-1.45-5-1.7-10.25-2.57-15.37-2.25-16.41-5.62-32.65-8.39-48.97.02-.65.06-1.97.07-2.63z"/><path fill="#060407" d="M175.75 407.74c8.58 2.82 15.67 8.68 23.38 13.18 14.81 9.28 31 16.26 47.72 21.3 3.41 1.05 6.91 1.84 10.2 3.25-1.45.61-2.99 1.47-4.62 1.04-6.7-1.19-12.75-4.45-18.96-7.05-13.11-5.52-26.25-11.15-38.41-18.61-6.68-3.98-13.52-7.84-19.31-13.11z"/><path fill="#483a31" d="M252.13 413.08c3.45-1.55 6.91-3.07 10.47-4.34-.72 1.6-1.44 3.21-2.17 4.81.39.26 1.16.79 1.54 1.05-1.34.55-2.68 1.11-4 1.72-.42-1.11-.85-2.22-1.3-3.31-1.51.01-3.03 0-4.54.07z"/><path fill="#00aaef" d="M269.76 425.82c2.39-4.05 4.55-8.23 6.24-12.62 3.09 2.53 5.3 5.91 7.97 8.84 3.89 3.62 9.12 5.38 12.97 9.05 3.48 3.21 6.75 6.73 9.15 10.84 2.19 3.77 5.38 6.97 6.88 11.14 1.35 3.61.73 7.59 1.76 11.28 2.22 7.38 1.39 15.22.36 22.72-.53 4.19 1.23 8.3.49 12.47-.94 5.42-.38 10.93-.73 16.39-.69 8.77-1.86 17.58-.93 26.39-2.37-.39-4.8-1.11-5.79-3.52-1.93-4.25-7.03-5.94-8.43-10.49-3.57-8.37-5.96-17.19-9.57-25.55-6.3-17.38-13.31-34.5-20.46-51.55-1.83-4.27-2.69-8.9-4.87-13.03 2.63-3.67 3.98-8.01 4.96-12.36z"/><path fill="#99837c" d="M257.97 416.32c1.32-.61 2.66-1.17 4-1.72 1.03.71 2.05 1.43 3.07 2.17-2.13.86-4.4 1.28-6.67 1.56l-.4-2.01z"/><path fill="#fefefe" d="M192.9 498.01c1.88 1.59 3.64 3.52 4.04 6.06-2.14-1.35-3.55-3.6-4.04-6.06z"/><path fill="#060202" d="M0 599.19c20.09.36 40.19-.74 60.27.03l-1.1.78H0v-.81z"/><path fill="#072f42" d="M60.27 599.22c8.9-.5 17.82-.11 26.73-.22 6.95.2 14.02-.76 20.84 1H59.17l1.1-.78z"/></svg>