<svg xmlns="http://www.w3.org/2000/svg" viewBox="0 0 593 455"><title>tennis_racket_pink</title><title>Layer 1</title><path d="M348.166 51.16C260.91 97.755 242.822 185.1 261.283 230.507c-45.015-56.493-1.823-150.203 93.797-200.69 86.416-49.39 233.142-41.246 230.538 68.71C555.465 1.342 435.42 4.57 348.166 51.162z" fill="#fff" fill-rule="evenodd"/><path d="M573.908 51.157c33.996 57.815-9.807 142.897-97.837 190.035-88.03 47.14-184.91 40.37-220.95-19.33-33.99-57.816 9.81-142.898 97.84-190.037 88.03-47.138 186.95-38.483 220.95 19.332zm12.08 14.8c24.9 71.33-13.316 135.698-103.188 197.268-65.566 44.918-166.305 47.494-222.16-5.3-53.35-50.467-16.42-171.22 86.855-226.892C442.5-22.277 560.225-4.5 585.988 65.957z" fill="#fff" fill-rule="evenodd"/><path d="M241.574 157.487c-24.368 78.49-71.812 126.125-152.34 207.45 18.63-25.687 41.985 6.5 31.088 18.61 95.885-50.615 206.635-76.08 289.73-90.14-8.075-11.355-8.632-21.04 1.668-27.382-26.265 6.84-75.873 10.02-109.424-4.597-6.753 2.297-10.536 11.21-9.87 18.706 5.46 4.264 5.71 9.037-19.92 15.22-42.247 13.064-76.12 23.414-114.984 40.448-3.53 1.02-7.41-.316-5.516-2.372 29.366-33.06 55.153-63.257 67.468-80.188 6.157-8.466 16.198-14.46 31.71-7.125-5.862-7.86-6.55-17.077 7.033-21.048-5.51-32.33-3.186-39.83-1.314-52.24.657-13.16-6.213-18.57-15.327-15.35z" fill="#00aaef" fill-rule="evenodd"/><path d="M133.527 355.6c-4.03-7.135-22.087-13.907-25.257-11.233L7.157 414.337c-2.61 1.97-6.938 8.626-1.577 6.153 5.182-.87 17.76 1.583 21.053 6.71 4.17 7.154 4.39 22.19 1.07 26.573L130.618 379.6c.705-.7 2.102-1.567 2.315-2.692 4.046-5.725 2.28-18.744.593-21.308z" fill="gray" fill-rule="evenodd"/><path d="M12.365 414.067C6.517 411.07.428 419.124.27 425.694l-.267 11.158c-.157 6.57 5.778 9.095 11.626 12.094l11.01 5.645c5.85 3 11.93-5.05 12.09-11.62l.27-11.16c.16-6.57-5.78-9.09-11.63-12.09l-11.01-5.65z" fill-rule="evenodd"/><path d="M253.553 174.12L482.927 13.85m-231.77 177.32L502.87 15.547M253.45 206.525L515.725 20.63M256.84 220.287L531.08 26.912M263.618 232.75l280.42-199.06M273.084 241.82L555.796 42.165m-271.55 208.13l278.93-197.467M297.39 256.868L571.15 63.594M310.64 263.852L578.03 75.954M327.07 268.542L581.816 90.11M347.51 270.34l236.6-166.486m-328.26 53.03l204.347-142.93m-90.6 257.367l211.498-149.18M311.52 68.93l194.885 152.09M302.625 77.822L495.813 229.07M293.305 86.296l191.07 149.55M285.68 95.616L473.36 243.05M278.476 105.36l182.596 143.62M272.97 115.953l173.275 138.113m-179.63-127.52L433.11 260.418M260.684 139.676L416.59 264.232m-94.053-203.78l193.61 152.518M333.55 52.827l193.19 151.67M345.84 45.625l190.646 149.55M358.548 38.847l185.985 146.585M372.105 32.917l180.9 142.77M385.66 26.984l174.97 138.113M399.22 21.9l168.19 132.18M416.59 18.51l156.75 123.285M433.96 15.122L578.85 129.51M458.954 14.696L582.66 111.29m-322.825 27.96l173.7-123.706m-33.337 252.5L572.414 144.97" fill="none" stroke="#00aaef" stroke-width="1pt"/><path d="M64.83 374.507l-21.907 15.127c2.79-1.553 11.536 16.565 13.028 19.912 1.02 3.174 2.92 22.098.62 23.228l22.82-16.524c1.27-1.83.49-18.21-.87-21.53-1.65-3.08-10.85-22.47-13.68-20.21zm43.46-30.478c2.79-.29 12.26 15.56 13.75 18.91 1.014 3.17 2.614 21.2.32 22.33l8.705-6.11c6.06-3.58 5.045-21.14 2.945-24.28-1.612-3.01-18.715-12.86-25.72-10.87z" fill="#fff4da" fill-rule="evenodd"/><path d="M107.743 344.303L86.56 359.555c2.788-1.554 11.96 15.717 13.45 19.064 1.013 3.17 2.613 21.5.318 22.63l22.815-16.53c1.27-1.84.785-17.61-.573-20.94-1.65-3.08-12.004-21.75-14.828-19.49zm-64.396 45.754L20.47 405.31c2.79-1.554 12.41 18.486 13.9 21.833 1.012 3.175.665 21.65-1.63 22.78L56.903 432.5c1.27-1.835 1.234-18.36-.124-21.683-1.65-3.08-10.61-23.02-13.44-20.76z" fill="#f0ca67" fill-rule="evenodd"/><path d="M86.56 359.43l-21.907 15.077c2.79-1.554 11.836 16.017 13.327 19.364 1.012 3.18 2.912 21.95.617 23.08l22.366-16.37c1.27-1.83.935-18.21-.423-21.53-1.65-3.08-11.157-21.87-13.98-19.61zm-65.667 45.667l-12.92 8.474c2.788-1.55 17.315 6.89 20.864 8.9 2.582 1.56 4.307 3.96 6.25 6.99.21-1.9-10.098-24.71-14.194-24.36z" fill="#f4da80" fill-rule="evenodd"/></svg>