<svg xmlns="http://www.w3.org/2000/svg" viewBox="0 0 512 512"><path d="M462 128.223c-15.158 6.724-31.45 11.27-48.547 13.31 17.45-10.46 30.854-27.025 37.164-46.764-16.333 9.68-34.422 16.72-53.676 20.51-15.41-16.43-37.38-26.69-61.69-26.69-54.56 0-94.67 50.91-82.33 103.78-70.25-3.53-132.53-37.18-174.22-88.32-22.14 37.98-11.48 87.69 26.16 112.85-13.85-.44-26.89-4.24-38.28-10.58-.91 39.16 27.15 75.78 67.8 83.95-11.89 3.23-24.92 3.97-38.17 1.44 10.76 33.58 41.98 58.01 78.96 58.7-35.54 27.85-80.29 40.29-125.14 35 37.41 23.98 81.84 37.98 129.57 37.98 156.94 0 245.6-132.55 240.26-251.44 16.51-11.92 30.84-26.8 42.17-43.76z" fill="#f7d884"/></svg>